<svg xmlns="http://www.w3.org/2000/svg" width="566.653" height="812.744" viewBox="0 0 566.653 812.744">
  <g id="Grupo_9" data-name="Grupo 9" transform="translate(-925 -1635.656)">
    <g id="_60c80a362961770f6b734dbe83a9bae7" data-name="60c80a362961770f6b734dbe83a9bae7" transform="translate(924.741 2452.549)">
      <path id="Trazado_298" data-name="Trazado 298" d="M212.5-815.3a7.907,7.907,0,0,1-4.7,1.5c-1-.2-2.8.7-4.1,2-2,2-2.5,3.8-3,10.5-.8,10.6.9,15.9,6.6,20.7,2.3,2,5.6,4.9,7.2,6.6,2.7,2.7,3.6,3,9.4,3,6,0,6.6-.2,9.6-3.5,4.4-4.6,5.9-9.4,5.2-16.3-.7-6.7-6.2-18.4-10.6-22.6C224.2-817.2,217-818,212.5-815.3Zm12.6,2c1.3,1.5,1.2,1.5-.8.4-2.4-1.2-2.9-2.1-1.4-2.1A3.822,3.822,0,0,1,225.1-813.3Zm1.5,4.4a26.962,26.962,0,0,1,7.4,8.4c2.5,5.1,3.9,14.5,2.1,14.5-.6,0-1.1,1.3-1.1,2.9,0,4.2-4.4,9.1-8.1,9.1-2.5,0-2.9-.4-2.9-2.8,0-1.8-.3-2.3-.9-1.4-.7,1.1-1.1,1.1-2.2-.1a10.083,10.083,0,0,0-2.8-1.8c-.8-.3-2-2.1-2.7-4-1-2.8-1.3-3-1.3-1.1-.1,3.5-2.1,1.6-2.2-2.1-.1-3.1-.1-3.1-.9-.7-.7,2.1-.8,2.2-1,.5-.1-1.1-.2-5.2-.2-9,0-5.7-.1-6.3-.7-3.5l-.8,3.5-.3-3c-.2-2.9-.2-2.9-.9-.5-1,3.7-2,1.1-1.2-3.5.8-5.1,3.2-5.7,7.3-1.8,3.6,3.4,8.8,14,8.8,18a9.055,9.055,0,0,0,1.4,4.8c1.3,1.9,1.5,1.9,3.3.3,2.3-2.1,2.1-11-.3-10.1-1,.4-1.4-.3-1.4-2.7,0-1.7-.4-2.9-.8-2.6-.9.5-3.6-5-4.8-9.8-.6-2.4-.8-2.6-1.6-1.2-.5.9-1.3,1.4-1.9,1.1-.5-.4-.9-.1-.9.5s-.5.8-1,.5a1.276,1.276,0,0,1-.4-1.7c.5-.7.2-.8-.6-.3-.9.6-1.1.4-.5-.6C215.6-814.5,219.5-814.4,226.6-808.9Zm-9.6,5c0,.6-.4.7-1,.4a2.335,2.335,0,0,1-1-1.6c0-.6.5-.7,1-.4A2.039,2.039,0,0,1,217-803.9Z" fill="#b48d71"/>
      <path id="Trazado_299" data-name="Trazado 299" d="M138.5-711.9c-8.5,2.7-11.5,6.2-11.5,13.6,0,8,2.7,13,9.2,17.3,6.4,4.1,18.1,8.8,24.3,9.7,5.4.7,12.7-1.7,15-5,3.8-5.4-.5-18.6-8.6-26.4-4.6-4.4-14.2-9.7-19.4-10.6C145.7-713.7,142-713.1,138.5-711.9Zm16.1,3.5c8.3,5,13.8,10.7,16.9,17.6,2,4.5,2.5,6.8,2,9.5-.6,3.4-.7,3.4-2.5,1.8a11.234,11.234,0,0,1-2.6-3.8c-.9-2.9-2.5,0-1.8,3.3l.6,2.5-2.1-2.5c-1.1-1.4-2.1-2.8-2.1-3.3,0-1-2-.9-2,.2a18.058,18.058,0,0,0,2.5,4.5c2.7,3.9,1.5,5-1.6,1.3l-2-2.2.5,2.5c.3,1.4.3,1.9,0,1.3-.3-.8-1.5-1.1-2.7-.8-1.6.4-2.5,0-3.2-1.7a3.8,3.8,0,0,0-3-2.3c-1.5,0-2.4-1.2-3.7-5-1-3-1.7-4.1-1.8-2.7,0,4,2.7,9,5.1,9.4,1.2.2,2.4.9,2.6,1.5.4,1-.3,1-2.9.1-4.2-1.4-6.8-3.6-6.8-5.9a2.9,2.9,0,0,0-.9-2.3c-.5-.4-.7.3-.4,1.4.9,3.5-1.4,2.2-3-1.8l-1.5-3.7-.2,3c-.1,2.6-.3,2.7-1,1a22.237,22.237,0,0,1-.9-6.8c-.1-2.8-.5-4.6-1-4.2-.6.3-.8,2.9-.5,5.8l.5,5.2L133-688c-2.2-2.5-2.3-5.7-.5-13l.6-2.5-1.5,2.5c-1.5,2.4-1.5,2.4-1.6.3a5.685,5.685,0,0,1,1.6-3.7c1.7-1.7,6.9-2.2,5.9-.6-.3.6.1.7.9.4,2-.8,2.1,1,.1,2.6a4.571,4.571,0,0,0-1.5,2.9c0,1.1.8.7,2.6-1.4,2.2-2.6,2.5-2.7,2.1-.8-.3,1.3.1,2.4,1,2.7,1.1.4,1.3.1.8-1.4-1-3.2,1-2.3,6.8,3,6,5.5,7.7,6.1,7.7,2.9,0-2.4-7.6-9.9-10-9.9-.8-.1-2.4-1.5-3.6-3.3-1.1-1.8-2.8-3.1-3.7-3.1-.9.1-1.4-.2-1.1-.7C140.9-713.3,148.7-712,154.6-708.4ZM171-676.6c0,1.6-2.8-1.5-3.4-3.7-.5-2.1-.4-2.1,1.4.3A9.972,9.972,0,0,1,171-676.6Z" fill="#b48d71"/>
      <path id="Trazado_300" data-name="Trazado 300" d="M153-706c1.4,1.2,4,3.5,5.9,5.1,1.8,1.6,3.6,2.7,3.9,2.5.9-.9-1.9-3.5-7.2-6.6C152.6-706.8,151.5-707.2,153-706Z" fill="#b48d71"/>
      <path id="Trazado_301" data-name="Trazado 301" d="M155-681.9a7.845,7.845,0,0,0,1.5,3.5c1.8,2.4,1.9.7,0-2.6Q155.15-683.4,155-681.9Z" fill="#b48d71"/>
      <path id="Trazado_302" data-name="Trazado 302" d="M210.8-668.5a65.635,65.635,0,0,1-1.4,9.9c-.5,1.4-.4,1.7.4,1.2.7-.4,1.2-.2,1.2.3a1.229,1.229,0,0,1-1.3,1.1c-1.3,0-4.7,10.8-4.7,14.9,0,4,1.6,2.1,2.7-3.2,1.4-6.5,3.4-11.6,4-10,.2.6-.7,4.8-2.1,9.3-2.8,8.8-3,9.9-1.7,8.4.9-.9,5.4-14.6,6.5-19.6a19.305,19.305,0,0,0-.4-7c-.6-2.4-1.4-6.3-1.8-8.8C211.4-676.4,211.4-676.3,210.8-668.5Z" fill="#b48d71"/>
      <path id="Trazado_303" data-name="Trazado 303" d="M229.1-673.3c.1,3.2,4.4,13.6,5.8,14.1,1.7.6.8-4.2-2.1-11.1C230.7-675,228.9-676.5,229.1-673.3Z" fill="#b48d71"/>
      <path id="Trazado_304" data-name="Trazado 304" d="M241.2-654.1c0,2.8.4,5.1.9,5.1,1.2,0,1.1-7.1,0-8.9C241.5-658.8,241.2-657.4,241.2-654.1Z" fill="#b48d71"/>
      <path id="Trazado_305" data-name="Trazado 305" d="M271-640.9c-9.1,1.4-19.9,11.3-22.6,20.7-2.9,10,.1,18.1,7.4,20.2,5.8,1.6,14.2,1.2,18.7-.9,12.8-5.9,22.7-23.9,18.1-32.8-2.5-5-6.3-7.4-11.1-7.2a17.58,17.58,0,0,1-5.1-.2C275.9-641.4,273.5-641.3,271-640.9Zm-3.2,9.3c-5.9,6.1-8.2,10.7-7.6,14.8.5,3.4,2.2,2.5,3.2-1.7,1.5-6.6,16.6-19.9,19.3-17.1,1.1,1.1,2.2,12.9,1.6,16.8-.3,2.3-1.1,3.8-1.9,3.8s-1.4,1-1.4,2.2a8.5,8.5,0,0,1-1,3.8c-.8,1.2-1,1-1-1-.1-2.2-.3-2.1-1.6,1.2-.9,2-2.2,3.9-3.1,4.2-1.2.5-1.4-.2-1.2-3.7.3-5.1,1.4-7.6,4.5-10.2a11.361,11.361,0,0,0,3-5.5l.5-3.5-1.4,3a16.062,16.062,0,0,1-3.1,4.4,14.819,14.819,0,0,0-4.6,9.8c0,7.3-2.9,10.1-3.1,3l-.2-4.2-1,4.7c-1,4.5-1.2,4.8-4.3,4.8-2.3,0-3.8-.7-4.8-2.2-1.4-1.9-1.6-2-1.6-.4,0,3.2-2.5,1.1-3.5-3a23.012,23.012,0,0,0-1.7-5c-.8-1.2,4.1-16.1,6.5-19.7,2-3.1,6.5-5.2,11.4-5.3l3.9-.1Zm22,6.8c-1.3,5.9-2.4,6.7-2.1,1.5.2-3.1.1-3.7-.6-2.2-.7,1.7-1,1.5-1.6-1.9-.9-4.7,1.1-6.7,3.6-3.6C290.5-629.4,290.6-628.2,289.8-624.8Z" fill="#b48d71"/>
      <path id="Trazado_306" data-name="Trazado 306" d="M259.5-610c-.8,1.3.4,5.3,1.9,6.2,2,1.4,3.6.8,3.6-1.3C265-609.5,261.3-612.8,259.5-610Zm3.5,3.3c-.1,2.1-.1,2.1-1.5.3-.8-1-1.2-2.3-.9-2.8C261.5-610.6,263-609,263-606.7Z" fill="#b48d71"/>
      <path id="Trazado_307" data-name="Trazado 307" d="M213.2-636.5c-3.5,5-4,6.4-1.6,4.4,1.4-1.2,5.9-8.9,5.1-8.9A26.492,26.492,0,0,0,213.2-636.5Z" fill="#b48d71"/>
      <path id="Trazado_308" data-name="Trazado 308" d="M204.8-626.3c-5.4,8.2-9.9,12.5-16.5,16-10.2,5.4-27.3,19.2-27.3,22,0,.9,1,.2,2.5-1.6a50.935,50.935,0,0,1,8.9-7c3.5-2.2,6.6-4.6,6.9-5.5.3-.8,2-2.2,3.6-3.1,3.5-1.7,4.2-.7,1,1.3-1.2.7-1.8,1.6-1.5,1.9,1.6,1.7,20.7-17.2,24.3-24C208.9-630.6,207.6-630.6,204.8-626.3Z" fill="#b48d71"/>
      <path id="Trazado_309" data-name="Trazado 309" d="M355.6-616.5a26.262,26.262,0,0,0-.6,6c0,4.8-1.9,7.4-2.1,2.8-.1-2.9-.4-2.2-1.3,3.8a13.143,13.143,0,0,1-2.7,5.7c-1.4,1.6-1.6,2.2-.6,2.2,1.9,0,3.4-1.9,4.2-5.3.6-2.2,1-2.5,2.1-1.6,2.5,2.1,3.4,0,2.9-7.3C357.1-617.6,356.6-619.1,355.6-616.5Z" fill="#b48d71"/>
      <path id="Trazado_310" data-name="Trazado 310" d="M171.5-606.3c-4.2,2.3-20.6,17.6-22.8,21.2-2.4,4.1-.4,4,2.2-.2,1.1-1.7,7-7.3,13-12.2C175.9-607.2,178.2-609.9,171.5-606.3Z" fill="#b48d71"/>
      <path id="Trazado_311" data-name="Trazado 311" d="M339.1-598.5a27.576,27.576,0,0,1-.7,4.5c-.5,1.9-.4,2.2.5,1.4.7-.6,1.1-2.6.8-4.5C339.5-599,339.2-599.6,339.1-598.5Z" fill="#b48d71"/>
      <path id="Trazado_312" data-name="Trazado 312" d="M315.8-598a81.027,81.027,0,0,0-2.8,13.5c0,3.3,2.9,1.4,3.6-2.3.8-4.4,2.1-7.2,3.4-7.2.5,0,.3,1.9-.5,4.1-2,5.5-1.8,6.1.5,1.9a17.415,17.415,0,0,0,2-6.4c0-2.8,0-2.8-2.4-1.2-2.4,1.5-2.5,1.5-2.8-1.2C316.5-598.6,316.2-599,315.8-598Z" fill="#b48d71"/>
      <path id="Trazado_313" data-name="Trazado 313" d="M311.1-596.3c-4,7.7-6.6,24.3-3.8,24.3,1.6,0,4-9.5,3.1-12.5-.5-1.8.6-5.9,3.1-11.8.4-1,.3-1.7-.4-1.7C312.6-598,311.7-597.2,311.1-596.3Z" fill="#b48d71"/>
      <path id="Trazado_314" data-name="Trazado 314" d="M328.6-596.4c-.9,2.3-.7,5.4.3,5.4.5,0,1.1-1.6,1.3-3.5C330.6-598.1,329.7-599.2,328.6-596.4Z" fill="#b48d71"/>
      <path id="Trazado_315" data-name="Trazado 315" d="M303.1-590.6a13.819,13.819,0,0,0-2.1,6.3,10.508,10.508,0,0,1-2.1,5.7c-1.7,2.1-1.8,2.6-.5,2.6,2,0,3.2-2.4,4-7.9a26.573,26.573,0,0,1,2.2-7.2C306.6-595.1,305.6-594.8,303.1-590.6Z" fill="#b48d71"/>
      <path id="Trazado_316" data-name="Trazado 316" d="M294.1-587.8c-3.7,15.8-3.4,38.6.5,42.9,2.4,2.7,8.8,2.1,9.2-.9.2-1.2-.1-2.2-.6-2.2-.6,0-1.8-2-2.8-4.5-2-5.5-3.2-5.7-3.6-.8l-.4,3.8-1.6-3.5c-1.4-3-1.5-5.6-.8-18,.4-8,1.1-16.2,1.5-18.3C296.6-594.9,295.5-593.8,294.1-587.8Z" fill="#b48d71"/>
      <path id="Trazado_317" data-name="Trazado 317" d="M200-570.8c-4.3,8.9-4.7,10.3-2.6,9.5,1.1-.4,1.5,1.3,2.1,8.4,1,12.2-.2,13.3-3.7,3.7l-1.9-5.3.6,4.5c.5,4.4,3,9,5.2,9.7.7.3,1.3-1.1,1.5-3.4l.3-3.8,1.8,4a36.424,36.424,0,0,1,2.4,7.3c.6,3.7,2.1,5.1,3.3,3.1.6-.9,1-.6,1.5,1.4.4,1.4,2.3,3.8,4.2,5.3,3.5,2.7,5.7,2.7,3,0a13.717,13.717,0,0,1-2.2-5.4c-.9-5.5-2.5-7.5-1.8-2.2,1,7-1.2,4-3.7-5.2-2.4-9.2-3.6-11.4-2.7-5.3.6,3.7.5,3.8-.8,2.1-.9-1.2-1.5-4.2-1.5-7.5,0-5.3-1.3-6.2-2.2-1.6-.2,1.1-.7-1.4-1.1-5.5a37.049,37.049,0,0,1,1.1-14.8,66.2,66.2,0,0,0,1.6-7.2C204.2-579,202.2-575.3,200-570.8Z" fill="#b48d71"/>
      <path id="Trazado_318" data-name="Trazado 318" d="M204.1-557.4c0,1.1.3,1.4.6.6a2.026,2.026,0,0,0-.1-1.9C204.3-559.1,204-558.5,204.1-557.4Z" fill="#b48d71"/>
      <path id="Trazado_319" data-name="Trazado 319" d="M135.1-556.4c0,1.1.3,1.4.6.6a2.026,2.026,0,0,0-.1-1.9C135.3-558.1,135-557.5,135.1-556.4Z" fill="#b48d71"/>
      <path id="Trazado_320" data-name="Trazado 320" d="M133.6-549.4c-1.8,13.5.6,28.9,6,38.1,2.1,3.7,5,6.3,6.8,6.3,1.4,0,.4-2.4-1.8-4.1-5.9-4.7-11.2-23.6-10.2-36.7C135.2-554.7,134.7-556.9,133.6-549.4Z" fill="#b48d71"/>
      <path id="Trazado_321" data-name="Trazado 321" d="M218.4-535.5c1.6,12.1,3.3,19.2,4.9,20.8,2.5,2.5,2.9,1.8,1.6-2.8a21.852,21.852,0,0,1-.5-7.6c.3-2.1.2-4-.3-4.4-.5-.3-1.1.9-1.3,2.7-.4,3.3-.4,3.3-1.6-1.2-.7-2.5-1.7-5.9-2.2-7.5l-1-3Z" fill="#b48d71"/>
      <path id="Trazado_322" data-name="Trazado 322" d="M144.6-525.3a82.321,82.321,0,0,0,2.5,15,55.878,55.878,0,0,1,1.9,9.6c0,3.9,2.6,9.7,4.3,9.7,2,0,2.7-2.2,2.7-7.8s1.1-4.7,3.5,2.8c1.9,5.8,5,11,6.6,11,.5,0,.9-2.3.9-5,0-5.5-1.7-6.9-2.2-1.8-.3,3-.7,2.4-3.6-5.2a141.226,141.226,0,0,1-4.7-13.5l-1.4-5-.1,9c-.1,4.9-.5,9.9-.9,11-.8,1.9-.8,1.9-1.9-.2a13.866,13.866,0,0,1-1.2-5.8,23.763,23.763,0,0,0-1.5-7.2,57.131,57.131,0,0,1-2.6-10.2C144.5-532.5,144.1-533.7,144.6-525.3Z" fill="#b48d71"/>
      <path id="Trazado_323" data-name="Trazado 323" d="M245.7-524c-1.2,4.3-.8,12.8.7,14.2a30.877,30.877,0,0,1,3,4.3c1,1.7,1.5,2.2,1.2,1.2s-1.1-4.8-1.7-8.5-1.4-8.3-1.8-10.2C246.4-526.3,246.4-526.4,245.7-524Zm1,9.2c-.2,1.3-.4.3-.4-2.2s.2-3.5.4-2.3A16.944,16.944,0,0,1,246.7-514.8Z" fill="#b48d71"/>
      <path id="Trazado_324" data-name="Trazado 324" d="M309.7-518.4a67.546,67.546,0,0,1-1.2,7.1c-.5,1.5-.3,2.3.4,2.3.6,0,1.1-.8,1.1-1.8a3.923,3.923,0,0,1,.7-2.5c1-1.1,1.4-6.8.4-8.4C310.5-522.8,310.1-521.8,309.7-518.4Z" fill="#b48d71"/>
      <path id="Trazado_325" data-name="Trazado 325" d="M166.1-504.8a24.2,24.2,0,0,0,1.8,8c1.1,2.4,2.7,6.4,3.6,9,1.8,5.3,5.4,10.9,7.3,11.6,2.2.7,1.3-2.9-1.6-5.7-1.5-1.5-3.6-5.4-4.6-8.7a40.517,40.517,0,0,0-3.4-8.2,22.094,22.094,0,0,1-2.3-6l-.7-3.7Z" fill="#b48d71"/>
      <path id="Trazado_326" data-name="Trazado 326" d="M264.1-499.9a32.267,32.267,0,0,1-.8,4.9c-.4,2.4-.3,3.1.5,2.6.7-.4,1.2,0,1.2,1s.2,1.5.4,1.3c.3-.2.1-2.9-.4-5.9C264.6-499,264.2-500.8,264.1-499.9Z" fill="#b48d71"/>
      <path id="Trazado_327" data-name="Trazado 327" d="M271.9-494.4c-.1,3.3-.2,3.5-.8,1.4-.7-2.4-.7-2.4-1.4.9a32.54,32.54,0,0,0-.7,5.8,3.219,3.219,0,0,1-1.5,2.9c-1.1.5-1.5,2.2-1.5,6.4,0,3.8-.4,6-1.2,6.2-.9.3-1.3,3.2-1.4,9.3-.1,8.3-.3,9-2.8,11-3.1,2.5-3.3,3.5-.6,3.5,1.1,0,2.7-1.1,3.6-2.5,2.2-3.3,5.4-18.4,5.6-26.4.1-4.9.2-5.5.5-2.4.2,2.4.8,4.3,1.3,4.3.9,0,2.5-22.8,1.6-23.7C272.3-498.1,272-496.6,271.9-494.4Zm-7.2,29.6c-.3.8-.6.5-.6-.6-.1-1.1.2-1.7.5-1.3A2.026,2.026,0,0,1,264.7-464.8Z" fill="#b48d71"/>
      <path id="Trazado_328" data-name="Trazado 328" d="M177.1-491.4a16.122,16.122,0,0,0,1.1,5.5c1.6,4.9,8.9,16.9,9.9,16.3.8-.5.1-3.4-1.1-4.4-1.7-1.4-7.4-11.6-8.5-15.3C177.7-491.7,177.1-492.6,177.1-491.4Z" fill="#b48d71"/>
      <path id="Trazado_329" data-name="Trazado 329" d="M304-485.6c-1.2,2-2.5,3.6-2.9,3.6a28.193,28.193,0,0,1-4.9-2c-5.5-2.7-7.8-2.5-11.1.8a22.063,22.063,0,0,1-5.4,3.9c-3.2,1.5-4.1,5.6-3.2,14.5.3,3.4.6,9.8.5,14,0,4.3.4,7.8.9,7.8,1,0,2.1-3.4,2.1-7,0-2.3.2-2.2,4.3,1.7,5.1,5,6.9,5.9,12.8,6.8s8.3-.4,11.1-5.8c1.7-3.2,2.2-5.9,2.3-11.2,0-7.6-1.3-11.6-5.7-18.2-1.7-2.5-2.4-4.4-1.8-4.8,1.3-.8,4.3-6.6,3.7-7.1C306.4-488.9,305.2-487.5,304-485.6Zm-8.1,4.6c1.3,0,1.3.2.2.9s-.9,1,.8,1.6c2,.6,3,2.5,1.3,2.5-.5,0,1.5,2.5,4.5,5.5,4.9,5.2,6.4,7.6,4.6,7.4-.5,0-2.4-2-4.5-4.4-2.6-3.2-3.8-4-4.2-3A2.293,2.293,0,0,0,300-468c2.2,1.2,8,9.2,8,11.1,0,.7-1.6-.3-3.7-2.2-2-1.8-3.4-3-3.2-2.4,2,4.3,3.3,6.4,3.9,6,.4-.3,1.2.1,1.8.8.6.8.4,2.6-.9,5.4-1.6,3.8-2.2,4.3-5.1,4.3a13.694,13.694,0,0,1-6.3-2c-3.6-2.4-5.2-2.6-3.5-.5.7.8.8,1.5.3,1.5-1.1,0-4.4-3.5-6.8-7.3-1.6-2.5-1.6-2.9-.1-5.2,2.2-3.4,3.3-3.2,5.3,1,1,2.1,2.4,3.5,3.5,3.5,2.5,0,2.3-.7-1.2-4.7s-3.6-4.5-1-10.1c2.4-5.2,1.1-5.6-1.6-.5l-1.9,3.8-.3-6a39.406,39.406,0,0,1,.3-8.3c.5-2.1,1-2.3,3.7-1.8A37.506,37.506,0,0,0,295.9-481ZM283-475.1a28.792,28.792,0,0,0,1.5,6.1c1.1,3,1.2,4.7.4,6.1-.9,1.7-1.2,1.8-2.5.5-1.6-1.7-3-10.5-2.1-13C281.2-477.6,283-477.4,283-475.1Z" fill="#b48d71"/>
      <path id="Trazado_330" data-name="Trazado 330" d="M299.4-450.1c1.1,1.1,2.3,2.1,2.8,2.1,1.4,0-.1-1.9-2.5-3.1C297.5-452.3,297.5-452.3,299.4-450.1Z" fill="#b48d71"/>
      <path id="Trazado_331" data-name="Trazado 331" d="M297-447.5a4.29,4.29,0,0,0,2.2,1.5c.6,0,.5-.7-.2-1.5a4.289,4.289,0,0,0-2.2-1.5C296.2-449,296.3-448.3,297-447.5Z" fill="#b48d71"/>
      <path id="Trazado_332" data-name="Trazado 332" d="M186.5-484c1.1,4.5,7,15.4,8.5,15.9,1.1.3.9-.3-.5-2.5a102.084,102.084,0,0,1-5.3-9.4C187.4-483.6,186.2-485.4,186.5-484Z" fill="#b48d71"/>
      <path id="Trazado_333" data-name="Trazado 333" d="M198.2-467.5c1.8,3.6,3.6,6.5,4,6.5.9,0-.9-4.3-3.9-9.3C194.7-476.1,194.7-474.7,198.2-467.5Z" fill="#b48d71"/>
      <path id="Trazado_334" data-name="Trazado 334" d="M208.5-461.5c4,6.5,6.5,9.5,6.5,7.9,0-.9-7.1-10.9-9.2-12.9C205.2-467.1,206.4-464.8,208.5-461.5Z" fill="#b48d71"/>
      <path id="Trazado_335" data-name="Trazado 335" d="M255.4-462.7c-.5,2.2-1.3,3.9-1.9,4-1.2.1-3.4,8-3.5,12.6,0,3-.2,3.2-1.7,2s-1.6-1.2-1,.4a12.171,12.171,0,0,1,.7,3.8c0,2.4,2.6,2.5,3.9.1,1.2-2.3,5.3-24,4.8-25.5C256.5-466,255.9-464.8,255.4-462.7Z" fill="#b48d71"/>
      <path id="Trazado_336" data-name="Trazado 336" d="M215.1-457.9a50.161,50.161,0,0,1,2.4,6.3c.7,2.2,1.3,3.2,1.4,2.1.1-2.1-3.4-10.5-4.4-10.5C214.2-460,214.4-459,215.1-457.9Z" fill="#b48d71"/>
      <path id="Trazado_337" data-name="Trazado 337" d="M246.5-452.3a89.549,89.549,0,0,1-3.6,8.8c-2.1,4.3-2.5,7.5-1,7.5.6,0,1.7-2.6,2.7-5.8.9-3.1,2.2-7.7,3-10.2C249.3-458,248.6-458.3,246.5-452.3Z" fill="#b48d71"/>
      <path id="Trazado_338" data-name="Trazado 338" d="M181.9-449.9a20.877,20.877,0,0,1-4,1.3c-2,.4-3.2,1.8-4.8,5.3-1.2,2.7-1.9,3.8-1.7,2.5s0-1.9-.6-1.6c-1,.7-.2,11.4,1.3,17.6,1.1,4.1,4.9,7.7,12,11.3,4.8,2.5,9.7,2.6,12.6.3a2.3,2.3,0,0,1,2.2-.4c1.4.9,4.4-13.8,3.9-19.3-.6-6.5-4.4-13.9-8.2-16.2C191.5-451,184.9-451.4,181.9-449.9Zm10.2,2.6c4.1,2.4,7.1,9.6,8.4,20,.6,4.8.5,5.4-2.4,8.3-2.9,3.1-3,3.1-4.9,1.3a20.841,20.841,0,0,1-3-3.8c-1-1.7-1.1-1.5-.6,1.5.5,3.3.5,3.4-.8,1.2-.8-1.2-1.7-1.9-2.1-1.6-.4.4-.7.2-.7-.5s-.5-.9-1.1-.5c-1.5.9-2.9-1.5-2.9-5.1,0-1.9-.3-2.6-1-1.9s-.5,2.6.4,5.9c1.7,5.5.4,4.9-1.9-1l-1.5-4,.5,3.5c.4,2.3.2,3.1-.5,2.4-.5-.5-1.1-5.9-1.3-11.9-.2-6.1-.1-10.2.1-9.2.4,1.8.4,1.8,1.7,0,1.3-1.7,1.4-1.7,2,.2,2.2,6.6,5,12.9,6.7,15,2.3,2.9,4.4,3.4,3.3.7a21.344,21.344,0,0,1-.9-6.4,28.986,28.986,0,0,0-2-8.7c-1.9-4-1.6-7.1.5-7.1A13.8,13.8,0,0,1,192.1-447.3Z" fill="#b48d71"/>
      <path id="Trazado_339" data-name="Trazado 339" d="M189-444.7c0,.7,2,3.7,4.5,6.6,4.3,5,5.8,5.4,3.4.9C195.2-440.3,189-446.3,189-444.7Z" fill="#b48d71"/>
      <path id="Trazado_340" data-name="Trazado 340" d="M197.1-429.3a10.586,10.586,0,0,0,.9,2.8c.8,1.9.9,1.9.9-.2.1-1.2-.3-2.5-.9-2.8C197.5-429.8,197-429.8,197.1-429.3Z" fill="#b48d71"/>
      <path id="Trazado_341" data-name="Trazado 341" d="M237.6-439.9c-1.7,6.3-1.5,9.3.4,4.5,1.2-3.2,2.5-10.6,1.8-10.6C239.5-446,238.6-443.2,237.6-439.9Z" fill="#b48d71"/>
      <path id="Trazado_342" data-name="Trazado 342" d="M217.8-434c-.3,6.3-.7,13.4-1,15.7-.6,4.7.6,5.8,1.7,1.6a7.138,7.138,0,0,1,1.9-3.7c1.1-.9,1.2-2.9.4-9.6C219.1-445.6,218.3-446.7,217.8-434Z" fill="#b48d71"/>
      <path id="Trazado_343" data-name="Trazado 343" d="M250-418.5c0,5.7.4,9.5,1,9.5s1-3.8,1-9.5-.4-9.5-1-9.5S250-424.2,250-418.5Z" fill="#b48d71"/>
      <path id="Trazado_344" data-name="Trazado 344" d="M243.1-411.8c-.1,5.9.3,9.8.9,9.8,1.2,0,1.2-13.3,0-17Q243.25-421.4,243.1-411.8Z" fill="#b48d71"/>
      <path id="Trazado_345" data-name="Trazado 345" d="M213.9-414.1c-1.4,5.7-1.9,5.7-3.6-.2l-1.3-4.2.5,5c.2,2.7.8,6.8,1.1,8.9.5,2.8.4,3.7-.4,3.2-.9-.5-1.2.7-1.2,4.1l-.1,4.8-1.4-3.9a14.956,14.956,0,0,0-2.6-5c-.9-.8-1-.6-.4.9a67.425,67.425,0,0,1,1.9,7c1.6,7.1,3.6,7,3.6-.2,0-4.4.3-5.4,1.2-4.5,2.3,2.3,2.8,1.2,2.8-5.6a48.238,48.238,0,0,1,1.1-10.5c.6-2.2.8-4.1.6-4.4C215.4-418.9,214.6-416.8,213.9-414.1Z" fill="#b48d71"/>
      <path id="Trazado_346" data-name="Trazado 346" d="M239.1-405.5c-.1,4.6.2,7.5.9,7.5.6,0,1-3,1-7.5,0-4.1-.4-7.5-.9-7.5C239.7-413,239.2-409.6,239.1-405.5Z" fill="#b48d71"/>
      <path id="Trazado_347" data-name="Trazado 347" d="M235.6-403.1c.1,8.4,1.8,8.2,2.2-.2.2-4.7-.1-6.4-1-6.4S235.5-407.8,235.6-403.1Z" fill="#b48d71"/>
      <path id="Trazado_348" data-name="Trazado 348" d="M201.1-404.1c-3,14.2-2.3,27.1,1.6,27.1,1.3,0,1.3-.2,0-1.5-2.3-2.3-2.1-26.5.2-25.1.4.3.5-.8.3-2.5a9.054,9.054,0,0,0-.7-2.9C202.3-409,201.7-406.8,201.1-404.1Z" fill="#b48d71"/>
      <path id="Trazado_349" data-name="Trazado 349" d="M230.2-392.8c-.2,3.7.2,4.8,1.3,4.8.9,0,1.5-.9,1.5-2.3,0-1.7-.2-1.9-.9-.8s-1.1.4-1.4-2.5C230.3-397.4,230.3-397.4,230.2-392.8Z" fill="#b48d71"/>
      <path id="Trazado_350" data-name="Trazado 350" d="M202-386.2a20.059,20.059,0,0,0,2,5.2,20.311,20.311,0,0,1,2,5.3c0,1.7,2.8,4.3,3.6,3.4.3-.3-1.3-3.8-3.5-7.9C203.9-384.2,202-386.9,202-386.2Z" fill="#b48d71"/>
      <path id="Trazado_351" data-name="Trazado 351" d="M227-383.3c0,4.3.5,4.1,1.3-.5.4-1.8.2-3.2-.3-3.2C227.4-387,227-385.4,227-383.3Z" fill="#b48d71"/>
      <path id="Trazado_352" data-name="Trazado 352" d="M195.1-382c-.1,3,3.8,9.6,8.3,14.2,2.5,2.6,4.6,5.5,4.6,6.5a8.461,8.461,0,0,0,1.7,4.2c1.5,2.2,1.7,2.3,2.9.6,1.2-1.6,1.5-1.5,5,1.4,5.5,4.4,5.4,3-.1-2a38.705,38.705,0,0,1-6.2-7.2c-.8-1.6-1.7-2.7-1.9-2.4-.3.3.2,1.9,1,3.6,1.8,3.5,1.9,4.1.7,4.1-.5,0-1.7-2.4-2.6-5.3-1.7-5.2-3.5-8.2-3.5-5.9,0,1.9-7.6-7-8.8-10.3C195.6-382.2,195.1-382.8,195.1-382Z" fill="#b48d71"/>
      <path id="Trazado_353" data-name="Trazado 353" d="M226.6-327.8c-1.6.9-22.6,2.7-35.8,3-1.6.1-2.8.4-2.8.8,0,.5-1,.6-2.2.3-1.7-.3-1.9-.2-1,.5,1.1.7.8,1.1-1,1.5-3.4,1-4.5.8-2.8-.4,1.1-.8.6-.9-2-.5-1.9.3-6.6.8-10.5,1.2-8.3.7-35.8,9.5-39.5,12.5l-2.5,2.1,3-.5a36.942,36.942,0,0,0,5-1.2c1.1-.3-.5.7-3.5,2.4-3.4,1.8-6.3,2.8-7.7,2.4-2.7-.6-16.6,9.1-25.7,17.9l-5.9,5.7.6,8.8c.3,4.9,1,10,1.6,11.3,1,2.4,1.6,5.9,4,25a60.8,60.8,0,0,0,2.5,11.5c.8,1.6,2.1,7.3,3,12.6.8,5.2,1.8,10.2,2.1,11.1.5,1.2-.5,1.8-4.7,2.8-2.9.7-5.8,1.6-6.3,2.1a28.207,28.207,0,0,1-5,1.8c-8.6,2.1-26.7,9.2-40.5,15.9q-30.6,15-44.8,36.4c-3.8,5.7-5.1,23.1-2.8,35.7.9,5.2,2.3,10.6,3.1,12.2,2,3.8,2,5.5,0,3.9-2.6-2.2-1.8,1.3,1.3,5.6,4.6,6.3,7.1,7.8,3.9,2.3C6-87.4,6.3-88,10.8-82.7,22.4-68.5,28.4-61.8,30.1-60.9A3.375,3.375,0,0,1,32-58.5C32-55.9,59.7-39,63.9-39a9.327,9.327,0,0,1,4.4,2,8.931,8.931,0,0,0,4.4,2c1,0,4.5,1.2,7.8,2.6C92.8-27.2,99.3-25,102-25a29.189,29.189,0,0,1,7.1,1.5c4.1,1.4,4.3,1.4,2.4-.1l-2-1.7,2,.8c2.9,1,13.4,4.2,17.8,5.3,2.5.7,3.5.7,3.1,0-.4-.6.4-.8,2.2-.4,7.3,1.4,25.4,3.7,37.1,4.6,7,.6,17.1,1.5,22.3,2a196.1,196.1,0,0,0,22.5.7c9.1-.3,10.9-.2,6,.3-4,.4,5.8.6,23,.5,39.6-.3,68.6-2.9,99-9,20.1-4,39.6-9.1,30.5-8.1l-3.5.5,3-1.4a33.627,33.627,0,0,1,7.5-2.1,115.484,115.484,0,0,0,12.9-3c4.6-1.3,8.6-2.2,8.8-2,.5.5-10.2,4.6-11.9,4.6-.6,0-.8.3-.5.6.9.9,12.4-3.4,17.1-6.4a93.845,93.845,0,0,1,11.8-5.3C428-45.9,434-49.3,434-51c0-.5,2.1-2.2,4.7-3.7,14.6-8.4,24.4-15.5,28.4-20.5,5.5-6.9,12.4-17.6,13.4-20.8,1.1-3.7,2.1-15.9,1.3-15.3-.5.2-.8-.9-.8-2.6,0-9.5-6.1-24.3-13-31.6a79.393,79.393,0,0,1-6.3-7.7c-2.4-3.7-11.1-11.8-12.6-11.8-.5,0-1.6-1.1-2.5-2.5-1.6-2.4-1.6-2.8.2-5.8,2.6-4.4,7.7-24.1,6.7-26.4a42.674,42.674,0,0,1-1.2-7.7c-.6-7.9-3.4-14.9-8.8-22.1-11.2-14.9-36.6-19.7-56.1-10.6-7.3,3.4-7.3,3.3-4.4-5.9,1.1-3.4,1.8-6.6,1.5-7a1.1,1.1,0,0,1,.5-1.5c.6-.4,1-5.7,1-13,0-12.2,0-12.3-3.7-19.5a31.63,31.63,0,0,0-9.2-11.6c-3.1-2.4-6.3-4.4-7.2-4.4-1,0-6.6-2.3-12.5-5.1-14.2-6.7-21.7-9.7-28.4-11.4-3-.7-9.1-2.3-13.5-3.4a98.755,98.755,0,0,0-16-2.6c-4.4-.2-13.2-.8-19.5-1.3C256.5-328.5,228.7-329.1,226.6-327.8Zm21.2,5.4c14.2.5,17.2.9,16.8,2-.6,1.7,2,1.9,3,.3,1.4-2.3,38.5,1.5,49.4,5.1,13.9,4.6,28.3,10,33.6,12.7,7.8,3.9,18.3,11.5,18.4,13.2,0,.7,1.4,2.9,3.1,4.9,5.1,5.8,7.2,11.6,6.5,17.9-.4,3.2-.2,5.3.4,5.3,1.6,0,0,3.2-4.1,8.2-3.6,4.3-5.4,7.7-2.7,5s3-1,.3,1.8c-1.6,1.7-3.4,2.9-4.1,2.8-.6-.2-2.7.9-4.5,2.5-5,4.1-12.9,9.1-16.9,10.7a63.307,63.307,0,0,0-7.2,3.8c-2,1.3-7.5,3.4-12.2,4.7-11.9,3.3-38.4,7.8-42.6,7.2a36.619,36.619,0,0,0-8.5.4c-32.4,5.3-64.4,4.8-88-1.2a73.266,73.266,0,0,0-9.5-2.1c-3.9-.1-45.6-11.5-50.5-13.9-11.8-5.7-18.5-10.3-18.5-12.6,0-.7-.4-1.3-1-1.3-.5,0-1,.7-1,1.6,0,1.4-.3,1.4-1.5.4a4.159,4.159,0,0,1-1.5-2.6c0-2.6-2.4-6.5-3.7-6-.9.4-1.3-.3-1.3-1.9,0-1.4-.4-2.5-.9-2.5-.4,0-.6-1.1-.3-2.5a33.417,33.417,0,0,0-.2-6.9c-.5-3.4-1.1-4.4-2.2-3.9-.7.3-1.4,0-1.4-.5,0-.6.8-1.3,1.8-1.6,1.4-.5,1.7-1.4,1.4-3.5-.2-1.7.6-4.7,2.1-7.7,2.7-5.2,13.8-16.6,14.4-14.7.3.7,3.5-.3,8.9-2.8,12.8-5.9,31.8-11.9,41.3-13,4.6-.5,9.1-1.3,10-1.8s8.6-1.1,17.1-1.5,18.9-1.1,23-1.6,10.4-.9,14-1c3.6,0,7.2-.5,8-1.1,1.8-1.3-32.5-.3-43.8,1.2-4.1.6-7.6.8-7.9.5-.7-.6,1.8-1.1,14.7-2.8C213.5-322.9,226.3-323.2,247.8-322.4ZM166.5-319c-.3.5-2.1.9-3.8.9l-3.2-.2,3.5-.7c1.9-.4,3.6-.8,3.8-.9C167-319.9,166.8-319.6,166.5-319ZM124-302.6c0,.2-.7.7-1.6,1-.8.3-1.2.2-.9-.4C122.1-303,124-303.4,124-302.6Zm252.6,51.4c-1.7,1.6-1.8,1.6-.5-.5.7-1.2,1.5-2,1.8-1.7C378.2-253.2,377.6-252.2,376.6-251.2ZM374-238.4c-3,4.2-13.4,13.4-15.4,13.4-.7,0,17.3-17.8,18.2-18C377-243,375.7-241,374-238.4Zm4-1.3c0,1.6-5.1,10.3-8.7,15-2.5,3.2-4.6,6.5-4.7,7.5-.2.9-3.1,3.7-6.5,6.1s-6,4.5-5.7,4.8c.5.5,7-3.6,13.5-8.5l3.4-2.7-.6,3.5c-.4,1.9-.9,5.9-1.3,8.8-.6,5.1-1,5.7-6.3,9.8-3.1,2.5-6.6,4.7-7.8,5-2,.5-3.3,2.4-1.8,2.4,1.6,0,7.9-3.2,11-5.6,2-1.5,3.7-2.5,3.8-2.3.2.2.1,3-.1,6.2l-.4,5.7-11.6,5.7c-6.5,3.2-11,5.9-10,6.1.9.2,5.7-1.7,10.7-4.3,5-2.5,9.1-4.1,9.1-3.6,0,2.3-2.6,6.8-5.4,9.5-3.4,3.2-2,5.2,1.5,2,1-.9,1.9-1.2,1.9-.6s-2.1,2.9-4.7,5.2c-2.7,2.3-3.6,3.4-2,2.5,1.5-1,2.7-1.4,2.7-.9,0,1.1-6.4,13.8-7.1,14.2a18.8,18.8,0,0,0-2.5,1.8c-1.8,1.4-1.8,1.5.4.9,1.2-.4,2.2-.4,2.2-.2,0,1.8-5.5,11.8-7.5,13.7-1.5,1.4-2.3,3-2,4,.6,1.8-14.7,17.3-20.2,20.5-1.7,1-3.4,2.7-3.6,3.7-.5,1.8-2.7,2.6-2.7.9,0-.5-1.9-.2-4.2.6-5.8,2-7.8,3.2-7.8,4.7,0,2.8-18.2,7-41.5,9.5-5.5.6-15.7,1.9-22.6,2.8l-12.6,1.6-10.9-2.6A119.683,119.683,0,0,0,202.7-89c-2.5,0-16.5-5-25.9-9.3-7.2-3.3-17.8-12-16.4-13.5.3-.3,1.4.6,2.5,1.9,2.4,3.1,11.7,8.3,12.5,7,.6-.9-3.9-5.1-5.5-5.1-1.1,0-9.9-6.2-9.9-7,0-1,10.4.6,12.8,1.9,2.9,1.5,3.7,1.4,2.2-.4a4.371,4.371,0,0,0-2.7-1.5c-.8,0-4.9-2.2-8.9-5-6.6-4.3-7.2-5-5.2-5.5,1.4-.3,4.9.5,8.5,2a39.069,39.069,0,0,0,8,2.5c1-.1-2.5-1.7-7.7-3.6-5.2-2-9.9-4-10.4-4.5a5.251,5.251,0,0,0-2.9-.9c-1.5,0-1.8-.5-1.4-2.1s-.2-2.4-2.9-3.6c-1.9-.9-3.4-2.3-3.4-3s.2-1.3.5-1.3c.7,0,11.9,6.1,12.9,7.1a5.9,5.9,0,0,0,3.3.9c1.2,0,5.7,1.1,10,2.5,8.6,2.7,10.3,3,10.3,1.5,0-.6-.8-1-1.7-1-4-.1-21.4-5.9-25.5-8.6-3.6-2.3-4.4-3.4-4.5-6-.1-3.2-.1-3.2,3.1-2.1a37.694,37.694,0,0,1,6.1,2.9c1.7,1,3.9,1.8,5,1.7,1.1,0-.5-1.2-3.7-2.6-4-1.7-5.8-3.1-5.8-4.4a2.755,2.755,0,0,0-2-2.4,6.013,6.013,0,0,1-3.1-2.6c-.5-1.1-2.8-2.7-5-3.5-2.1-.9-3.9-2.2-3.9-3,0-1.2.7-1.1,3.7.2,7.7,3.4,14.2,5.4,15.8,4.7,1.4-.5,1.1-.9-1.4-1.9a13.3,13.3,0,0,0-4.9-1.1c-3,.2-9.4-3.3-8.8-4.9.3-.7-.3-1.8-1.2-2.3-1.2-.7-.7-.9,2.1-.4,2.5.4,3.7.2,3.7-.6s1.1-.6,3.3.6c3.6,1.9,11.7,3.4,11.7,2.2,0-.5-3.3-1.8-7.2-3-7.2-2.2-14.8-5.8-14.8-7.1,0-.8,7,.1,13.5,1.8,2.7.7,5.1,1.1,5.3.9.9-.9-4.2-2.5-12.1-3.9-5.4-.9-10.4-2.5-13.2-4.2-2.5-1.4-4.4-2.8-4.3-3,.2-.2,3.7.7,7.8,2,7.9,2.4,22.8,5.1,23.6,4.3.7-.7-8.9-2.7-12.5-2.7a6.136,6.136,0,0,1-4.1-1.5,5.1,5.1,0,0,0-3.4-1.5c-2.8,0-14.6-5.6-14.6-7,0-.7.6-.8,1.9,0a12.289,12.289,0,0,0,4.2,1c3.3,0,.8-2.4-3.9-3.8-3.3-1-4.1-1.8-5-5.1a25.235,25.235,0,0,1-1.2-5c0-1.5,3.5-.6,7,1.9,1.4,1,7.1,3.4,12.8,5.5,5.6,2.1,10,4,9.7,4.3-.7.8-12.2-2.6-18.7-5.5-3.3-1.5-6.3-2.3-7.4-1.9-5.2,2,10.8,8.2,32.6,12.8a101.191,101.191,0,0,1,10.8,2.9,29.283,29.283,0,0,0,9.5,1.8c4.2-.1,4.1-.1-1.8-1.4-7.6-1.7-19.8-6.4-16.7-6.5,4,0,2.3-1.9-3.3-3.6-3.9-1.3-5.4-2.2-5-3.1.3-.9-.7-1.9-2.8-2.8a11.612,11.612,0,0,1-4.5-3.4,4.575,4.575,0,0,0-3.6-2.1c-1.4,0-2.7-.4-3-.9-.3-.4-4.4-2.7-9.1-5.1-10.1-4.9-10.9-6.4-1-1.9,8.6,3.9,26.8,9.9,29.9,9.9,4.9,0,3.5-1.9-2.1-3C145-205.9,123-214.1,123-216.6c0-.9,2-.3,6.5,2.1a64.62,64.62,0,0,0,12.3,4.6c4.5.9,29.1,7.7,38.5,10.5.9.3,1.7.1,1.7-.4,0-1.5-9.5-5.2-17.4-6.8-11-2.3-15-3.5-16.6-4.9-1.8-1.6-14.2-6.9-21.2-9.1-2.7-.8-4.8-1.9-4.8-2.4,0-.6-.8-1-1.9-1-1.9,0-5-5.5-3.7-6.7.4-.4.9.3,1.3,1.5.8,3.3,18,11.3,31.3,14.7,12.6,3.3,23.6,5.5,26.9,5.5,5.4,0-.2-1.7-16.2-5-3.2-.6-5.7-1.4-5.4-1.6.7-.7,37.4,5.5,45.7,7.7,10.4,2.8,34.1,3.6,56.9,1.9,10.2-.7,18.2-1.8,19.1-2.5.8-.6,5.6-1.7,10.7-2.4,19.3-2.4,49.3-9.2,56.5-12.8,3.6-1.8,4.1-1.7,2.8.8-2,3.7-.2,3.3,4.7-1.1a49.346,49.346,0,0,1,7.8-5.7l3-1.6-2.4,2.6c-1.2,1.4-2,3-1.7,3.6.4.5-1.5,2.2-4,3.7-6.4,3.8-3.7,4.3,3.3.7,6.8-3.4,15.2-10.8,17.8-15.7C376.1-239.3,378-241.1,378-239.7Zm-265.3,7.4c.6,2.9.6,5.3.2,5.3-1,0-2.9-6.6-2.9-10C110-240.9,111.6-238,112.7-232.3Zm314.6-3.4c9.5,3.4,11.8,5.4,16.2,14.3,4.6,9.4,5.9,19.8,3.1,25.2a13.555,13.555,0,0,0-1.6,5c0,3.1-12.7,18.8-17.6,21.7-2.4,1.4-4.4,3-4.4,3.6s-2,1.9-4.5,3c-3,1.4-4.5,2.6-4.3,3.6.2,1.2-2,2.6-8.2,5.1-8.6,3.5-25.1,8.4-25.8,7.7-.2-.2.2-1.3.8-2.5,1.3-2.4.6-4-1.1-2.3a2.763,2.763,0,0,1-2.4.7c-.7-.3-2.8,1.1-4.6,3.2-5.1,5.4-7.2,7.4-8.1,7.4-1.2,0-1-.4,2.2-4.5,3.8-4.8,3.1-5.6-1.5-2-3.5,2.6-8.5,4.1-8.5,2.4,0-2.2,2.5-5.6,5.3-7.4a12.164,12.164,0,0,0,4.2-4.3c.7-1.6,1.8-2.2,4-2.1,2.8,0,2.8.1.8.9-3.8,1.6-2.8,3.3,1.5,2.6,3.6-.5,16.5-5.8,22.2-9.1,1.4-.7,5.9-3.2,10.1-5.5,8.9-4.8,17-12.5,20.4-19.5,2.9-5.9,3.4-16.8,1.1-21.3-2.5-4.8-11.9-10.1-10.2-5.7.4,1.1-.2,1.5-2.4,1.5s-2.8-.4-2.4-1.4c.5-1.3.1-1.3-2.5-.3-2.4.9-3.6.9-5,0a2.9,2.9,0,0,0-3.2-.2c-2.3,1.4-3,1-1.9-1.1a3.609,3.609,0,0,1,2.5-2c.8,0,1.5-.4,1.5-1,0-1.1-2.8-.2-5,1.5a6.292,6.292,0,0,1-4,1,7.3,7.3,0,0,0-4.7,1.8c-3.1,2.8-4.2,1.3-1.3-1.8,1.3-1.4,1.9-2.5,1.3-2.5-1.2,0-8.3,6.7-8.3,7.9,0,.4-1.1,1.3-2.5,1.9-2.4,1.1-2.4,1-1.8-2.1a23.8,23.8,0,0,1,1.8-5.7,42.219,42.219,0,0,0,2.4-6.7c1.3-4.7,5.5-8.7,8.4-7.9a2.1,2.1,0,0,0,2.4-1c.3-.9,2-1.4,4.7-1.5,3.9,0,9.3-1.5,7.1-1.9-.5-.2.4-.6,2-1.1C410.2-239.4,419.9-238.3,427.3-235.7Zm-312.4,3c0,2.7-.2,2.9-.9,1.2-1.2-2.8-1.2-5.7,0-5C114.6-236.2,115-234.4,114.9-232.7Zm-8.9-1.6a25.879,25.879,0,0,0,.6,4.3c.4,1.8.3,2.1-.4,1-1.5-2.5-2.3-7-1.2-7C105.5-236,106-235.2,106-234.3Zm19,5.6c1,1.7.9,1.8-1.2,1.2-3.4-1.1-7.8-4.4-7.8-6C116-235.3,123.3-231.4,125-228.7Zm-15.5,13.2c.9,5.5,1.8,12,2.1,14.5.2,2.5.7,6.2,1,8.2.3,2.1.2,3.8-.4,3.8-1.2,0-3.4-10.3-2.6-12.4a2.332,2.332,0,0,0-.3-2.5c-.6-.3-1.3-5.6-1.7-11.6-.4-6.1-.5-10.8-.2-10.5C107.7-225.6,108.7-220.9,109.5-215.5Zm25.1-6.9c1.8,1.4,1.8,1.5-.6.8-3.1-.8-5-2.4-2.9-2.4A7.137,7.137,0,0,1,134.6-222.4Zm-19.7,2.1c0,2.5-.1,2.6-.9.8-1.2-2.7-1.2-3.5,0-3.5C114.6-223,115-221.8,114.9-220.3Zm35.8-1.1a2.026,2.026,0,0,1-1.9.1c-.8-.3-.5-.6.6-.6C150.5-222,151.1-221.7,150.7-221.4Zm220.3-.2c0,.3-.4.8-1,1.1-.5.3-1,.1-1-.4a1.1,1.1,0,0,1,1-1.1C370.6-222,371-221.8,371-221.6Zm-249.2,3.4c.2.7-.3,1.2-1.2,1.2a1.58,1.58,0,0,1-1.6-1.6C119-220.3,121.2-220,121.8-218.2Zm-7.8,6c0,.7-.4,1-1,.7a3.851,3.851,0,0,1-1-2.8c0-1.8.2-1.9,1-.7A6.792,6.792,0,0,1,114-212.2Zm8-1.8c0,.5-.2,1-.4,1-.3,0-.8-.5-1.1-1-.3-.6-.1-1,.4-1A1.028,1.028,0,0,1,122-214Zm-6.8,9.7c.2,2.4-.1,4.3-.6,4.3s-.1.9.8,1.9c2,2.2,2.7,8.2,1,8.8-1.5.5-2.7-2.3-2.9-7.3a15.221,15.221,0,0,0-1-5.3,2.352,2.352,0,0,1,.4-2.4,5.688,5.688,0,0,0,.4-3.8c-.4-1.6-.2-2.1.5-1.4C114.3-209,115-206.6,115.2-204.3Zm298-2.5c3.3,2.5,8.8,12,8.8,15.2a7.517,7.517,0,0,1-1.8,3.6c-1.7,2.2-1.8,2.2-7.2.5-6-1.8-16.7-5.8-27.3-10.1l-6.8-2.8,2.3-2.2a41.575,41.575,0,0,1,7.3-4.9c4.4-2.4,5.9-2.6,13.1-2.3C408.5-209.5,410.2-209.1,413.2-206.8Zm-291.7,2a5.977,5.977,0,0,1,3.1,3.7c.3,1.4.8,3.2,1,3.9.8,2.7-.7,3.1-4.4,1-2-1.2-3.9-2.3-4.1-2.5-.2-.1.1-.8.7-1.6a4.107,4.107,0,0,0,.5-3.5C117.7-206.3,118-206.4,121.5-204.8Zm4.5,14.2c0,.4-1.2.5-2.7.1-3.3-.8-2.9-.4-3.8-3.3l-.7-2.3,3.6,2.3C124.4-192.5,126-191.1,126-190.6Zm8-3.9c1.7.9,3,1.7,3,2,0,.7-6-1.6-6.6-2.6C129.6-196.4,130.7-196.2,134-194.5Zm241,3.6c0,1.7-.3,1.9-1.3,1-1.6-1.3-2.7-.5-2.7,2a3.272,3.272,0,0,1-1.1,2.5c-1.4.8-.3-4.4,1.3-6.3C372.8-193.7,375-193.2,375-190.9Zm-270.4.9c4.2,0,2.6,1.7-2.3,2.6a40.886,40.886,0,0,1-6.5.6c-1-.1-1.8.2-1.8.7s-.9,1.1-2.1,1.4c-1.5.4-1.9.1-1.7-1.1.2-.8,1.9-2,3.8-2.5a15.749,15.749,0,0,0,4.5-1.8,2.362,2.362,0,0,1,2.3-.4A13.463,13.463,0,0,0,104.6-190Zm22.5,2.7c2.7,1.6,4.9,3.4,4.9,4.2,0,1.1-.5,1-2.5-.3a9.318,9.318,0,0,0-4.1-1.6c-1.9,0-5.4-2.7-5.4-4.2C120-190.6,122.1-190.1,127.1-187.3ZM387-184.9a46.39,46.39,0,0,1,6,4.4c0,.2-1.3-.1-3-.6-1.6-.6-3-1.5-3-2s-1.6-1.7-3.5-2.6-3.5-2-3.5-2.5C380-189.5,380.8-189.2,387-184.9Zm12-3.1a1,1,0,0,1-1,1,1.075,1.075,0,0,1-1-1,1,1,0,0,1,1-1A.945.945,0,0,1,399-188Zm-280,4.7a44.992,44.992,0,0,0,1.9,6.8c1.1,3,1.6,5.5,1.3,5.5-2-.1-4.5-3.4-5.2-6.7-.4-2.1-1.1-5.4-1.5-7.3l-.8-3.5,2.1,1.9C118-185.5,119-184.1,119-183.3Zm276.4-2.2c6.8,3,8.5,3.2,6.1.5-2.6-2.8-.9-2.5,5.4,1.1l5.4,3.1-2.4,1.9a6.112,6.112,0,0,1-4.3,1.5,1.711,1.711,0,0,0-2.3,1.3c-.5,2.1-2.9,3.3-12.7,6.7-7.9,2.7-7.9,2.7-7.1,1.4.4-.6-.6-1-2.2-1a10.093,10.093,0,0,1-4.3-1c-1.2-.8-.9-1,1.1-1,2.1,0,2.8-.6,3.3-2.6.4-1.5.6-2.7.4-2.9-.2-.1-1.2-.7-2.3-1.3-1.6-.8-1.1-.9,2.4-.5,5.7.8,5.3-1.5-.7-3.5-3.7-1.2-5.8-3.2-3.3-3.2,1.4,0,10,4,15.3,7.1s5.8,3.3,5.8,2.1c0-.5-1.1-1.5-2.5-2.2-3.2-1.7-2.6-2.4,1-1,4.7,1.8,4,.2-.9-2.2-2.5-1.2-4.6-2.6-4.6-3.1a4.129,4.129,0,0,0-1.7-2.3C387.6-188.6,389.1-188.3,395.4-185.5Zm-20.2.7c-.7.7-1.2.8-1.2.2,0-1.4,1.2-2.6,1.9-1.9C376.1-186.2,375.8-185.4,375.2-184.8ZM107.5-183c-.3.5-2.3,1-4.3.9-3,0-3.3-.2-1.7-.9C104.3-184.2,108.2-184.2,107.5-183Zm6.2,1.2c-.3.8-.6.5-.6-.6-.1-1.1.2-1.7.5-1.3A2.026,2.026,0,0,1,113.7-181.8Zm-31.1,3a7.267,7.267,0,0,1-3.3.8c-1.6,0-2.1-.4-1.6-1.6.9-2.4,4.7-3.5,5.4-1.5A1.9,1.9,0,0,1,82.6-178.8Zm42.4-.7c0,2.3-.2,2.4-2,1.5-2.1-1.1-2.5-2.2-1.3-3.3C123.2-182.9,125-181.9,125-179.5Zm-49.5.7c-.6,1.6-8.1,5.5-9,4.7-.7-.8,1-2.4,5-4.6C75.9-181,76.3-181,75.5-178.8Zm301-1.2c.3.5.1,1-.4,1a1.1,1.1,0,0,1-1.1-1c0-.6.2-1,.4-1C375.7-181,376.2-180.6,376.5-180Zm-278,1.9c.3.5-.5,1.2-1.7,1.4-2,.4-1.9.4.5.6,1.5,0,2.7-.4,2.7-.9,0-.6,2.2-1,4.9-1h4.9l1.7,9.2a110.229,110.229,0,0,0,3.6,14c2,5.1,13.7,21.5,18.8,26.2,1.7,1.7,3.1,3.6,3.1,4.3s.9,1.3,2,1.3,2,.4,2,1c0,.5-.9,1-2.1,1s-1.9.5-1.7,1.2c.6,1.8,3.9,2.3,4.8.8,1.2-2,3.2,0,2.7,2.6-.2,1.3,0,2.4.4,2.4.5,0,.9-.7.9-1.5,0-2.5,1.3-1.8,6.2,3.2,3.9,4,4.6,5.3,4.1,7.5-.3,1.6-.9,2.8-1.3,2.8-.5,0-1,.8-1.3,1.7-.2,1.1-.9-.1-1.8-3-1.4-5.1-3.2-5.7-3.7-1.4-.8,6.9,11.4,17.9,23.7,21.3,3.1.8,7.3,2.2,9.4,3,2.5.9,7.8,1.4,16,1.4a135.355,135.355,0,0,1,18.2,1.1c8.5,1.6,39.4,2.1,50,.9a166.06,166.06,0,0,0,17-3.1c4.4-1.1,9.6-2.4,11.5-2.9,21.1-5.2,25-6.4,25-7.7,0-.8,2-2.3,4.5-3.4,13.9-5.9,14.1-6.1,12-6.8-1.8-.7-1.8-.9.6-2.4,3.6-2.4,8.4-9.4,9.9-14.4.8-2.4,2.1-4.5,3.4-5.1a19.57,19.57,0,0,0,4.6-3.1c6.8-5.7,17.9-12.1,24-13.6l6.5-1.7,2.2,2.6c1.2,1.4,2.8,2.3,3.6,2,1.4-.5,4.7,4.8,4.7,7.5a1.1,1.1,0,0,0,1,1.1c.6,0,1,3.1,1,7.2.1,10.4,2.2,6.3,3-5.7.6-8.9.6-9,1.8-5a32.828,32.828,0,0,1,1.2,6.2c0,1.3.5,2.3,1,2.3,3.4,0-1.6-16.5-5-16.5-1.8-.1-4-1.3-4-2.4,0-.8,5.1-3.5,5.4-2.9.1.2,1,1.6,2,3.2a13.771,13.771,0,0,1,2.1,5c.2,1.1,1.1,5.2,1.9,8.9,1.9,8.5,1,14.4-3.8,24.2C399.4-97.1,386.8-80,385.2-80a12.2,12.2,0,0,0-3.2,2.1c-2.2,1.8-2,1.8,1.9-.3,2.4-1.2,7.5-5.2,11.3-8.7,13.6-12.6,18.9-30.3,13.9-46.4-1.1-3.8-3-8.1-4.2-9.5l-2-2.6,4.9-1.1a80.657,80.657,0,0,0,11.6-4l6.8-2.9,3.7,4.4c6.4,7.8,8,9.5,8.1,8.4,0-.5-2.3-3.8-5.1-7.3-3.9-4.9-4.8-6.6-3.8-7.2a6.119,6.119,0,0,1,2-.9c1.4,0,4.9,5,7.4,10.7,2.5,5.6,4.5,8,4.5,5.3s-5.3-14.4-7.2-16c-1.9-1.5-2-2-.9-3.4,1.3-1.5,1.5-1.5,3.2,0,1.1,1,2.9,4.3,4,7.6,1.3,3.5,2.8,5.8,3.6,5.8,1,0,1.3-.6.9-1.6a10.869,10.869,0,0,1-.6-2.8c0-.7-1.6-3.9-3.5-7.1-2-3.2-3.2-6.2-2.7-6.7,1.2-1.2,20.3,18.5,22.6,23.4,1.2,2.4,2.7,4.2,3.4,4,2-.4,5.4,8.6,6.3,16.8.4,4.1,1.1,9,1.5,10.7.7,3.7-1.4,4.8-2.3,1.3-.3-1.1-.9-2-1.3-2s-2.4,3.9-4.4,8.8c-4,9.6-10.9,21.2-12.7,21.2-.6,0-3.6,2.4-6.7,5.4-10.5,10-17.7,15.5-25.5,19.8-9.6,5.3-12.4,7.3-8.4,5.8,5.2-1.8,6.3-.9,1.7,1.4-15.4,8-70.6,23.6-72.6,20.5-.6-1.1.1-1.3,8.6-2.9,13-2.5,31.2-9.1,42-15.2,20-11.3,20.6-14.1.8-3.8a211.132,211.132,0,0,1-21.9,9.9c-4.6,1.6-11.1,4.1-14.5,5.5-6,2.5-30.5,7.2-32.9,6.2a15.029,15.029,0,0,0-5.1.5c-2.2.5-10.2,1.4-17.9,2s-15.6,1.2-17.5,1.5c-40.8,4.8-39.6,4.7-60.5,3.6-21.9-1.3-48.7-4.1-49.5-5.2-.6-.8-8.2-2-16.6-2.5-6.3-.4-31.4-4.2-34.9-5.2-1.8-.6-1.8-.7.5-1.3,1.8-.5.1-1-6-1.9-10.3-1.5-23.6-4.8-27-6.6-1.4-.8-8.8-4-16.5-7-14.6-5.9-21-9.2-28.5-14.7a83.95,83.95,0,0,0-7.5-4.9,17.506,17.506,0,0,1-5.3-5.5c-1.3-2.1-2.1-3-1.7-1.9.3,1.2-1.6-.2-5-3.5C12.6-91.7,5.6-114.9,11-125.1c2-3.7.4-4.5-1.8-.9L7-122.5v-4.7c0-3.9.6-5.4,3.2-8.3,2.3-2.7,2.8-3.9,1.9-4.5-3-1.8,3.9-8.8,15.8-16,4.6-2.7,8.6-4.8,8.8-4.7.5.6-2.6,7.5-3.7,8.2a19.8,19.8,0,0,0-3.5,4.6,18.7,18.7,0,0,1-5.5,5.4c-2.8,1.5-3,1.4-3-.4a3.5,3.5,0,0,1,1-2.6c1.2-.7,1.3-2.5.2-2.5-1.3,0-4,6.3-6.3,14.8-3.1,11.2-3.4,13.3-1.8,13,.7-.2,1.5.7,1.7,1.9.4,2.6,3.2,2,3.2-.7a42.741,42.741,0,0,1,2-7.6l2-5.9L20-129c-1.6,1.9-3,3.2-3,2.8,0-1,4.1-8,6.6-11l2.2-2.7-.2,3.9c-.1,2.2-.5,4.2-.9,4.6-1.3,1.3-.7,2.3,1,1.7,1.2-.5,1.4-.3.8.7-1.3,2.2-2.3,9-1.4,9.6.5.3.9,2.6.9,5.2,0,5,1.6,4.8,2.2-.3.3-2.1.7-.8,1.6,4.5,1.4,8.1,2.1,10.5,2.6,9.9.2-.2-.1-3.8-.6-7.9a125.58,125.58,0,0,1-.6-16.6c.3-8.7.5-9.3,4.2-14.7,2.2-3.1,4.1-5.6,4.3-5.4a44.613,44.613,0,0,1-1.3,7.3,135.712,135.712,0,0,0-1.9,18.9l-.4,12L37.6-120a113.826,113.826,0,0,1,5.6-25.8c2.2-6.7,4.3-12.1,4.5-11.8.2.2-.3,2.5-1.1,5.1-2.1,6.1-3.9,22.6-2.6,23.9.7.7,1,.2,1-1.1a15.02,15.02,0,0,1,1.2-5l1.1-2.8.7,3c.6,2.7.8,2.5,1.5-2.3a15.8,15.8,0,0,1,3.9-8.9c3.9-4.4,13-11.3,15-11.3a3.037,3.037,0,0,0,2.3-1.3,13.123,13.123,0,0,1,3.6-3.2c2.3-1.5,3-1.6,3.7-.5.6.9,1.2.5,2.4-1.7,1.3-2.6,2.8-3.4,10-5.7,4.6-1.4,8.9-2.6,9.5-2.6s1.1-.7,1.1-1.5c0-1.8-.4-1.8-4.8-.5-2.9.8-3.3.7-2.8-.6a11.4,11.4,0,0,0,.6-3C94-179.2,97.5-179.5,98.5-178.1Zm276.1,2.8c.1,1.6,0,2.2-.3,1.5-.4-1-1.3-.6-3.4,1.4-3.1,3-3.6,2.7-1.6-.9,1.8-3.3,4-5.8,4.5-5.2A8.8,8.8,0,0,1,374.6-175.3Zm-283,0c-.2,2.1-1.1,3-4.1,4-4.1,1.4-5.2,1.2-3.9-.9a4.786,4.786,0,0,0,.9-2.3c0-1,4.3-3.5,6.2-3.5C91.4-178,91.7-176.9,91.6-175.3Zm38.4-.5c0,1.3-2.3.5-2.8-1-.2-.7.2-1,1.2-.6C129.3-177.1,130-176.3,130-175.8ZM83-175c0,.5-1,1.9-2.2,3.1-1.3,1.2-1.7,1.9-1.1,1.5.8-.5,1.1-.2.7.7-.6,1.7-5.4,4.1-6.3,3.1-.3-.4,0-.9.8-1.2,1-.3,1-.6.1-1.2-2.2-1.4-.1-4.6,3.8-5.7,2-.6,3.8-1.1,4-1.2C82.9-175.9,83-175.6,83-175Zm42.4,1.5c.3.8.1,1.5-.4,1.5-.6,0-1-.7-1-1.5s.2-1.5.4-1.5S125-174.3,125.4-173.5Zm-70,3.4c-2,3.3-4,4.2-3,1.3.4-.9-.5-.3-1.8,1.4-3,3.7-9.5,8.8-10.3,8.1-1.3-1.4,4.1-7.6,8.4-9.8a34.528,34.528,0,0,0,6.1-3.7C57.1-174.9,57.4-173.4,55.4-170.1Zm88.1.2c3.3,1.5,5.3,2.8,4.5,2.9-.9,0-4.7-1.6-8.5-3.5C131.3-174.6,134.7-174.1,143.5-169.9Zm-70.9.6c-.4,1.7-2.3,4-4.7,5.8a21.031,21.031,0,0,0-5,4.7c-2.1,3.8-2.7,1.5-.9-2.8a25.033,25.033,0,0,0,2-6c0-1.3,7.9-5.6,8.8-4.8C73-172.3,72.9-170.9,72.6-169.3Zm56.4-1.2c0,1.4-.4,2.5-.8,2.5s-.9-1.1-1-2.5.3-2.5.8-2.5C128.6-173,129-171.9,129-170.5Zm250.5,3.6c2.3.1,1.2.7-4.3,2.5-9.3,3-11.2,2.3-7.7-2.9l2.5-3.6,3.3,1.9A15.746,15.746,0,0,0,379.5-166.9Zm-257.1-.6c1,.7,1.5,1.8,1.2,2.4-.4.6-.2,2.1.5,3.3,1.1,2.3,1.1,2.3-.8.3-2.2-2.2-4.7-7.5-3.5-7.5A8.272,8.272,0,0,1,122.4-167.5Zm16.2,0c1.8,1.3,1.8,1.4-.4.8a5.569,5.569,0,0,1-2.8-1.4C134.6-169.5,136.4-169.2,138.6-167.5Zm-6.3,2c-.5,1.3-2.3,2.2-2.3,1.1,0-1.5,1.4-3.5,2.1-3.1A1.719,1.719,0,0,1,132.3-165.5Zm-72.6,5.6c-1.3,3.6-3.6,7.9-5.1,9.5l-2.8,2.9.7-2.9c1.6-7,7.6-17.4,9.2-16.2A50.685,50.685,0,0,1,59.7-159.9Zm66.6,5c-.3,1,0,1.9.6,1.9s1.1,1.6,1.1,3.5c0,6.5-3.8,3.2-6.5-5.8-1-3.3-2.4-6.1-3.2-6.4A2.606,2.606,0,0,1,117-164c0-1.3,1.2-.6,4.9,2.7C125.4-158.1,126.6-156.3,126.3-154.9Zm306.6-8.5a5.3,5.3,0,0,1-3.8,1.4l-2.6-.1,2.3-1.9C431.4-166.2,434.8-165.7,432.9-163.4Zm-295.7,2.6a2.594,2.594,0,0,1-2.7.4c-1.3-.4-1.4-1-.5-2.6,1-1.9,1.2-1.9,2.7-.5C137.8-162.3,138-161.6,137.2-160.8ZM39.3-161c-.3,1.2-.8,1.9-1.1,1.6-.5-.6.5-3.6,1.2-3.6C39.6-163,39.6-162.1,39.3-161Zm27.6,2.1c-1.3,1-2.6,1.6-2.8,1.3-.8-.8,3.2-4.4,4.2-3.7C68.8-161,68.2-159.9,66.9-158.9Zm-16,5.9a31.345,31.345,0,0,0-1.9,7.3,7.325,7.325,0,0,1-1.1,3.7c-1.9,2.7-.1-7.7,2.1-12C52.8-159.5,53.2-159,50.9-153Zm-8.8,2.2c-1.2,3.3-8.1,12-8.1,10.1,0-2.9,3.3-9.6,5.7-11.7,1.5-1.3,3-2.3,3.1-2.1C43-154.3,42.7-152.6,42.1-150.8Zm94.3,3.1c-.7,1.8-2.4,2.3-2.4.8,0-2.2,1.3-4.2,2.2-3.3A2.413,2.413,0,0,1,136.4-147.7Zm4.6,4.3c0,.8-.4,1.4-1,1.4-.5,0-1-.9-1-2.1,0-1.1.5-1.7,1-1.4A2.517,2.517,0,0,1,141-143.4Zm6.1-.9c1.3,1.5,1.2,1.5-.8.4-2.4-1.2-2.9-2.1-1.4-2.1A3.822,3.822,0,0,1,147.1-144.3ZM30-142c-.6,1.2-1.4,1.9-1.7,1.7-.2-.3.1-1.5.7-2.7s1.4-1.9,1.7-1.7C30.9-144.4,30.6-143.2,30-142Zm103.4,3c-1.3,1.3-4.9-2.4-3.9-4,.5-.9,1.4-.6,2.8.9C133.8-140.7,134.1-139.7,133.4-139Zm226.7-.7c-1,.9-1.1.8-.5-.6.3-1,.9-1.5,1.2-1.2S360.8-140.4,360.1-139.7Zm31.9-1.9c0,1.1-1.9,1.5-2.5.6-.3-.5.1-1,.9-1C391.3-142,392-141.8,392-141.6ZM146.6-129.3c-.7.7-2.6-.7-2.6-1.9,0-.6.6-.6,1.5.2C146.4-130.3,146.8-129.5,146.6-129.3ZM161-120c1.4,1.1,1.9,2,1.2,2-1.9,0-5.2-1.9-5.2-3C157-122.5,158.2-122.2,161-120Zm181.7,2.4c-1.7,2.6-7.7,7.2-7.7,6,0-1.1,8.3-9.5,8.8-8.9C344.1-120.3,343.6-119,342.7-117.6Zm-187.1.1c1,.8,1.4,1.5.8,1.5a8.141,8.141,0,0,1-3-1.5c-1-.8-1.4-1.5-.8-1.5A8.141,8.141,0,0,1,155.6-117.5Zm322.1,13.7c-.3.7-.5.2-.5-1.2s.2-1.9.5-1.3A5.279,5.279,0,0,1,477.7-103.8ZM331.5-105a2.335,2.335,0,0,1-1.6,1c-.6,0-.7-.5-.4-1a2.04,2.04,0,0,1,1.6-1C331.7-106,331.8-105.6,331.5-105ZM466.2-85.9c-6,11.2-8.6,14.6-13.9,18.3-9.8,6.9-7.5,2.1,4.2-8.6,3.6-3.3,6.5-6.4,6.5-6.9,0-1.4,5.1-9.2,5.6-8.6C468.9-91.4,467.8-88.8,466.2-85.9ZM292-88.1c0,.9-6.4,3.4-11.5,4.6-5.2,1.1-1.4-1.4,5.1-3.5,3.3-1,6-1.9,6.2-1.9C291.9-89,292-88.6,292-88.1ZM259-84c0,.6-2.8.9-6.7.9-6-.2-6.4-.3-2.8-.9C255.6-85.1,259-85.1,259-84Zm192,7.7c0,1.3-6,7.3-7.2,7.3-.6,0,.7-1.8,2.8-4C450.7-77.2,451-77.4,451-76.3ZM39.3-61.4c6.9,5.7,8.8,8,4,4.9-6.3-4-13.3-9.9-16-13.3l-2.7-3.7,3.9,3.3C30.7-68.4,35.5-64.5,39.3-61.4ZM51.5-52c.3.5-.1,1-1,1s-1.3-.5-1-1c.3-.6.8-1,1-1S51.2-52.6,51.5-52Zm49,16.1c7.2,2.4,25.6,6.4,41.5,9.2,2.2.4,2.2.4-.5.6-5,.2-25.5-3.7-35.5-6.8-5.2-1.6-10.6-3.1-12-3.5a12.384,12.384,0,0,1-4.5-2.1l-2-1.7,2,.7C90.6-39.1,95.5-37.4,100.5-35.9Zm0,2.9c.7,1.2-.2,1.2-3,0-1.9-.8-1.9-.9.2-.9C98.9-34,100.2-33.6,100.5-33ZM336-26.1c0,.5-1,1.1-2.2,1.4-6.4,1.6-25.4,4.7-33.8,5.6-34.2,3.6-41.3,4.6-38.5,5.1,2.3.5,1.3.8-4,1.3-10.4,1-20.3.9-20.7-.4-.2-.6-5.2-1.2-12.7-1.5a118.975,118.975,0,0,1-13.2-.9c-.4-.3-8.6-1-18.1-1.6s-17.5-1.3-17.7-1.5c-.4-.3,12.6-.8,22.4-.8,7.1,0,23.8,1.5,26.1,2.4,3.1,1.2,28.7,1.2,36.4,0,16-2.5,69.5-9.6,73.8-9.9C335-26.9,336-26.6,336-26.1Zm23.5.1c1.1.5,1.5.9,1,.9-.6.1-7.3,1.5-15,3.1-7.7,1.7-17.1,3.3-21,3.5-3.8.3-8.6.8-10.5,1.1s-3.2.3-2.9,0c.3-.4,8.4-2,18-3.6s19.7-3.6,22.4-4.4C357.5-27.1,357-27.1,359.5-26ZM163.3-20.8c4.8.6,8.6,1.3,8.3,1.5-.6.6-23.5-1.6-27.6-2.7C139.7-23.2,149.6-22.5,163.3-20.8Zm22.3-.2c3.7,1.1-11.5.2-16.6-1.1-2.4-.6-.8-.7,5.1-.3A64.088,64.088,0,0,1,185.6-21Z" fill="#b48d71"/>
      <path id="Trazado_354" data-name="Trazado 354" d="M230-317c-1.2.8-1.1,1,.8,1,1.2,0,2.2-.5,2.2-1C233-318.3,231.9-318.3,230-317Z" fill="#b48d71"/>
      <path id="Trazado_355" data-name="Trazado 355" d="M278-317c3,.5,8.9,1.1,13,1.4a178.273,178.273,0,0,1,25.1,4c1.9.6,2.1.5.8-.3-4-2.5-19.8-5.3-31.9-5.7C275.3-317.8,273.7-317.7,278-317Z" fill="#b48d71"/>
      <path id="Trazado_356" data-name="Trazado 356" d="M238.8-316.3a2.026,2.026,0,0,0,1.9-.1c.4-.3-.2-.6-1.3-.5C238.3-316.9,238-316.6,238.8-316.3Z" fill="#b48d71"/>
      <path id="Trazado_357" data-name="Trazado 357" d="M263-314.2c0,.5-1.7,1-3.7,1-6.4,0-34.8,1.1-35.3,1.4-.3.1,11.2.5,25.4.8,17.1.3,26.1.9,26.3,1.6.2.6,1.6.9,3.1.7,1.5-.3,10.1.8,19.2,2.3,9.1,1.4,18.1,2.8,20.1,3,6.3.5,15.1,3.5,24.2,8.1,8.9,4.6,9.3,5.1,7.8,10.1a10.351,10.351,0,0,1-3.1-1.3c-1.9-1-3-2.3-3-3.7,0-2-.1-2-1.2-.5-1.2,1.5-1.6,1.5-4.8-.1a34.654,34.654,0,0,0-6-2.2c-1.8-.4-2.7-1.4-3.1-3.5-.5-2.5-1.4-1.8-1,.7.2,1.2-.6,1-4.1-.8a53.905,53.905,0,0,0-26.2-6.3l-9.1.2,8.8,1c6.2.7,8.7,1.3,8.7,2.3,0,.7,1.1,1.6,2.5,2,4.9,1.2,2.5,2.5-3.7,2l-6.3-.5,5.1.9c6.2,1.1,11.3,3.1,9.7,3.7-.6.2-3.2-.3-5.8-1.1a27.716,27.716,0,0,0-7-1.6c-1.6,0-2.5-.6-2.5-1.5,0-1-1-1.5-3.2-1.5a16.6,16.6,0,0,1-6.2-1.5c-2.2-1.2-2.7-1.2-2.3-.2s-.2,1.3-2.1,1c-2.4-.4-2.5-.3-.9.7a4.248,4.248,0,0,0,3.1.7c.7-.3,2,.3,2.9,1.4a6.549,6.549,0,0,0,4.2,1.9c1.3,0,5.9,1.2,10.1,2.6a76.783,76.783,0,0,0,9.8,2.8,24.7,24.7,0,0,1,5.5,1.8c1.9.9,4.1,1.4,4.8,1.1s1.3,0,1.3.5c0,.6.9,1.4,2,1.7s2,1.2,2,2a13.016,13.016,0,0,0,1.5,4.1c1.3,2.6,1.3,2.9,0,3.2-2.1.5-9.6-4-9.1-5.4s-2.1-5.4-3.5-5.4c-.5,0-.7,1.2-.4,2.7l.5,2.8-1.2-2.5c-1.7-3.5-1.6-3.4-5.1-3.6-4.8-.3-13.8-3-14.7-4.4a2.1,2.1,0,0,0-2.4-.7c-.9.4-1.6.2-1.6-.3,0-.6-.7-1-1.5-1s-1.5.5-1.5,1.1c0,.7-1,.9-2.6.5-1.4-.4-2.3-.3-2,.2s2.5,1.2,4.8,1.6,5,1.4,5.9,2.2c1,.9,2,1.1,2.3.6.9-1.4,13.9,3.6,17.3,6.6,3,2.8,5.4,4.2,11.4,6.5,4.5,1.8,12.2,6.7,11.6,7.3-.3.3-2.3-.6-4.5-2-7.5-4.7-20.8-10.4-26.9-11.5a127.778,127.778,0,0,1-14.6-4c-11.2-3.8-35.1-5.7-61.2-4.8-24.2.9-48.9,5.5-67,12.6-9.8,3.8-20,7.1-22.3,7.1-1.1,0-3.4,1-5.3,2.2-1.9,1.3-4.6,2.9-6.1,3.7-3.1,1.6-7.9,6-9.4,8.6-1,1.8-1.3,1.5-3.2-2.8-3.3-7.4-3.7-11.1-1.8-17.1,2.1-6.5,4-8.5,13.4-13,3.9-2,7.2-3.8,7.2-4.1,0-.6-4,.9-8.9,3.5-4.4,2.2-5.5,2.5-4.6,1.1.3-.6,4.9-3.1,10.3-5.6,13.4-6.4,44.7-14.6,59.2-15.5l10.5-.7-12.1-.1c-15.7-.2-30.4,2.4-46.6,8.3-18.7,6.9-23.7,9.5-29.3,15.1-7.7,7.8-8.9,10.7-8.1,18.7.6,5.5,1.4,7.6,4.4,11.7,2,2.7,4.4,5.2,5.2,5.5s4.4,3.3,7.9,6.5c5,4.7,6.7,5.8,7.7,4.9,1-.8,2.2-.6,4.9,1a28.118,28.118,0,0,0,6.3,2.6c1.5.2,6.5,2,11.2,3.9,28.1,11.3,87,15,122.4,7.6,5-1,12.4-2.6,16.5-3.5a165.444,165.444,0,0,1,16.5-2.5,78.238,78.238,0,0,0,19.8-4.9c21.3-8,30.5-13.7,34.5-21.6,2-3.7,4.2-13,4.2-17,0-2.3-.6-1.6-2.4,3.6-3,8.6-4.3,10.9-6.1,10.9-1.1,0-.8-.9,1.2-3.5a15.332,15.332,0,0,0,3.1-8.3c.4-4.3.2-4.9-2.7-7.2-9.2-7.3-10-8.2-10-11.1,0-1.6.3-2.9.8-2.9,1.1.1,11.8,10.3,13.1,12.5.9,1.8,1,1.7,1-1a8.36,8.36,0,0,0-1.7-5c-4-4.7-15.4-12.6-21.3-14.8-13.4-5-23.4-9.2-23.9-9.9C318-309.9,263-316.7,263-314.2Zm41.5,5.7c5.2,1.7,2.8,1.7-6,.1-6.4-1.3-6.6-1.4-2.5-1.4A29.625,29.625,0,0,1,304.5-308.5Zm13,13.6c.4.6.5,1.3.2,1.6-.8.7-4.7-.7-4.7-1.8C313-296.4,316.7-296.2,317.5-294.9Zm9.8,3.6a4.157,4.157,0,0,0,3.2,1.3c1.6,0,2.5.6,2.5,1.5,0,.8-.1,1.5-.3,1.5-1.6,0-12.2-5-12.5-5.9C319.7-294.5,326.3-293,327.3-291.3Zm-2.8,3.5q1.05,1.05-1.5.3c-5.1-1.5-7-2.5-7-3.4C316-292,322.9-289.5,324.5-287.8Zm16.5,4.9c4.3,3.9,3.3,3.7-3.5-.7-2.4-1.6-3.3-3.4-1.7-3.4C336.2-287,338.5-285.2,341-282.9Zm-55,1.4c2.3,1.3,2,1.4-4,.8-9.3-.9-11.9-2.2-4.5-2.2C280.9-282.9,284.6-282.3,286-281.5Zm-49,.5c0,1-6.8,2.6-7.6,1.7-.4-.3-.3-1,.1-1.6C230.3-282.3,237-282.4,237-281Zm98.9,1.9a15.119,15.119,0,0,1,4.7,7.2c1.5,5.1,1.2,5.9-1.6,3.4-2.3-2-8.4-13.5-7.2-13.5C332.2-282,334-280.7,335.9-279.1Zm13-2a1.54,1.54,0,0,1,.6,2c-.5.9-1,.9-2.1,0C344.8-281.3,346-282.9,348.9-281.1ZM208-280c-3.6,1.2-6.2,1.2-5.5,0,.3-.6,2.3-1,4.3-.9C210.1-280.8,210.2-280.7,208-280Zm59.5,2c.7,1.2-2.9,1.2-6.5,0-2.1-.7-1.9-.8,1.7-.9C265-279,267.2-278.6,267.5-278Zm86-.1a1.216,1.216,0,0,1-.5,1.6c-.5.3-1-.1-1-.9C352-279.2,352.6-279.5,353.5-278.1Zm-170.2,1.8a5.278,5.278,0,0,1-2.5,0c-.7-.3-.2-.5,1.2-.5S183.9-276.6,183.3-276.3Zm66.8.7c15,2.3,19.7,3.4,22.4,5.2,3.1,2,3.2,2.9.3,1.9-3.5-1-17.9-2.5-31.3-3.1-14.2-.6-28.1.6-38.5,3.4-9.6,2.6-23.2,9.4-25.9,12.8-1.2,1.5-2.1,2.1-2.1,1.5,0-.7,1.4-2.6,3-4.3,1.7-1.6,3-3.4,3-3.9,0-1.8-6.3,2.5-7.9,5.3-1.9,3.4-3.1,3.6-3.1.5.1-3.3,2.8-6.2,8.8-9.1,3.5-1.8,5.2-3.2,5.2-4.5,0-2.5,2.4-3.2,12.4-3.6,11.1-.5,28.6-2.2,29.4-2.9C226.8-277.5,240.6-277,250.1-275.6Zm97.4.6c1,1.1,1.4,2,.8,2a6.315,6.315,0,0,1-2.8-2c-1-1.1-1.4-2-.8-2A6.315,6.315,0,0,1,347.5-275Zm9.5,1.7c0,2.5-.1,2.6-1.6,1.1-.9-.9-1.3-2.1-1-2.7C355.7-276.9,357-276,357-273.3Zm-187.4.4c-3.3,1.1-6.1,1.7-6.3,1.5-.6-.6,7.9-3.4,10.2-3.4C174.6-274.8,172.8-273.9,169.6-272.9Zm117.9,1c1.5.6.9.8-2.2.8-4.7.1-7.5-.7-6.8-2C279.1-274,283.9-273.3,287.5-271.9Zm-110.7,1.1c-2.1.6-3.8,1.5-3.8,2,0,.6-.9.8-2,.5s-2-.2-2,.3c0,.4-1.7,1.1-3.7,1.5-3.7.7-13.6,4.5-13.1,5,.2.2,3.5-.7,7.3-2.1a45.225,45.225,0,0,1,9.5-2.3c2.9.1,3.2-.1-7.9,3.3-4.6,1.4-8.7,2.3-9.2,2-1.3-.7-7.7,3.3-8.9,5.6-1.4,2.6-1.2,3.4.3,2.1,2-1.6,8.5-3.7,14.1-4.5,4.4-.7,4.8-.6,3.8.7a29.658,29.658,0,0,1-6.6,4.1c-8.4,4.1-10.6,8.6-7,14,2.9,4.2,2.2,4.5-2.8,1.1-2.1-1.4-3.8-2-4-1.4-.2.7-1.7.4-4.1-.7-2.1-1-3.6-2.3-3.3-2.9.2-.7-.6-2.5-1.9-4.1-1.8-2.3-2.1-3.3-1.2-5.1.5-1.2,1.4-2,1.8-1.7.5.3.9-.1.9-1,0-2,5.2-6.2,12.1-9.7,4.5-2.2,5.9-2.6,5.9-1.5,0,1.3.9,1.2,5.8-.5,8.1-2.8,19.3-5.8,21.7-5.7C179.6-271.8,178.8-271.3,176.8-270.8Zm172.7.9c1.1,1.7-.1,2.1-1.5.4-.8-.9-.8-1.5-.2-1.5A2.173,2.173,0,0,1,349.5-269.9Zm-40.7,1.3a3.589,3.589,0,0,1,0,2.1c-.2,1.3-.9,1.2-3.8-1.1l-3.5-2.6,3.4.6A16.5,16.5,0,0,1,308.8-268.6Zm38.9,7.1c-.3,1.5-.5,1.3-.6-.7,0-1.5-.6-3-1.1-3.3a1.276,1.276,0,0,1-.4-1.7C346.6-268.7,348.2-264.2,347.7-261.5Zm5.3-2.2c0,.5-.4.5-1,.2a3.105,3.105,0,0,1-1-2.3c0-1.5.2-1.5,1-.2A6.869,6.869,0,0,1,353-263.7Zm-33.5-.1c.7.7.1.8-2,.4a10.718,10.718,0,0,1-4-1.8c-.7-.7-.1-.8,2-.4A9.353,9.353,0,0,1,319.5-263.8ZM286-263c.8.5,1.1,1,.5,1a6.8,6.8,0,0,1-2.5-1c-.8-.5-1-1-.5-1A6.205,6.205,0,0,1,286-263Zm-85,2c0,2.3-2.5,2.7-3.3.6a1.321,1.321,0,0,1,1.1-1.9c.9-.3,1.8-.5,2-.6A4.7,4.7,0,0,1,201-261Zm73.2.1a8.331,8.331,0,0,1,2.8,2.8c.8,1.5.6,2-1,2.4-1.3.3-2,0-2-.9,0-.7-1.5-2-3.4-2.8-4.8-2-5.8-4-1.5-3.1A23.8,23.8,0,0,1,274.2-260.9Zm32.3,1.4c4.3,4.3,2.8,15.7-2.5,18.5-1.8.9-1.7.6.5-2.6a12.3,12.3,0,0,0,0-14.8C301.7-262.5,302.9-263.2,306.5-259.5Zm28.3.3c.6,1.8-1.5,1.4-2.2-.4-.4-1-.1-1.4.6-1.2A3.123,3.123,0,0,1,334.8-259.2Zm-113.2,1.1c-.4.5-2.3,1.2-4.4,1.6A18.278,18.278,0,0,0,212-255c-1,.7-.4.8,2,.4l3.5-.6-3.5,1.9c-3.1,1.6-3.5,2.3-3.8,6-.2,2.4-.7,4.3-1.1,4.3-1.2,0-7.5-4.9-8.4-6.6-.6-1.1-.2-2.3,1.5-4.1l2.3-2.6-2.7,1.8c-1.6,1-2.8,1.3-2.8.7,0-1.5,3.6-3.3,5.2-2.7.8.3,3-.1,4.9-.9C212.8-259.1,222.5-259.6,221.6-258.1Zm100.7,2.2c.6,2.4-.2,2.4-1.9.1-1.7-2.2-1.7-3.3,0-2.6A3.869,3.869,0,0,1,322.3-255.9Zm-194.4,1.6A19.662,19.662,0,0,1,125-249l-2,2.5v-2.9a8.358,8.358,0,0,1,2.2-5.3C128.1-257.8,129.1-257.6,127.9-254.3ZM289-252c1.8,4.3-.6,9.4-5.5,11.7-4.3,2-5.7,1-2.3-1.7,3.7-2.8,5.4-7.4,3.9-10.6-1.6-3.7-1.4-4.6.8-3.5A9.828,9.828,0,0,1,289-252Zm-104-2.4c0,1.1-3.4,3.3-5,3.3-1,0-.8-.6.9-1.9C183.2-255,185-255.6,185-254.4Zm132.1,7.5c1.4,4.6.6,6-5.2,9-6.4,3.2-7.5,2.5-3.5-2.3,3.2-3.7,3.6-4.8,3.6-9.7l.1-5.6,1.9,2.3A19.508,19.508,0,0,1,317.1-246.9Zm32.2-6.6a1.575,1.575,0,0,1-.3,2c-.6.4-1,.4-1,.1a15.63,15.63,0,0,0-.6-2c-.3-.9-.2-1.6.4-1.6C348.3-255,349-254.3,349.3-253.5ZM193-252a7.561,7.561,0,0,0-2,2.7c.1,2.7,5.3,5.8,11.2,6.7,3.5.5,4.6,1.1,4.1,2.1-.5,1.5-4.8,1.1-6.7-.6-.6-.5-3.8-.9-7.3-.9-6.3,0-6.3,0-5.7,2.5.7,3-.1,3.1-4.3.5-4.1-2.5-4.2-4-.3-4,1.7,0,3-.5,3-1,0-.6,1.1-1,2.5-1,2.2,0,2.5-.4,2.5-3.8,0-4.3.5-5.2,3.2-5.2C194.9-254,194.9-253.9,193-252Zm85-1.6c0,.3-.4.8-1,1.1-.5.3-1,.1-1-.4a1.1,1.1,0,0,1,1-1.1C277.6-254,278-253.8,278-253.6Zm19.5,1.6c1.5,1.6,1.7,2.6.9,4.7-1.4,4.1-3.4,4.1-3.4,0a20.2,20.2,0,0,0-.6-5.1C293.5-254.6,295.3-254.4,297.5-252Zm41-1.1a1.216,1.216,0,0,1-.5,1.6c-.5.3-1-.1-1-.9C337-254.2,337.6-254.5,338.5-253.1ZM220-252a1,1,0,0,1-1,1,1.075,1.075,0,0,1-1-1,1,1,0,0,1,1-1A.945.945,0,0,1,220-252Zm130.5,3c.3.5.1,1-.4,1a1.1,1.1,0,0,1-1.1-1c0-.6.2-1,.4-1C349.7-250,350.2-249.6,350.5-249Zm5,1.5c-1.6,1.4-3.7,2.5-4.5,2.5a12.294,12.294,0,0,0-4.5,2c-4.4,3-11.5,6-13.9,5.9-1.9,0,22.6-12.7,24.9-12.8C358.1-249.9,357.2-248.8,355.5-247.5ZM171-246.1a2.649,2.649,0,0,0,1.9,2.4c2.1.5,3.6,5.7,1.6,5.7-3.8,0-8.2-7-5.8-9.3C169.9-248.6,171-248,171-246.1Zm-19.4.7a15.32,15.32,0,0,0-.6,4c0,1.4-.4,2.2-1,1.9-1.1-.7-1.4-5.8-.3-6.8C150.9-247.6,152.2-247,151.6-245.4Zm6.4,1.3a10.222,10.222,0,0,0,.7,2.8c.6,1.6.5,1.6-1,.4-1.9-1.5-2.3-4.1-.7-4.1A.923.923,0,0,1,158-244.1Zm-1.5,4.2c1.1,1.7-.1,2.1-1.5.4-.8-.9-.8-1.5-.2-1.5A2.173,2.173,0,0,1,156.5-239.9Zm62.8,1.6a5.279,5.279,0,0,1-2.5,0c-.7-.3-.2-.5,1.2-.5S219.9-238.6,219.3-238.3Zm56.2.3c-.3.5-2.3,1-4.3,1-2.8,0-3.3-.3-2.2-1C271-239.3,276.3-239.3,275.5-238Zm-81.3,5a76.369,76.369,0,0,0,10.3,1.9c1.1-.1-.4-.7-3.3-1.4-5.5-1.4-7.8-2.5-4.9-2.5a67.127,67.127,0,0,1,7.9,1.5c16.5,3.8,27.4,4.7,42,3.5,7.7-.6,16.5-1.5,19.6-2,3.3-.6,6-.6,6.6,0,.7.5,4,.5,8.1,0,6.6-.8,8.5-.7,7.3.5-1.1,1.1-17.7,3.5-31.5,4.7-8.8.7-14,1.5-13.6,2.1.8,1.4-30.4.1-43.6-1.7-12.7-1.8-16.4-4.1-5.1-3.2l7.5.6-7.8-2.4a57.981,57.981,0,0,1-8.4-3C184.4-235.3,185.1-235.2,194.2-233Zm108.1,1.1c-.5.5-2.7,1.2-4.9,1.5l-3.9.5,4.5-2.5C302.1-234.6,304.7-234.3,302.3-231.9Zm-17.6,6.5a2.026,2.026,0,0,1-1.9.1c-.8-.3-.5-.6.6-.6C284.5-226,285.1-225.7,284.7-225.4ZM261-221.8c-5.5.8-9.5,1-8.9.3.9-.8,11.4-2.2,12.4-1.6C265.1-222.8,263.5-222.2,261-221.8Z" fill="#b48d71"/>
      <path id="Trazado_358" data-name="Trazado 358" d="M190.3-271.3a6.042,6.042,0,0,0-3.3,1.9c-1.7,1.9-.2,1.7,4-.6C194.5-271.9,194.4-272.1,190.3-271.3Z" fill="#b48d71"/>
      <path id="Trazado_359" data-name="Trazado 359" d="M206.9-252c-1.3,1-1.9,1.9-1.3,2a5.984,5.984,0,0,0,2.9-2C210.8-254.6,209.9-254.6,206.9-252Z" fill="#b48d71"/>
      <path id="Trazado_360" data-name="Trazado 360" d="M185.9-313c-14,.8-22.2,2.4-24.1,4.8-1.2,1.3-1,1.4.9.3,3.8-2,12.2-3.1,26.8-3.6,14.7-.6,26.9-2.3,15-2.2C201.2-313.7,192.8-313.4,185.9-313Z" fill="#b48d71"/>
      <path id="Trazado_361" data-name="Trazado 361" d="M269.5-299c-1.6.7-1.2.9,1.8.9,2.3.1,3.6-.3,3.2-.9C273.8-300.2,272.2-300.2,269.5-299Z" fill="#b48d71"/>
      <path id="Trazado_362" data-name="Trazado 362" d="M277.5-298a2.817,2.817,0,0,0,2.1,1c.8,0,1.2-.5.9-1a2.517,2.517,0,0,0-2.1-1C277.6-299,277.2-298.6,277.5-298Z" fill="#b48d71"/>
      <path id="Trazado_363" data-name="Trazado 363" d="M115.6-293.1a14.581,14.581,0,0,0-3,4.3,12.545,12.545,0,0,1-2.4,4.2c-1.2,1.6-2.2,3.2-2.2,3.7a14.6,14.6,0,0,1-.6,2.6c-.4,1,.8-.2,2.6-2.7s4.7-6.1,6.4-8c2.2-2.5,2.4-2.8.5-1.2-1.4,1.2-2.9,2.2-3.5,2.2-.5-.1,1.1-1.9,3.6-4,2.7-2.4,3.9-4,2.9-4C119.1-296,117.1-294.7,115.6-293.1Z" fill="#b48d71"/>
      <path id="Trazado_364" data-name="Trazado 364" d="M326-278.3c0,1.2.5,2.5,1.1,2.8,1.9,1.2,2.2-.3.5-2.7l-1.6-2.2Z" fill="#b48d71"/>
      <path id="Trazado_365" data-name="Trazado 365" d="M371.1-278.4c0,1.1.3,1.4.6.6a2.026,2.026,0,0,0-.1-1.9C371.3-280.1,371-279.5,371.1-278.4Z" fill="#b48d71"/>
      <path id="Trazado_366" data-name="Trazado 366" d="M154.5-275.1a11.78,11.78,0,0,1-5.1.4,11.907,11.907,0,0,0-6.3,1.1c-4.9,2.6-16.9,10.5-17.7,11.7-1.1,1.8.5,2.3,1.9.6,1.6-2.2,9.4-5.9,20.2-9.8a81.473,81.473,0,0,0,10-4C158.6-276.2,157.3-276.2,154.5-275.1Z" fill="#b48d71"/>
      <path id="Trazado_367" data-name="Trazado 367" d="M197.8-214.3a5.279,5.279,0,0,0,2.5,0c.6-.3.1-.5-1.3-.5S197.1-214.6,197.8-214.3Z" fill="#b48d71"/>
      <path id="Trazado_368" data-name="Trazado 368" d="M217.8-213.3c5.6.2,14.8.2,20.5,0,5.6-.1,1-.3-10.3-.3S212.1-213.4,217.8-213.3Z" fill="#b48d71"/>
      <path id="Trazado_369" data-name="Trazado 369" d="M169-192.4c4.1,1.3,9.3,2.4,11.5,2.3,3.1,0,1.8-.6-6-2.4C161.8-195.5,159.4-195.5,169-192.4Z" fill="#b48d71"/>
      <path id="Trazado_370" data-name="Trazado 370" d="M143.5-184a2.335,2.335,0,0,0,1.6,1c.6,0,.7-.5.4-1a2.039,2.039,0,0,0-1.6-1C143.3-185,143.2-184.6,143.5-184Z" fill="#b48d71"/>
      <path id="Trazado_371" data-name="Trazado 371" d="M156-179.7c.6.6,17.5,3.7,20.4,3.7,4.2,0,.4-1.2-6.6-2.1-4-.5-8.9-1.2-10.8-1.5C157.1-180,155.7-180,156-179.7Z" fill="#b48d71"/>
      <path id="Trazado_372" data-name="Trazado 372" d="M166.8-174.3a5.279,5.279,0,0,0,2.5,0c.6-.3.1-.5-1.3-.5S166.1-174.6,166.8-174.3Z" fill="#b48d71"/>
      <path id="Trazado_373" data-name="Trazado 373" d="M171.8-173.3a2.026,2.026,0,0,0,1.9-.1c.4-.3-.2-.6-1.3-.5C171.3-173.9,171-173.6,171.8-173.3Z" fill="#b48d71"/>
      <path id="Trazado_374" data-name="Trazado 374" d="M176.3-172.3a10.279,10.279,0,0,0,3.5,0c.9-.3.1-.5-1.8-.5S175.3-172.6,176.3-172.3Z" fill="#b48d71"/>
      <path id="Trazado_375" data-name="Trazado 375" d="M182.8-171.3a2.026,2.026,0,0,0,1.9-.1c.4-.3-.2-.6-1.3-.5C182.3-171.9,182-171.6,182.8-171.3Z" fill="#b48d71"/>
      <path id="Trazado_376" data-name="Trazado 376" d="M166.5-154c4,1.5,27.5,5.6,26.4,4.5-.5-.4-26.6-5.6-27.9-5.4C164.7-154.9,165.4-154.5,166.5-154Z" fill="#b48d71"/>
      <path id="Trazado_377" data-name="Trazado 377" d="M323.5-125.8a43.745,43.745,0,0,1-6,2.5l-4,1.3,4-.6c4-.6,12.2-4.3,9.5-4.3A9.308,9.308,0,0,0,323.5-125.8Z" fill="#b48d71"/>
      <path id="Trazado_378" data-name="Trazado 378" d="M313.7-113.5c-1,.7-6.3,2.8-11.8,4.6-5.4,1.8-9.7,3.4-9.5,3.6.6.6,16-4.2,21.1-6.5,2.1-1,3.5-2.1,3-2.4C315.9-114.6,314.7-114.2,313.7-113.5Z" fill="#b48d71"/>
      <path id="Trazado_379" data-name="Trazado 379" d="M295-99.9c-1.4.6-7.2,2.2-13,3.6-8.7,2.2-13,2.6-25,2.7-8,.1-18.3-.2-23-.6-6.2-.4-7.4-.4-4.5.3,6.8,1.6,38.2,2.3,46.3,1,7.6-1.2,20.9-5.4,22.6-7.1C299.7-101.3,298.3-101.2,295-99.9Z" fill="#b48d71"/>
      <path id="Trazado_380" data-name="Trazado 380" d="M399-232.3c0,.5,3.1.8,7,.8,3.8,0,6.4-.3,5.7-.7C410.1-233.2,399-233.2,399-232.3Z" fill="#b48d71"/>
      <path id="Trazado_381" data-name="Trazado 381" d="M425.6-229.1c8.1,5.8,11.4,11.8,11.4,20.8,0,2.3.5,4.5,1,4.8,1.4.8,1.3-10.6-.1-14.2-1.6-4.4-12.1-14.3-15.2-14.3C422.1-232,423.5-230.7,425.6-229.1Z" fill="#b48d71"/>
      <path id="Trazado_382" data-name="Trazado 382" d="M443.6-206.4a25.24,25.24,0,0,0-.6,5.9,31.105,31.105,0,0,1-2,9.5c-2.2,5.5-.9,6.1,1.4.7,1.1-2.7,2.9-17.7,2.1-17.7C444.3-208,443.9-207.3,443.6-206.4Z" fill="#b48d71"/>
      <path id="Trazado_383" data-name="Trazado 383" d="M404-161a17.584,17.584,0,0,1-5.2,2c-1.5,0-6.8,5.7-6.8,7.3,0,1.8,3.2.3,5.2-2.4,2.2-2.9,7.6-6.9,9.4-6.9.4,0-.5,1.3-2.1,3-1.6,1.6-2.4,3-1.7,3,.6,0,2.2-1.5,3.6-3.3C410.4-163.5,409.8-164.2,404-161Z" fill="#b48d71"/>
      <path id="Trazado_384" data-name="Trazado 384" d="M389-151c-.8.5-1.2,1.2-.9,1.5.4.3,1.2-.1,1.9-1C391.4-152.2,391.1-152.4,389-151Z" fill="#b48d71"/>
      <path id="Trazado_385" data-name="Trazado 385" d="M76.4-157.1a86.406,86.406,0,0,0-10,8.2c-3.4,3.8-7.7,10.9-7,11.6.2.3,1.2-1,2.1-2.8,4.2-8.1,22.9-22.9,25.6-20.2.6.6,0,1.5-1.6,2.3-1.4.7-2.5,1.7-2.5,2.1,0,.5,1.6-.3,3.6-1.6a19.61,19.61,0,0,1,4.8-2.6c.6,0,.2-.4-.9-.9C86.3-162.8,83.3-162,76.4-157.1Z" fill="#b48d71"/>
      <path id="Trazado_386" data-name="Trazado 386" d="M78.5-140.9c-5.9,4.4-13.4,12-15.1,15.2-3.1,5.9-3.5,13-.9,20.2.5,1.5.1,1.4-1.9-.8-1.4-1.5-2.6-2.3-2.6-1.6,0,2.3,7.7,8.4,15.5,12.4a71.664,71.664,0,0,1,12.7,8.2A57.033,57.033,0,0,0,93-82c1.1.6,1.8,1.5,1.6,1.9-2.1,3.4,45.1,16.4,65.9,18.1A160.762,160.762,0,0,1,180-59c6.5,1.6,13.2,2.2,28.9,2.6,14.9.4,20.9.9,22.5,1.9,1.5,1,3.1,1.2,6,.5a20.613,20.613,0,0,1,6.9-.3c1.8.4,2.8.2,2.4-.3-.7-1.2,5.9-1.1,8.7.1,1,.4,2.1.4,2.5-.2.3-.5,2.4-1,4.6-1.1,8.1-.5,9-.7,10.2-2.3.7-.9,3.4-1.9,6-2.3,12.5-1.6,16-2.3,18.3-3.6,2-1.1,2.2-1.5.8-1.8a7.357,7.357,0,0,0-3.7.7c-2.5,1.4-4.4,1.4-3.6.1.8-1.2.2-1.3-2.7-.1-1.3.5-7.2,1.4-13.3,2-6,.6-13.5,1.4-16.5,1.8-3,.3-9.1.7-13.6.8a58.074,58.074,0,0,0-11.7,1.4c-3.1,1-4,1-5.9-.3-2.8-2-4.4-2.1-2.8-.1,2.3,2.7-1.9,1.8-4.4-1-2.1-2.2-2.9-2.5-6.5-1.9a9.439,9.439,0,0,1-7.6-1.5c-4.6-2.7-5.3-2.7-2.9,0l1.9,2.2L193-62.4c-16.4-1-25-2.2-37.5-5.2-15.3-3.7-25.7-7.1-35-11.4-10.3-4.9-17.7-7.2-20.1-6.4-1.5.4-1.6.4-.5-.4s.4-1.3-3-2.2c-6.4-1.6-11-4.2-12.2-6.8-1-2.2-2.7-3-2.7-1.2,0,2.1-1.7.8-7.4-5.6-4.4-4.9-6.3-8-7.2-11.6-1.2-4.6-1.2-5.3,1.3-10.4a22.338,22.338,0,0,1,7.4-9c6.8-5,11.2-11.5,7.7-11.3C83.1-143.9,80.7-142.5,78.5-140.9ZM96-84.6c4.1,1.6,7.7,3.2,8,3.6.8,1.1,8.1,4.6,12.5,6,5.4,1.7,7.1,3.4,2.5,2.5-7.7-1.6-32-13.1-32-15.2,0-.2.3-.3.8-.1C88.2-87.7,91.9-86.2,96-84.6Zm35.2,14.2c3.2.9,5.7,1.8,5.5,2-.6.7-12.2-1.7-13.1-2.7C122.1-72.5,124.6-72.2,131.2-70.4ZM215.5-60c.3.5-.1,1-.9,1-.9,0-1.6-.5-1.6-1a.923.923,0,0,1,.9-1A1.9,1.9,0,0,1,215.5-60Zm-6.2.7a5.279,5.279,0,0,1-2.5,0c-.7-.3-.2-.5,1.2-.5S209.9-59.6,209.3-59.3Z" fill="#b48d71"/>
      <path id="Trazado_387" data-name="Trazado 387" d="M121.5-123.1c-7.4,4.3-9.7,7.2-10.3,12.9-.7,8.2,4,14.1,14.9,18.6,4.2,1.7,7.7,3.2,19.4,8.5,5,2.3,5,2.3,3.1.2-2-2.2-2-2.2,0-1.4,1,.5,4.2,2,6.9,3.5a77.97,77.97,0,0,0,10.4,4.2c6,1.8,21.1,2.2,21.1.6,0-.6-.3-1-.6-1s-5.5-1.1-11.5-2.5c-14.6-3.3-18.3-5.5-27.1-16.3-.9-1.2-2-4.8-2.4-8.1-.4-3.4-1.1-6.1-1.5-6.1a.923.923,0,0,0-.9,1c0,1.9-2.1,1-3-1.4-1.4-3.9-2.8-3.9-4.5,0-2,4.8-1.9,7.4.5,10.4,2.3,2.9,2.5,4,.7,4-1.7,0-5.8-4.6-8-9.1-1.9-3.6-1.9-3.7.8-8.8,2.2-4.4,2.3-5.1.8-4.3a24.572,24.572,0,0,0-4.2,3.6c-1.4,1.4-3,2.6-3.8,2.6-2.3,0-1.4-2.7,2.2-6.5,3.9-4.2,5.4-7.5,3.3-7.5C127.1-126,124.3-124.7,121.5-123.1Zm-2,20.5c1.3,3.1-1.3.9-3.1-2.6-1.3-2.5-1.4-3.2-.2-3.9.9-.6,1.5-.1,1.9,1.9C118.5-105.7,119.1-103.6,119.5-102.6Zm23.8-1.7c.9,4.7-1.3,4.3-2.8-.5-.4-1.6-.2-2.2.8-2.2C142.1-107,143-105.8,143.3-104.3Z" fill="#b48d71"/>
      <path id="Trazado_388" data-name="Trazado 388" d="M367.5-123.8c-10.8,2.7-12.4,7.3-5.3,15.4,6,6.9,15.4,9.3,23.3,6,8.4-3.5,7.2-14.6-2.2-20.3C379.2-125.2,374.5-125.5,367.5-123.8Zm14.3,3.5c2.6,2.3,6.8,13.9,5,13.8-.4,0-1.3.9-2.1,1.9-1,1.3-1.6,1.5-2.1.8a2.383,2.383,0,0,0-1.7-1.2c-.6,0-.7.4-.4,1,1.1,1.8-1.2,1-3-1-1.3-1.4-2.1-1.7-2.6-.9s-1.1.6-2-.9c-.7-1.1-1.9-1.8-2.7-1.4-1.2.4-1.4-.3-1-3.9.5-3.9.4-4.1-.5-1.6-1.3,3.2-3.3,3-3-.4.1-2.3,0-2.2-1,.3-.6,1.6-1.5,2.8-2,2.8s-.6-1.2-.3-2.8c1.7-6.9,1.7-6.8.5-4.5-.7,1.3-1.6,2.3-2.2,2.3-1.6,0,1.9-4.5,3.8-4.8,4.1-.9,8.4,1,12.9,5.5,3.5,3.6,4.6,4.3,4.6,2.9,0-1.1-1.8-3.6-4-5.8l-4.1-3.8h2.9A9.077,9.077,0,0,1,381.8-120.3Zm7.4,6.8a4.53,4.53,0,0,1,.8,2.2c0,2.5-1.6,1.3-3.4-2.4-1.7-3.5-1.7-3.6.1-2.2A14.586,14.586,0,0,1,389.2-113.5ZM370.5-106c.3.5.1,1-.4,1a1.1,1.1,0,0,1-1.1-1c0-.6.2-1,.4-1C369.7-107,370.2-106.6,370.5-106Z" fill="#b48d71"/>
      <path id="Trazado_389" data-name="Trazado 389" d="M12.6-114.5c.9,9.1,1.5,11.9,2.3,10.7.8-1.3-.5-10.3-2-13.7Q12-119.45,12.6-114.5Z" fill="#b48d71"/>
      <path id="Trazado_390" data-name="Trazado 390" d="M133-112.8c0,1.9.2,2,1,.8,1.3-1.9,1.3-3,0-3C133.5-115,133-114,133-112.8Z" fill="#b48d71"/>
      <path id="Trazado_391" data-name="Trazado 391" d="M431-114.1c-3.7.7-5.3,1.7-9.7,6.6-3.5,3.9-5.3,6.7-5.3,8.4,0,3.5,3.4,8.9,6.5,10.3,3.2,1.4,3.2,2.7,0,2-1.8-.3-2.5,0-2.5,1.2,0,1.5,2.1,2.2,4.5,1.6.6-.2,4.5-.7,8.7-1.1,5.1-.4,8.9-1.4,11.1-2.8a13.667,13.667,0,0,1,4.9-2.1c.8,0,2.3-1,3.4-2.2l1.9-2.2L452-92.7c-3.5,2.4-4.8,2.1-1.6-.4s5.6-6.9,5.6-10.4c0-3.3-2.5-8.2-4.8-9.4C448.7-114.2,436.2-114.9,431-114.1Zm5,3c0,.5-2,2.1-4.5,3.5-4.3,2.6-7.3,6.1-6.1,7.4.3.3,2.4-.9,4.5-2.6a24.429,24.429,0,0,1,4.5-3.2c.3,0,.6,2.5.6,5.5,0,5.1-1,6.9-2.5,4.5-1.1-1.8-2.4-1.1-3.1,1.6l-.7,2.6-1.6-2.6c-1.6-2.6-3.1-3.4-3.1-1.7a2.145,2.145,0,0,0,1,1.6c1.5.9,1.2,2.5-.5,2.5-1.2,0-1.5-1.4-1.5-6.4,0-7.5,2.1-10.9,8-12.5C435.7-112.1,436-112.2,436-111.1Zm4-.5c0,.2-.7.6-1.5,1-.8.3-1.5.1-1.5-.4,0-.6.7-1,1.5-1S440-111.8,440-111.6Zm10.8,3.1c1.6,3.5,1.5,5.4-.3,6.1a3.793,3.793,0,0,0-1.5,3.2c0,4.3-1.9,1.2-2.9-4.8l-.9-5.5-.2,5c-.1,2.7-.2,5.8-.1,6.7.5,4-3.4,1.1-4.2-3.2-.3-1.9-.5-1.7-.6,1.1,0,1.9.4,4,1,4.6.7.7.7,1.3.1,1.7s-1.8-.4-2.7-1.6l-1.7-2.3.5,2.2c.3,1.4,0,2.3-.6,2.3-1.5,0-1-12.9.5-14.8a4.769,4.769,0,0,1,2.9-1.2c1.1,0,1.9-.5,1.9-1,0-.6,1.7-1,3.8-1C449-111,449.9-110.5,450.8-108.5ZM433-92.9a.923.923,0,0,1-1,.9c-.5,0-1-.7-1-1.6,0-.8.5-1.2,1-.9A1.9,1.9,0,0,1,433-92.9Zm-.7,5.6a5.279,5.279,0,0,1-2.5,0c-.7-.3-.2-.5,1.2-.5S432.9-87.6,432.3-87.3Z" fill="#b48d71"/>
      <path id="Trazado_392" data-name="Trazado 392" d="M449-107.1a2.335,2.335,0,0,0,1,1.6c.6.3,1,.2,1-.4a2.039,2.039,0,0,0-1-1.6C449.5-107.8,449-107.7,449-107.1Z" fill="#b48d71"/>
      <path id="Trazado_393" data-name="Trazado 393" d="M353.1-107.6c-.9,1-.5,2,1.8,4.5,2.9,3.1,6.1,4.1,6.1,2,0-.8.5-.8,1.5.1,1.2,1,1.5,1,1.5,0,0-.8.7-1,1.8-.5,4.2,1.7,4.7,1.8,3.7.8-.8-.9-14.3-8.3-15-8.3C354.3-109,353.7-108.4,353.1-107.6Z" fill="#b48d71"/>
      <path id="Trazado_394" data-name="Trazado 394" d="M18.1-94.5A11.09,11.09,0,0,0,19.5-91c.8,1.4,1.4,2,1.4,1.5A10.264,10.264,0,0,0,19.5-93C18.7-94.4,18.1-95.1,18.1-94.5Z" fill="#b48d71"/>
      <path id="Trazado_395" data-name="Trazado 395" d="M351.5-92.7c-5.6,2.2-7.4,3.7-11,9.1-3.9,5.8-4.1,6.9-2.1,10.5,1.7,3.1,1,5.4-1.5,4.6-2.7-.9-2.4,1,.4,2.2,1.4.7,5.9.8,12.2.4,20.6-1.5,32.2-11.4,25.8-22.2-1.9-3.2-2.7-3.5-11.3-4.3a73.4,73.4,0,0,1-7.5-1A9.429,9.429,0,0,0,351.5-92.7Zm2,7.3c-3.4,4.4-4.4,7.4-2.6,7.4.5,0,3-2.4,5.5-5.4,3.7-4.3,5.4-5.5,8.5-6,4.5-.7,6.7-.1,7.5,2,.3.8.1,1.2-.4.9-.6-.4-.7.7-.4,2.7l.6,3.3L370-83.8c-2.7-4-3.3-4.1-2.5-.1.5,2,.3,3.4-.4,3.9-1.5.9-.4,3.8,1.7,4.2,1.4.3,1.3.6-.5,1.6-2,1.1-2.3,1-2.9-1.3-.3-1.4-1-2.5-1.5-2.5s-.9-.8-1-1.8c-.1-.9-.6,0-1.1,2.2-.8,2.9-.7,4,.2,4.6.9.5.9.9.1,1.4-1.6,1-3.1-.2-3.1-2.5,0-1.2-.4-1.7-1.1-1.3-.6.3-.9,1.7-.6,3,.5,2.8-.1,3-1.9.6-1.2-1.5-1.2-1.5-.7.5.5,2.2-.6,3.1-2.1,1.6a4.029,4.029,0,0,0-2.4-.8c-.9,0-1.9-1.4-2.5-3.5-1-3.4-1-3.4-1.7-1-.7,2.3-.8,2.2-.9-1l-.2-3.5-1.4,3-1.3,3-.1-4.3c-.1-5.3,1.9-8.5,6.7-10.5C357.2-91.8,358-91.3,353.5-85.4Z" fill="#b48d71"/>
      <path id="Trazado_396" data-name="Trazado 396" d="M90.7-80.9c.7.7,1.5,1,1.8.7s-.2-.9-1.2-1.2C89.9-82,89.8-81.9,90.7-80.9Z" fill="#b48d71"/>
      <path id="Trazado_397" data-name="Trazado 397" d="M320.9-73.3c-2.9,1.5-5.7,3.1-6.1,3.7-1.2,1.8-.9,3.1.4,1.8.7-.7,2.6-1.2,4.3-1.2,3.4,0,10.9-4.6,10-6.1C328.5-76.6,326.8-76.2,320.9-73.3Zm5.1-.2a6.118,6.118,0,0,1-2.2,1.5c-2.2,1.1-2.2,1-.4-.4C325.5-74.1,326-74.3,326-73.5Z" fill="#b48d71"/>
      <path id="Trazado_398" data-name="Trazado 398" d="M53-61c0,.5.7,1,1.6,1,.8,0,1.2-.5.9-1a1.9,1.9,0,0,0-1.6-1A.923.923,0,0,0,53-61Z" fill="#b48d71"/>
      <path id="Trazado_399" data-name="Trazado 399" d="M500-77c-6.2,1.3-9.4,4-9.8,8-.6,6,.6,9.7,3.6,10.8,2.7,1.1,19.4,2.8,22.2,2.3a38.783,38.783,0,0,0,6.8-4.2c5.3-4,6.4-6.7,4.6-11.4C525.6-76.1,510.5-79.2,500-77Zm20.1,3.5c4,1.9,6.1,4.7,5.3,7-.9,2.4-2.4,1.8-2.4-1,0-1.4-.4-2.5-1-2.5-.5,0-1,.9-1,1.9,0,3.6-1.1,5.3-2.6,4-1.2-.9-1.7-.8-2.8.6-1.2,1.7-1.4,1.7-2.9-.6-1.6-2.2-1.7-2.2-1.7-.4-.1,1.6-.7,1.3-3.5-1.9-3.4-3.9-4.9-3.1-2,1,2.2,3.2.4,3.8-2.2.8-1.3-1.5-2.3-3.1-2.3-3.6a.915.915,0,0,0-1-.8c-.6,0-.6.9,0,2.6a13.819,13.819,0,0,1,1,3c0,.9-1.9.3-3.2-.9a12.087,12.087,0,0,0-3-2c-2.6-.9-2.2-4.6.5-5.6,2.6-1,9.6-.4,11.2.9,1.2,1,8.2,1.7,9,.9.3-.4-1.7-1.6-4.5-2.8-2.7-1.2-5-2.4-5-2.8C506-76.8,516.5-75.2,520.1-73.5Z" fill="#b48d71"/>
      <path id="Trazado_400" data-name="Trazado 400" d="M539-40.9a78.447,78.447,0,0,1-8.3,2.6c-1.6.3-4.4,2.1-6.3,4-3.1,3.1-3.4,3.9-3.4,9.3,0,4.9-.3,6-1.6,6-3,0,3,3.8,8,5.2a14.176,14.176,0,0,0,9.1,0,33.7,33.7,0,0,1,6-1.2c.8,0,3.9-1.1,6.9-2.5a40.1,40.1,0,0,1,6.3-2.5c1.4,0,9-7.3,10.2-9.7,1.6-3.2,1.4-4.9-1.3-7.9-1.8-2.2-3.6-3-8.2-3.5-3.3-.5-7.2-1-8.9-1.4C545.7-42.8,542.4-42.2,539-40.9Zm9,2.4c0,.8-1.6,1.9-3.7,2.4-8.1,2.3-12.1,6.3-13.8,13.9-.8,4.1-2.1,3.3-3-1.8a8.943,8.943,0,0,1,1.4-7.3c2.3-3.7,4.4-5.1,11.1-7.2C545.9-40.3,548-40.3,548-38.5Zm12.5,1.7c3.1,1.4,3.2,3,.3,6.3-2,2.4-2.3,2.4-2.9.8-.5-1.4-.9-1.1-1.6,1.6-1.2,4.7-3.8,5.6-2.8,1l.7-3.4-2.3,3.4c-3.1,4.5-5.4,5.4-4.5,1.7.9-3.5.2-3.3-2.4.9-2.4,3.9-4,4.5-4,1.5,0-1.1-.4-2-1-2-.5,0-1,1.1-1,2.5,0,3-1.9,3.2-4.3.5-1.6-1.9-1.5-2.2,2.4-6,2.3-2.2,4.6-4,5.3-4a43.165,43.165,0,0,0,6.6-3C555.2-38.2,556.8-38.5,560.5-36.8Z" fill="#b48d71"/>
      <path id="Trazado_401" data-name="Trazado 401" d="M460.5-35a11.433,11.433,0,0,1-5.1,2,6.969,6.969,0,0,0-4.1,2.2c-5.2,5.8-5.7,11.1-1.4,15.7,2.5,2.7,2.7,3.1,1,3.1-1,0-1.9-.4-1.9-.9s-.9-1.1-2-1.4c-1.6-.4-2,0-2,1.7,0,2.7,1.8,4.6,4.2,4.6,1,0,1.8.4,1.8.9s1.7,1.1,3.8,1.4c2,.3,5.8.9,8.4,1.3,3.6.5,5.4.3,7.2-1A12.059,12.059,0,0,1,475.9-7c4.8,0,7.9-2,10.1-6.5,3.4-6.9,2.2-11.5-4.5-17.4C474.5-37,466.1-38.7,460.5-35Zm15.3,4c5.5,3.9,7.7,7.3,6.3,9.7-.9,1.6-1.1,1.4-2.1-1.5-.7-1.7-1.6-3.2-2.2-3.2-.5,0,.2,2.1,1.6,4.6,3,5.3,3.2,7.6,1.1,9.4-1.2,1-1.5.9-1.5-.5,0-1-.3-1.5-.7-1.2-.3.4-1.7,0-3-.8-1.8-1.2-2.3-1.3-2.3-.2,0,2-4.4,1.4-4.8-.6-.2-.9-.8-1.7-1.4-1.7s-.7,1.2-.3,3.1c1.2,5.2-1.2,2.5-3.6-4.1-2.5-6.9-3.4-7.7-2.5-2.3.6,3.3.5,3.6-.7,2.1-.8-1-1.7-1.5-2-1.2-.3.4-1-.9-1.6-2.7-.8-3.1-.9-3.2-1.2-.9-.1,1.4-.2,3.1-.2,3.7.1,1.8-1.4,1.6-2.1-.3-1.7-4.5.9-10.4,4.5-10.4,3.2,0,9.5,3.7,13.7,8,3.4,3.6,4.1,3.9,5.2,2.5,1.8-2.2-.8-5.6-7.4-9.7-3.1-1.8-5.6-3.6-5.6-4.1,0-.4,2-.7,4.3-.7C470.6-34,472.7-33.2,475.8-31ZM457.9-9.9c2,.7,4.2,1.4,5,1.6s1.2.6.9.9c-.8.7-9.7-1.6-10.4-2.7C452.7-11.3,453.6-11.2,457.9-9.9Z" fill="#b48d71"/>
      <path id="Trazado_402" data-name="Trazado 402" d="M387.8-30.3a2.026,2.026,0,0,0,1.9-.1c.4-.3-.2-.6-1.3-.5C387.3-30.9,387-30.6,387.8-30.3Z" fill="#b48d71"/>
      <path id="Trazado_403" data-name="Trazado 403" d="M383.8-29.3a2.026,2.026,0,0,0,1.9-.1c.4-.3-.2-.6-1.3-.5C383.3-29.9,383-29.6,383.8-29.3Z" fill="#b48d71"/>
    </g>
  </g>
</svg>
