<svg xmlns="http://www.w3.org/2000/svg" width="369.23" height="437.313" viewBox="0 0 369.23 437.313">
  <path id="Trazado_297" data-name="Trazado 297" d="M243.5-473.9c-50.2,6.3-88.5,47.5-88.5,95.4v10.3l-18.7.4c-17.9.3-19.1.4-24.5,3A38.184,38.184,0,0,0,90-337C88.3-326.8,70.8-76.1,71.4-70.1c1.2,12.2,11.4,25.5,23.4,30.3l5.7,2.3h311l5.7-2.3c12-4.8,22.2-18.1,23.4-30.3.6-6-16.9-256.6-18.6-266.8a41.252,41.252,0,0,0-3.2-10.4c-3.3-6.7-11.2-14.1-18.1-17.3-6-2.8-6.8-2.9-24.9-3.2l-18.8-.4v-8.1c-.1-24.2-11-49.7-29-67.8-17.2-17.3-36.8-26.9-61-29.9C257.4-475.1,253.5-475.1,243.5-473.9Zm30,33.5c29.1,7.4,51.5,35.7,51.5,65.1v7.3H187v-7.3a76,76,0,0,1,1.9-14.9A69.388,69.388,0,0,1,273.5-440.4Zm-118,146.6-.7,42.3,2.3,3.4c3.4,4.9,7,7.2,12.1,7.8a15.624,15.624,0,0,0,14.9-7.4l2.4-3.8.3-42.3.3-42.2H324.9l.3,42.2.3,42.3,2.4,3.8a15.624,15.624,0,0,0,14.9,7.4c5-.5,8.7-2.9,12-7.7,2.2-3.3,2.2-3.4,2.2-45.6V-336h15.5c14.9,0,15.5.1,16.9,2.2,1.1,1.7,3.7,34,10.6,131.7l9.2,129.5L407-70.8c-2.1,1.7-9,1.8-151,1.8s-148.9-.1-151-1.8l-2.2-1.8L112-202.1c6.9-97.7,9.5-130,10.6-131.7,1.4-2.1,1.9-2.2,17.5-2.2h16.1Z" transform="translate(-71.385 474.813)" fill="#351817"/>
</svg>
