<?xml version="1.0" standalone="no"?>
<!DOCTYPE svg PUBLIC "-//W3C//DTD SVG 20010904//EN"
 "http://www.w3.org/TR/2001/REC-SVG-20010904/DTD/svg10.dtd">
<svg version="1.0" xmlns="http://www.w3.org/2000/svg"
 width="650.000000pt" height="817.000000pt" viewBox="0 0 650.000000 817.000000"
 preserveAspectRatio="xMidYMid meet">

<g transform="translate(0.000000,817.000000) scale(0.100000,-0.100000)"
fill="#000000" stroke="none">
<path d="M2125 8153 c-16 -11 -38 -17 -47 -15 -10 2 -28 -7 -41 -20 -20 -20
-25 -38 -30 -105 -8 -106 9 -159 66 -207 23 -20 56 -49 72 -66 27 -27 36 -30
94 -30 60 0 66 2 96 35 44 46 59 94 52 163 -7 67 -62 184 -106 226 -39 38
-111 46 -156 19z m126 -20 c13 -15 12 -15 -8 -4 -24 12 -29 21 -14 21 5 0 15
-7 22 -17z m15 -44 c32 -24 61 -58 74 -84 25 -51 39 -145 21 -145 -6 0 -11
-13 -11 -29 0 -42 -44 -91 -81 -91 -25 0 -29 4 -29 28 0 18 -3 23 -9 14 -7
-11 -11 -11 -22 1 -8 7 -21 16 -28 18 -8 3 -20 21 -27 40 -10 28 -13 30 -13
11 -1 -35 -21 -16 -22 21 -1 31 -1 31 -9 7 -7 -21 -8 -22 -10 -5 -1 11 -2 52
-2 90 0 57 -1 63 -7 35 l-8 -35 -3 30 c-2 29 -2 29 -9 5 -10 -37 -20 -11 -12
35 8 51 32 57 73 18 36 -34 88 -140 88 -180 0 -16 6 -38 14 -48 13 -19 15 -19
33 -3 23 21 21 110 -3 101 -10 -4 -14 3 -14 27 0 17 -4 29 -8 26 -9 -5 -36 50
-48 98 -6 24 -8 26 -16 12 -5 -9 -13 -14 -19 -11 -5 4 -9 1 -9 -5 0 -6 -5 -8
-10 -5 -6 4 -7 11 -4 17 5 7 2 8 -6 3 -9 -6 -11 -4 -5 6 31 54 70 53 141 -2z
m-96 -50 c0 -6 -4 -7 -10 -4 -5 3 -10 11 -10 16 0 6 5 7 10 4 6 -3 10 -11 10
-16z"/>
<path d="M1385 7119 c-85 -27 -115 -62 -115 -136 0 -80 27 -130 92 -173 64
-41 181 -88 243 -97 54 -7 127 17 150 50 38 54 -5 186 -86 264 -46 44 -142 97
-194 106 -18 4 -55 -2 -90 -14z m161 -35 c83 -50 138 -107 169 -176 20 -45 25
-68 20 -95 -6 -34 -7 -34 -25 -18 -11 10 -22 27 -26 38 -9 29 -25 0 -18 -33
l6 -25 -21 25 c-11 14 -21 28 -21 33 0 10 -20 9 -20 -2 0 -4 11 -25 25 -45 27
-39 15 -50 -16 -13 l-20 22 5 -25 c3 -14 3 -19 0 -13 -3 8 -15 11 -27 8 -16
-4 -25 0 -32 17 -6 13 -19 23 -30 23 -15 0 -24 12 -37 50 -10 30 -17 41 -18
27 0 -40 27 -90 51 -94 12 -2 24 -9 26 -15 4 -10 -3 -10 -29 -1 -42 14 -68 36
-68 59 0 10 -4 20 -9 23 -5 4 -7 -3 -4 -14 9 -35 -14 -22 -30 18 l-15 37 -2
-30 c-1 -26 -3 -27 -10 -10 -5 11 -9 42 -9 68 -1 28 -5 46 -10 42 -6 -3 -8
-29 -5 -58 l5 -52 -21 25 c-22 25 -23 57 -5 130 l6 25 -15 -25 c-15 -24 -15
-24 -16 -3 0 12 7 29 16 37 17 17 69 22 59 6 -3 -6 1 -7 9 -4 20 8 21 -10 1
-26 -8 -7 -15 -20 -15 -29 0 -11 8 -7 26 14 22 26 25 27 21 8 -3 -13 1 -24 10
-27 11 -4 13 -1 8 14 -10 32 10 23 68 -30 60 -55 77 -61 77 -29 0 24 -76 99
-100 99 -8 1 -24 15 -36 33 -11 18 -28 31 -37 31 -9 -1 -14 2 -11 7 13 22 91
9 150 -27z m164 -318 c0 -16 -28 15 -34 37 -5 21 -4 21 14 -3 11 -14 20 -29
20 -34z"/>
<path d="M1530 7060 c14 -12 40 -35 59 -51 18 -16 36 -27 39 -25 9 9 -19 35
-72 66 -30 18 -41 22 -26 10z"/>
<path d="M1550 6819 c0 -8 7 -24 15 -35 18 -24 19 -7 0 26 -9 16 -14 19 -15 9z"/>
<path d="M2108 6685 c-4 -44 -10 -89 -14 -99 -5 -14 -4 -17 4 -12 7 4 12 2 12
-3 0 -6 -6 -11 -13 -11 -13 0 -47 -108 -47 -149 0 -40 16 -21 27 32 14 65 34
116 40 100 2 -6 -7 -48 -21 -93 -28 -88 -30 -99 -17 -84 9 9 54 146 65 196 3
15 2 46 -4 70 -6 24 -14 63 -18 88 -8 44 -8 43 -14 -35z"/>
<path d="M2291 6733 c1 -32 44 -136 58 -141 17 -6 8 42 -21 111 -21 47 -39 62
-37 30z"/>
<path d="M2412 6541 c0 -28 4 -51 9 -51 12 0 11 71 0 89 -6 9 -9 -5 -9 -38z"/>
<path d="M2710 6409 c-91 -14 -199 -113 -226 -207 -29 -100 1 -181 74 -202 58
-16 142 -12 187 9 128 59 227 239 181 328 -25 50 -63 74 -111 72 -23 -2 -45 0
-51 2 -5 3 -29 2 -54 -2z m-32 -93 c-59 -61 -82 -107 -76 -148 5 -34 22 -25
32 17 15 66 166 199 193 171 11 -11 22 -129 16 -168 -3 -23 -11 -38 -19 -38
-8 0 -14 -10 -14 -22 0 -13 -5 -30 -10 -38 -8 -12 -10 -10 -10 10 -1 22 -3 21
-16 -12 -9 -20 -22 -39 -31 -42 -12 -5 -14 2 -12 37 3 51 14 76 45 102 13 11
26 36 30 55 l5 35 -14 -30 c-8 -17 -22 -36 -31 -44 -25 -21 -46 -66 -46 -98 0
-73 -29 -101 -31 -30 l-2 42 -10 -47 c-10 -45 -12 -48 -43 -48 -23 0 -38 7
-48 22 -14 19 -16 20 -16 4 0 -32 -25 -11 -35 30 -5 21 -13 44 -17 50 -8 12
41 161 65 197 20 31 65 52 114 53 l39 1 -58 -61z m220 -68 c-13 -59 -24 -67
-21 -15 2 31 1 37 -6 22 -7 -17 -10 -15 -16 19 -9 47 11 67 36 36 14 -16 15
-28 7 -62z"/>
<path d="M2595 6100 c-8 -13 4 -53 19 -62 20 -14 36 -8 36 13 0 44 -37 77 -55
49z m35 -33 c-1 -21 -1 -21 -15 -3 -8 10 -12 23 -9 28 9 14 24 -2 24 -25z"/>
<path d="M2132 6365 c-35 -50 -40 -64 -16 -44 14 12 59 89 51 89 -2 0 -18 -20
-35 -45z"/>
<path d="M2048 6263 c-54 -82 -99 -125 -165 -160 -102 -54 -273 -192 -273
-220 0 -9 10 -2 25 16 14 16 54 48 89 70 35 22 66 46 69 55 3 8 20 22 36 31
35 17 42 7 10 -13 -12 -7 -18 -16 -15 -19 16 -17 207 172 243 240 22 43 9 43
-19 0z"/>
<path d="M3556 6165 c-3 -9 -6 -36 -6 -60 0 -48 -19 -74 -21 -28 -1 29 -4 22
-13 -38 -4 -19 -15 -45 -27 -57 -14 -16 -16 -22 -6 -22 19 0 34 19 42 53 6 22
10 25 21 16 25 -21 34 0 29 73 -4 74 -9 89 -19 63z"/>
<path d="M1715 6063 c-42 -23 -206 -176 -228 -212 -24 -41 -4 -40 22 2 11 17
70 73 130 122 120 97 143 124 76 88z"/>
<path d="M3391 5985 c0 -11 -4 -31 -7 -45 -5 -19 -4 -22 5 -14 7 6 11 26 8 45
-2 19 -5 25 -6 14z"/>
<path d="M3158 5980 c-8 -19 -28 -116 -28 -135 0 -33 29 -14 36 23 8 44 21 72
34 72 5 0 3 -19 -5 -41 -20 -55 -18 -61 5 -19 11 19 19 48 20 64 0 28 0 28
-24 12 -24 -15 -25 -15 -28 12 -3 18 -6 22 -10 12z"/>
<path d="M3111 5963 c-40 -77 -66 -243 -38 -243 16 0 40 95 31 125 -5 18 6 59
31 118 4 10 3 17 -4 17 -5 0 -14 -8 -20 -17z"/>
<path d="M3286 5964 c-9 -23 -7 -54 3 -54 5 0 11 16 13 35 4 36 -5 47 -16 19z"/>
<path d="M3031 5906 c-12 -18 -21 -47 -21 -63 0 -17 -9 -42 -21 -57 -17 -21
-18 -26 -5 -26 20 0 32 24 40 79 4 24 13 56 22 72 20 40 10 37 -15 -5z"/>
<path d="M2941 5878 c-37 -158 -34 -386 5 -429 24 -27 88 -21 92 9 2 12 -1 22
-6 22 -6 0 -18 20 -28 45 -20 55 -32 57 -36 8 l-4 -38 -16 35 c-14 30 -15 56
-8 180 4 80 11 162 15 183 11 56 0 45 -14 -15z"/>
<path d="M2000 5708 c-43 -89 -47 -103 -26 -95 11 4 15 -13 21 -84 10 -122 -2
-133 -37 -37 l-19 53 6 -45 c5 -44 30 -90 52 -97 7 -3 13 11 15 34 l3 38 18
-40 c10 -22 21 -55 24 -73 6 -37 21 -51 33 -31 6 9 10 6 15 -14 4 -14 23 -38
42 -53 35 -27 57 -27 30 0 -8 9 -18 33 -22 54 -9 55 -25 75 -18 22 10 -70 -12
-40 -37 52 -24 92 -36 114 -27 53 6 -37 5 -38 -8 -21 -9 12 -15 42 -15 75 0
53 -13 62 -22 16 -2 -11 -7 14 -11 55 -6 58 -3 91 11 148 10 39 17 72 16 72
-2 0 -22 -37 -44 -82z"/>
<path d="M2041 5574 c0 -11 3 -14 6 -6 3 7 2 16 -1 19 -3 4 -6 -2 -5 -13z"/>
<path d="M1351 5564 c0 -11 3 -14 6 -6 3 7 2 16 -1 19 -3 4 -6 -2 -5 -13z"/>
<path d="M1336 5494 c-18 -135 6 -289 60 -381 21 -37 50 -63 68 -63 14 0 4 24
-18 41 -59 47 -112 236 -102 367 8 89 3 111 -8 36z"/>
<path d="M2184 5355 c16 -121 33 -192 49 -208 25 -25 29 -18 16 28 -6 21 -8
56 -5 76 3 21 2 40 -3 44 -5 3 -11 -9 -13 -27 -4 -33 -4 -33 -16 12 -7 25 -17
59 -22 75 l-10 30 4 -30z"/>
<path d="M1446 5253 c3 -46 14 -113 25 -150 10 -38 19 -80 19 -96 0 -39 26
-97 43 -97 20 0 27 22 27 78 0 56 11 47 35 -28 19 -58 50 -110 66 -110 5 0 9
23 9 50 0 55 -17 69 -22 18 -3 -30 -7 -24 -36 52 -19 47 -40 108 -47 135 l-14
50 -1 -90 c-1 -49 -5 -99 -9 -110 -8 -19 -8 -19 -19 2 -7 12 -12 38 -12 58 0
19 -7 52 -15 72 -8 19 -20 65 -26 102 -24 136 -28 148 -23 64z"/>
<path d="M2457 5240 c-12 -43 -8 -128 7 -142 7 -8 21 -27 30 -43 10 -17 15
-22 12 -12 -3 10 -11 48 -17 85 -6 37 -14 83 -18 102 -7 33 -7 34 -14 10z m10
-92 c-2 -13 -4 -3 -4 22 0 25 2 35 4 23 2 -13 2 -33 0 -45z"/>
<path d="M3097 5184 c-3 -27 -9 -59 -12 -71 -5 -15 -3 -23 4 -23 6 0 11 8 11
18 0 10 3 22 7 25 10 11 14 68 4 84 -6 11 -10 1 -14 -33z"/>
<path d="M1661 5048 c0 -21 8 -57 18 -80 11 -24 27 -64 36 -90 18 -53 54 -109
73 -116 22 -7 13 29 -16 57 -15 15 -36 54 -46 87 -10 32 -25 69 -34 82 -8 13
-19 40 -23 60 l-7 37 -1 -37z"/>
<path d="M2641 4999 c0 -9 -4 -31 -8 -49 -4 -24 -3 -31 5 -26 7 4 12 0 12 -10
0 -10 2 -15 4 -13 3 2 1 29 -4 59 -4 30 -8 48 -9 39z"/>
<path d="M2719 4944 c-1 -33 -2 -35 -8 -14 -7 24 -7 24 -14 -9 -4 -18 -7 -44
-7 -58 0 -13 -7 -26 -15 -29 -11 -5 -15 -22 -15 -64 0 -38 -4 -60 -12 -62 -9
-3 -13 -32 -14 -93 -1 -83 -3 -90 -28 -110 -31 -25 -33 -35 -6 -35 11 0 27 11
36 25 22 33 54 184 56 264 1 49 2 55 5 24 2 -24 8 -43 13 -43 9 0 25 228 16
237 -3 4 -6 -11 -7 -33z m-72 -296 c-3 -8 -6 -5 -6 6 -1 11 2 17 5 13 3 -3 4
-12 1 -19z"/>
<path d="M1771 4914 c-1 -12 4 -36 11 -55 16 -49 89 -169 99 -163 8 5 1 34
-11 44 -17 14 -74 116 -85 153 -8 24 -14 33 -14 21z"/>
<path d="M3040 4856 c-12 -20 -25 -36 -29 -36 -4 0 -26 9 -49 20 -55 27 -78
25 -111 -8 -15 -15 -40 -33 -54 -39 -32 -15 -41 -56 -32 -145 3 -34 6 -98 5
-140 0 -43 4 -78 9 -78 10 0 21 34 21 70 0 23 2 22 43 -17 51 -50 69 -59 128
-68 59 -9 83 4 111 58 17 32 22 59 23 112 0 76 -13 116 -57 182 -17 25 -24 44
-18 48 13 8 43 66 37 71 -3 3 -15 -11 -27 -30z m-81 -46 c13 0 13 -2 2 -9 -11
-7 -9 -10 8 -16 20 -6 30 -25 13 -25 -5 0 15 -25 45 -55 49 -52 64 -76 46 -74
-5 0 -24 20 -45 44 -26 32 -38 40 -42 30 -3 -8 3 -19 14 -25 22 -12 80 -92 80
-111 0 -7 -16 3 -37 22 -20 18 -34 30 -32 24 20 -43 33 -64 39 -60 4 3 12 -1
18 -8 6 -8 4 -26 -9 -54 -16 -38 -22 -43 -51 -43 -18 0 -46 9 -63 20 -36 24
-52 26 -35 5 7 -8 8 -15 3 -15 -11 0 -44 35 -68 73 -16 25 -16 29 -1 52 22 34
33 32 53 -10 10 -21 24 -35 35 -35 25 0 23 7 -12 47 -35 40 -36 45 -10 101 24
52 11 56 -16 5 l-19 -38 -3 60 c-2 32 0 70 3 83 5 21 10 23 37 18 17 -3 38 -6
47 -6z m-129 -59 c0 -10 7 -37 15 -61 11 -30 12 -47 4 -61 -9 -17 -12 -18 -25
-5 -16 17 -30 105 -21 130 9 22 27 20 27 -3z"/>
<path d="M2994 4501 c11 -11 23 -21 28 -21 14 0 -1 19 -25 31 -22 12 -22 12
-3 -10z"/>
<path d="M2970 4475 c7 -8 17 -15 22 -15 6 0 5 7 -2 15 -7 8 -17 15 -22 15 -6
0 -5 -7 2 -15z"/>
<path d="M1865 4840 c11 -45 70 -154 85 -159 11 -3 9 3 -5 25 -11 16 -35 58
-53 94 -18 36 -30 54 -27 40z"/>
<path d="M1982 4675 c18 -36 36 -65 40 -65 9 0 -9 43 -39 93 -36 58 -36 44 -1
-28z"/>
<path d="M2085 4615 c40 -65 65 -95 65 -79 0 9 -71 109 -92 129 -6 6 6 -17 27
-50z"/>
<path d="M2554 4627 c-5 -22 -13 -39 -19 -40 -12 -1 -34 -80 -35 -126 0 -30
-2 -32 -17 -20 -15 12 -16 12 -10 -4 4 -10 7 -27 7 -38 0 -24 26 -25 39 -1 12
23 53 240 48 255 -2 7 -8 -5 -13 -26z"/>
<path d="M2151 4579 c6 -12 17 -40 24 -63 7 -22 13 -32 14 -21 1 21 -34 105
-44 105 -3 0 -1 -10 6 -21z"/>
<path d="M2465 4523 c-9 -26 -25 -66 -36 -88 -21 -43 -25 -75 -10 -75 6 0 17
26 27 58 9 31 22 77 30 102 17 60 10 63 -11 3z"/>
<path d="M1819 4499 c-8 -4 -26 -10 -40 -13 -20 -4 -32 -18 -48 -53 -12 -27
-19 -38 -17 -25 2 13 0 19 -6 16 -10 -7 -2 -114 13 -176 11 -41 49 -77 120
-113 48 -25 97 -26 126 -3 7 5 16 7 22 4 14 -9 44 138 39 193 -6 65 -44 139
-82 162 -31 19 -97 23 -127 8z m102 -26 c41 -24 71 -96 84 -200 6 -48 5 -54
-24 -83 -29 -31 -30 -31 -49 -13 -10 10 -24 27 -30 38 -10 17 -11 15 -6 -15 5
-33 5 -34 -8 -12 -8 12 -17 19 -21 16 -4 -4 -7 -2 -7 5 0 7 -5 9 -11 5 -15 -9
-29 15 -29 51 0 19 -3 26 -10 19 -7 -7 -5 -26 4 -59 17 -55 4 -49 -19 10 l-15
40 5 -35 c4 -23 2 -31 -5 -24 -5 5 -11 59 -13 119 -2 61 -1 102 1 92 4 -18 4
-18 17 0 13 17 14 17 20 -2 22 -66 50 -129 67 -150 23 -29 44 -34 33 -7 -4 9
-9 38 -9 64 -1 25 -10 64 -20 87 -19 40 -16 71 5 71 6 0 24 -8 40 -17z"/>
<path d="M1890 4447 c0 -7 20 -37 45 -66 43 -50 58 -54 34 -9 -17 31 -79 91
-79 75z"/>
<path d="M1971 4293 c0 -4 4 -17 9 -28 8 -19 9 -19 9 2 1 12 -3 25 -9 28 -5 3
-10 3 -9 -2z"/>
<path d="M2376 4399 c-17 -63 -15 -93 4 -45 12 32 25 106 18 106 -3 0 -12 -28
-22 -61z"/>
<path d="M2178 4340 c-3 -63 -7 -134 -10 -157 -6 -47 6 -58 17 -16 3 15 12 32
19 37 11 9 12 29 4 96 -17 156 -25 167 -30 40z"/>
<path d="M2500 4185 c0 -57 4 -95 10 -95 6 0 10 38 10 95 0 57 -4 95 -10 95
-6 0 -10 -38 -10 -95z"/>
<path d="M2431 4118 c-1 -59 3 -98 9 -98 12 0 12 133 0 170 -5 16 -8 -8 -9
-72z"/>
<path d="M2139 4141 c-14 -57 -19 -57 -36 2 l-13 42 5 -50 c2 -27 8 -68 11
-89 5 -28 4 -37 -4 -32 -9 5 -12 -7 -12 -41 l-1 -48 -14 39 c-7 21 -19 44 -26
50 -9 8 -10 6 -4 -9 4 -11 13 -42 19 -70 16 -71 36 -70 36 2 0 44 3 54 12 45
23 -23 28 -12 28 56 0 37 5 84 11 105 6 22 8 41 6 44 -3 2 -11 -19 -18 -46z"/>
<path d="M2391 4055 c-1 -46 2 -75 9 -75 6 0 10 30 10 75 0 41 -4 75 -9 75 -4
0 -9 -34 -10 -75z"/>
<path d="M2356 4031 c1 -84 18 -82 22 2 2 47 -1 64 -10 64 -9 0 -13 -19 -12
-66z"/>
<path d="M2011 4041 c-30 -142 -23 -271 16 -271 13 0 13 2 0 15 -23 23 -21
265 2 251 4 -3 5 8 3 25 -2 16 -6 29 -7 29 -2 0 -8 -22 -14 -49z"/>
<path d="M2302 3928 c-2 -37 2 -48 13 -48 9 0 15 9 15 23 0 17 -2 19 -9 8 -7
-11 -11 -4 -14 25 -4 38 -4 38 -5 -8z"/>
<path d="M2020 3862 c0 -7 9 -30 20 -52 11 -22 20 -46 20 -53 0 -17 28 -43 36
-34 3 3 -13 38 -35 79 -22 40 -41 67 -41 60z"/>
<path d="M2270 3833 c0 -43 5 -41 13 5 4 18 2 32 -3 32 -6 0 -10 -16 -10 -37z"/>
<path d="M1951 3820 c-1 -30 38 -96 83 -142 25 -26 46 -55 46 -65 0 -10 7 -29
17 -42 15 -22 17 -23 29 -6 12 16 15 15 50 -14 55 -44 54 -30 -1 20 -26 24
-53 56 -62 72 -8 16 -17 27 -19 24 -3 -3 2 -19 10 -36 18 -35 19 -41 7 -41 -5
0 -17 24 -26 53 -17 52 -35 82 -35 59 0 -19 -76 70 -88 103 -6 17 -11 23 -11
15z"/>
<path d="M2266 3278 c-16 -9 -226 -27 -358 -30 -16 -1 -28 -4 -28 -8 0 -5 -10
-6 -22 -3 -17 3 -19 2 -10 -5 11 -7 8 -11 -10 -15 -34 -10 -45 -8 -28 4 11 8
6 9 -20 5 -19 -3 -66 -8 -105 -12 -83 -7 -358 -95 -395 -125 l-25 -21 30 5
c17 3 39 8 50 12 11 3 -5 -7 -35 -24 -34 -18 -63 -28 -77 -24 -27 6 -166 -91
-257 -179 l-59 -57 6 -88 c3 -49 10 -100 16 -113 10 -24 16 -59 40 -250 6 -47
18 -98 25 -115 8 -16 21 -73 30 -126 8 -52 18 -102 21 -111 5 -12 -5 -18 -47
-28 -29 -7 -58 -16 -63 -21 -6 -4 -29 -12 -50 -18 -86 -21 -267 -92 -405 -159
-204 -100 -353 -221 -448 -364 -38 -57 -51 -231 -28 -357 9 -52 23 -106 31
-122 20 -38 20 -55 0 -39 -26 22 -18 -13 13 -56 46 -63 71 -78 39 -23 -37 63
-34 69 11 16 116 -142 176 -209 193 -218 10 -5 19 -16 19 -24 0 -26 277 -195
319 -195 10 0 30 -9 44 -20 14 -11 33 -20 44 -20 10 0 45 -12 78 -26 123 -52
188 -74 215 -74 15 0 47 -7 71 -15 41 -14 43 -14 24 1 l-20 17 20 -8 c29 -10
134 -42 178 -53 25 -7 35 -7 31 0 -4 6 4 8 22 4 73 -14 254 -37 371 -46 70 -6
171 -15 223 -20 52 -6 154 -9 225 -7 91 3 109 2 60 -3 -40 -4 58 -6 230 -5
396 3 686 29 990 90 201 40 396 91 305 81 l-35 -5 30 14 c17 8 50 17 75 21 25
3 83 17 129 30 46 13 86 22 88 20 5 -5 -102 -46 -119 -46 -6 0 -8 -3 -5 -6 9
-9 124 34 171 64 22 13 75 37 118 53 78 28 138 62 138 79 0 5 21 22 47 37 146
84 244 155 284 205 55 69 124 176 134 208 11 37 21 159 13 153 -5 -2 -8 9 -8
26 0 95 -61 243 -130 316 -21 22 -49 57 -63 77 -24 37 -111 118 -126 118 -5 0
-16 11 -25 25 -16 24 -16 28 2 58 26 44 77 241 67 264 -4 10 -9 44 -12 77 -6
79 -34 149 -88 221 -112 149 -366 197 -561 106 -73 -34 -73 -33 -44 59 11 34
18 66 15 70 -3 5 -1 11 5 15 6 4 10 57 10 130 0 122 0 123 -37 195 -27 53 -51
83 -92 116 -31 24 -63 44 -72 44 -10 0 -66 23 -125 51 -142 67 -217 97 -284
114 -30 7 -91 23 -135 34 -44 12 -116 23 -160 26 -44 2 -132 8 -195 13 -195
17 -473 23 -494 10z m212 -54 c142 -5 172 -9 168 -20 -6 -17 20 -19 30 -3 14
23 385 -15 494 -51 139 -46 283 -100 336 -127 78 -39 183 -115 184 -132 0 -7
14 -29 31 -49 51 -58 72 -116 65 -179 -4 -32 -2 -53 4 -53 16 0 0 -32 -41 -82
-36 -43 -54 -77 -27 -50 27 27 30 10 3 -18 -16 -17 -34 -29 -41 -28 -6 2 -27
-9 -45 -25 -50 -41 -129 -91 -169 -107 -19 -8 -51 -25 -72 -38 -20 -13 -75
-34 -122 -47 -119 -33 -384 -78 -426 -72 -19 2 -57 1 -85 -4 -324 -53 -644
-48 -880 12 -44 12 -87 21 -95 21 -39 1 -456 115 -505 139 -118 57 -185 103
-185 126 0 7 -4 13 -10 13 -5 0 -10 -7 -10 -16 0 -14 -3 -14 -15 -4 -8 7 -15
18 -15 26 0 26 -24 65 -37 60 -9 -4 -13 3 -13 19 0 14 -4 25 -9 25 -4 0 -6 11
-3 25 2 14 1 45 -2 69 -5 34 -11 44 -22 39 -7 -3 -14 0 -14 5 0 6 8 13 18 16
14 5 17 14 14 35 -2 17 6 47 21 77 27 52 138 166 144 147 3 -7 35 3 89 28 128
59 318 119 413 130 46 5 91 13 100 18 9 5 86 11 171 15 85 4 189 11 230 16 41
5 104 9 140 10 36 0 72 5 80 11 18 13 -325 3 -438 -12 -41 -6 -76 -8 -79 -5
-7 6 18 11 147 28 135 17 263 20 478 12z m-813 -34 c-3 -5 -21 -9 -38 -9 l-32
2 35 7 c19 4 36 8 38 9 2 0 0 -3 -3 -9z m-425 -164 c0 -2 -7 -7 -16 -10 -8 -3
-12 -2 -9 4 6 10 25 14 25 6z m2526 -514 c-17 -16 -18 -16 -5 5 7 12 15 20 18
17 3 -2 -3 -12 -13 -22z m-26 -128 c-30 -42 -134 -134 -154 -134 -7 0 173 178
182 180 2 0 -11 -20 -28 -46z m40 13 c0 -16 -51 -103 -87 -150 -25 -32 -46
-65 -47 -75 -2 -9 -31 -37 -65 -61 -34 -24 -60 -45 -57 -48 5 -5 70 36 135 85
l34 27 -6 -35 c-4 -19 -9 -59 -13 -88 -6 -51 -10 -57 -63 -98 -31 -25 -66 -47
-78 -50 -20 -5 -33 -24 -18 -24 16 0 79 32 110 56 20 15 37 25 38 23 2 -2 1
-30 -1 -62 l-4 -57 -116 -57 c-65 -32 -110 -59 -100 -61 9 -2 57 17 107 43 50
25 91 41 91 36 0 -23 -26 -68 -54 -95 -34 -32 -20 -52 15 -20 10 9 19 12 19 6
0 -6 -21 -29 -47 -52 -27 -23 -36 -34 -20 -25 15 10 27 14 27 9 0 -11 -64
-138 -71 -142 -3 -1 -15 -10 -25 -18 -18 -14 -18 -15 4 -9 12 4 22 4 22 2 0
-18 -55 -118 -75 -137 -15 -14 -23 -30 -20 -40 6 -18 -147 -173 -202 -205 -17
-10 -34 -27 -36 -37 -5 -18 -27 -26 -27 -9 0 5 -19 2 -42 -6 -58 -20 -78 -32
-78 -47 0 -28 -182 -70 -415 -95 -55 -6 -157 -19 -226 -28 l-126 -16 -109 26
c-60 15 -117 27 -127 27 -25 0 -165 50 -259 93 -72 33 -178 120 -164 135 3 3
14 -6 25 -19 24 -31 117 -83 125 -70 6 9 -39 51 -55 51 -11 0 -99 62 -99 70 0
10 104 -6 128 -19 29 -15 37 -14 22 4 -7 8 -19 15 -27 15 -8 0 -49 22 -89 50
-66 43 -72 50 -52 55 14 3 49 -5 85 -20 35 -14 71 -25 80 -25 10 1 -25 17 -77
36 -52 20 -99 40 -104 45 -6 5 -19 9 -29 9 -15 0 -18 5 -14 21 4 16 -2 24 -29
36 -19 9 -34 23 -34 30 0 7 2 13 5 13 7 0 119 -61 129 -71 6 -5 20 -9 33 -9
12 0 57 -11 100 -25 86 -27 103 -30 103 -15 0 6 -8 10 -17 10 -40 1 -214 59
-255 86 -36 23 -44 34 -45 60 -1 32 -1 32 31 21 17 -6 45 -19 61 -29 17 -10
39 -18 50 -17 11 0 -5 12 -37 26 -40 17 -58 31 -58 44 0 10 -9 21 -20 24 -11
3 -25 15 -31 26 -5 11 -28 27 -50 35 -21 9 -39 22 -39 30 0 12 7 11 37 -2 77
-34 142 -54 158 -47 14 5 11 9 -14 19 -17 7 -39 12 -49 11 -30 -2 -94 33 -88
49 3 7 -3 18 -12 23 -12 7 -7 9 21 4 25 -4 37 -2 37 6 0 8 11 6 33 -6 36 -19
117 -34 117 -22 0 5 -33 18 -72 30 -72 22 -148 58 -148 71 0 8 70 -1 135 -18
27 -7 51 -11 53 -9 9 9 -42 25 -121 39 -54 9 -104 25 -132 42 -25 14 -44 28
-43 30 2 2 37 -7 78 -20 79 -24 228 -51 236 -43 7 7 -89 27 -125 27 -16 0 -34
7 -41 15 -7 8 -22 15 -34 15 -28 0 -146 56 -146 70 0 7 6 8 19 0 11 -5 30 -10
42 -10 33 0 8 24 -39 38 -33 10 -41 18 -50 51 -7 21 -12 44 -12 50 0 15 35 6
70 -19 14 -10 71 -34 128 -55 56 -21 100 -40 97 -43 -7 -8 -122 26 -187 55
-33 15 -63 23 -74 19 -52 -20 108 -82 326 -128 30 -6 79 -19 108 -29 29 -11
72 -19 95 -18 42 1 41 1 -18 14 -76 17 -198 64 -167 65 40 0 23 19 -33 36 -39
13 -54 22 -50 31 3 9 -7 19 -28 28 -17 7 -38 23 -45 34 -7 12 -23 21 -36 21
-14 0 -27 4 -30 9 -3 4 -44 27 -91 51 -101 49 -109 64 -10 19 86 -39 268 -99
299 -99 49 0 35 19 -21 30 -143 29 -363 111 -363 136 0 9 20 3 65 -21 36 -18
91 -39 123 -46 45 -9 291 -77 385 -105 9 -3 17 -1 17 4 0 15 -95 52 -174 68
-110 23 -150 35 -166 49 -18 16 -142 69 -212 91 -27 8 -48 19 -48 24 0 6 -8
10 -19 10 -19 0 -50 55 -37 67 4 4 9 -3 13 -15 8 -33 180 -113 313 -147 126
-33 236 -55 269 -55 54 0 -2 17 -162 50 -32 6 -57 14 -54 16 7 7 374 -55 457
-77 104 -28 341 -36 569 -19 102 7 182 18 191 25 8 6 56 17 107 24 193 24 493
92 565 128 36 18 41 17 28 -8 -20 -37 -2 -33 47 11 26 23 62 49 78 57 l30 16
-24 -26 c-12 -14 -20 -30 -17 -36 4 -5 -15 -22 -40 -37 -64 -38 -37 -43 33 -7
68 34 152 108 178 157 16 29 35 47 35 33z m-2653 -74 c6 -29 6 -53 2 -53 -10
0 -29 66 -29 100 0 39 16 10 27 -47z m3146 34 c95 -34 118 -54 162 -143 46
-94 59 -198 31 -252 -9 -17 -16 -39 -16 -50 0 -31 -127 -188 -176 -217 -24
-14 -44 -30 -44 -36 0 -6 -20 -19 -45 -30 -30 -14 -45 -26 -43 -36 2 -12 -20
-26 -82 -51 -86 -35 -251 -84 -258 -77 -2 2 2 13 8 25 13 24 6 40 -11 23 -6
-6 -17 -9 -24 -7 -7 3 -28 -11 -46 -32 -51 -54 -72 -74 -81 -74 -12 0 -10 4
22 45 38 48 31 56 -15 20 -35 -26 -85 -41 -85 -24 0 22 25 56 53 74 18 11 36
30 42 43 7 16 18 22 40 21 28 0 28 -1 8 -9 -38 -16 -28 -33 15 -26 36 5 165
58 222 91 14 7 59 32 101 55 89 48 170 125 204 195 29 59 34 168 11 213 -25
48 -119 101 -102 57 4 -11 -2 -15 -24 -15 -22 0 -28 4 -24 14 5 13 1 13 -25 3
-24 -9 -36 -9 -50 0 -11 7 -23 8 -32 2 -23 -14 -30 -10 -19 11 6 11 17 20 25
20 8 0 15 4 15 10 0 11 -28 2 -50 -15 -8 -7 -26 -11 -40 -10 -14 1 -35 -7 -47
-18 -31 -28 -42 -13 -13 18 13 14 19 25 13 25 -12 0 -83 -67 -83 -79 0 -4 -11
-13 -25 -19 -24 -11 -24 -10 -18 21 3 18 11 43 18 57 7 14 18 44 24 67 13 47
55 87 84 79 10 -2 21 2 24 10 3 9 20 14 47 15 39 0 93 15 71 19 -5 2 4 6 20
11 47 13 144 2 218 -24z m-3124 -30 c0 -27 -2 -29 -9 -12 -12 28 -12 57 0 50
6 -3 10 -21 9 -38z m-89 16 c0 -10 3 -29 6 -43 4 -18 3 -21 -4 -10 -15 25 -23
70 -12 70 5 0 10 -8 10 -17z m190 -56 c10 -17 9 -18 -12 -12 -34 11 -78 44
-78 60 0 18 73 -21 90 -48z m-155 -132 c9 -55 18 -120 21 -145 2 -25 7 -62 10
-82 3 -21 2 -38 -4 -38 -12 0 -34 103 -26 124 4 10 2 21 -3 25 -6 3 -13 56
-17 116 -4 61 -5 108 -2 105 3 -4 13 -51 21 -105z m251 69 c18 -14 18 -15 -6
-8 -31 8 -50 24 -29 24 8 0 24 -7 35 -16z m-197 -21 c0 -25 -1 -26 -9 -8 -12
27 -12 35 0 35 6 0 10 -12 9 -27z m358 11 c-3 -3 -12 -4 -19 -1 -8 3 -5 6 6 6
11 1 17 -2 13 -5z m2203 2 c0 -3 -4 -8 -10 -11 -5 -3 -10 -1 -10 4 0 6 5 11
10 11 6 0 10 -2 10 -4z m-2492 -34 c2 -7 -3 -12 -12 -12 -9 0 -16 7 -16 16 0
17 22 14 28 -4z m-78 -60 c0 -7 -4 -10 -10 -7 -5 3 -10 16 -10 28 0 18 2 19
10 7 5 -8 10 -21 10 -28z m80 18 c0 -5 -2 -10 -4 -10 -3 0 -8 5 -11 10 -3 6
-1 10 4 10 6 0 11 -4 11 -10z m-68 -97 c2 -24 -1 -43 -6 -43 -5 0 -1 -9 8 -19
20 -22 27 -82 10 -88 -15 -5 -27 23 -29 73 -1 23 -6 47 -10 53 -3 7 -2 18 4
24 5 7 7 24 4 38 -4 16 -2 21 5 14 5 -5 12 -29 14 -52z m2980 25 c33 -25 88
-120 88 -152 0 -8 -8 -24 -18 -36 -17 -22 -18 -22 -72 -5 -60 18 -167 58 -273
101 l-68 28 23 22 c13 13 46 34 73 49 44 24 59 26 131 23 69 -3 86 -7 116 -30z
m-2917 -20 c14 -6 28 -23 31 -37 3 -14 8 -32 10 -39 8 -27 -7 -31 -44 -10 -20
12 -39 23 -41 25 -2 1 1 8 7 16 6 7 9 23 5 35 -6 25 -3 26 32 10z m45 -142 c0
-4 -12 -5 -27 -1 -33 8 -29 4 -38 33 l-7 23 36 -23 c20 -13 36 -27 36 -32z
m80 39 c17 -9 30 -17 30 -20 0 -7 -60 16 -66 26 -8 13 3 11 36 -6z m2410 -36
c0 -17 -3 -19 -13 -10 -16 13 -27 5 -27 -20 0 -10 -5 -21 -11 -25 -14 -8 -3
44 13 63 16 20 38 15 38 -8z m-2704 -9 c42 0 26 -17 -23 -26 -27 -4 -56 -7
-65 -6 -10 1 -18 -2 -18 -7 0 -5 -9 -11 -21 -14 -15 -4 -19 -1 -17 11 2 8 19
20 38 25 19 5 39 13 45 18 5 5 16 7 23 4 8 -3 25 -5 38 -5z m225 -27 c27 -16
49 -34 49 -42 0 -11 -5 -10 -25 3 -13 9 -32 16 -41 16 -19 0 -54 27 -54 42 0
14 21 9 71 -19z m2599 -24 c33 -22 60 -42 60 -44 0 -2 -13 1 -30 6 -16 6 -30
15 -30 20 0 5 -16 17 -35 26 -19 9 -35 20 -35 25 0 13 8 10 70 -33z m120 31
c0 -5 -4 -10 -10 -10 -5 0 -10 5 -10 10 0 6 5 10 10 10 6 0 10 -4 10 -10z
m-2800 -47 c0 -7 9 -38 19 -68 11 -30 16 -55 13 -55 -20 1 -45 34 -52 67 -4
21 -11 54 -15 73 l-8 35 21 -19 c12 -11 22 -25 22 -33z m2764 22 c68 -30 85
-32 61 -5 -26 28 -9 25 54 -11 l54 -31 -24 -19 c-13 -11 -32 -17 -43 -15 -12
3 -20 -2 -23 -13 -5 -21 -29 -33 -127 -67 -79 -27 -79 -27 -71 -14 4 6 -6 10
-22 10 -15 0 -35 5 -43 10 -12 8 -9 10 11 10 21 0 28 6 33 26 4 15 6 27 4 29
-2 1 -12 7 -23 13 -16 8 -11 9 24 5 57 -8 53 15 -7 35 -37 12 -58 32 -33 32
14 0 100 -40 153 -71 53 -31 58 -33 58 -21 0 5 -11 15 -25 22 -32 17 -26 24
10 10 47 -18 40 -2 -9 22 -25 12 -46 26 -46 31 0 6 -8 16 -17 23 -27 20 -12
17 51 -11z m-202 -7 c-7 -7 -12 -8 -12 -2 0 14 12 26 19 19 2 -3 -1 -11 -7
-17z m-2677 -18 c-3 -5 -23 -10 -43 -9 -30 0 -33 2 -17 9 28 12 67 12 60 0z
m62 -12 c-3 -8 -6 -5 -6 6 -1 11 2 17 5 13 3 -3 4 -12 1 -19z m-311 -30 c-6
-4 -21 -8 -33 -8 -16 0 -21 4 -16 16 9 24 47 35 54 15 4 -9 1 -19 -5 -23z
m424 7 c0 -23 -2 -24 -20 -15 -21 11 -25 22 -13 33 15 16 33 6 33 -18z m-495
-7 c-6 -16 -81 -55 -90 -47 -7 8 10 24 50 46 44 23 48 23 40 1z m3010 12 c3
-5 1 -10 -4 -10 -6 0 -11 5 -11 10 0 6 2 10 4 10 3 0 8 -4 11 -10z m-2780 -19
c3 -5 -5 -12 -17 -14 -20 -4 -19 -4 5 -6 15 0 27 4 27 9 0 6 22 10 49 10 l49
0 17 -92 c10 -51 26 -114 36 -140 20 -51 137 -215 188 -262 17 -17 31 -36 31
-43 0 -7 9 -13 20 -13 11 0 20 -4 20 -10 0 -5 -9 -10 -21 -10 -12 0 -19 -5
-17 -12 6 -18 39 -23 48 -8 12 20 32 0 27 -26 -2 -13 0 -24 4 -24 5 0 9 7 9
15 0 25 13 18 62 -32 39 -40 46 -53 41 -75 -3 -16 -9 -28 -13 -28 -5 0 -10 -8
-13 -17 -2 -11 -9 1 -18 30 -14 51 -32 57 -37 14 -8 -69 114 -179 237 -213 31
-8 73 -22 94 -30 25 -9 78 -14 160 -14 67 0 149 -5 182 -11 85 -16 394 -21
500 -9 50 6 126 20 170 31 44 11 96 24 115 29 211 52 250 64 250 77 0 8 20 23
45 34 139 59 141 61 120 68 -18 7 -18 9 6 24 36 24 84 94 99 144 8 24 21 45
34 51 12 5 33 19 46 31 68 57 179 121 240 136 l65 17 22 -26 c12 -14 28 -23
36 -20 14 5 47 -48 47 -75 0 -6 5 -11 10 -11 6 0 10 -31 10 -72 1 -104 22 -63
30 57 6 89 6 90 18 50 6 -22 12 -50 12 -62 0 -13 5 -23 10 -23 34 0 -16 165
-50 165 -18 1 -40 13 -40 24 0 8 51 35 54 29 1 -2 10 -16 20 -32 10 -15 20
-38 21 -50 2 -11 11 -52 19 -89 19 -85 10 -144 -38 -242 -32 -64 -158 -235
-174 -235 -4 0 -18 -10 -32 -21 -22 -18 -20 -18 19 3 24 12 75 52 113 87 136
126 189 303 139 464 -11 38 -30 81 -42 95 l-20 26 49 11 c27 6 79 24 116 40
l68 29 37 -44 c64 -78 80 -95 81 -84 0 5 -23 38 -51 73 -39 49 -48 66 -38 72
8 5 17 9 20 9 14 0 49 -50 74 -107 25 -56 45 -80 45 -53 0 27 -53 144 -72 160
-19 15 -20 20 -9 34 13 15 15 15 32 0 11 -10 29 -43 40 -76 13 -35 28 -58 36
-58 10 0 13 6 9 16 -3 9 -6 21 -6 28 0 7 -16 39 -35 71 -20 32 -32 62 -27 67
12 12 203 -185 226 -234 12 -24 27 -42 34 -40 20 4 54 -86 63 -168 4 -41 11
-90 15 -107 7 -37 -14 -48 -23 -13 -3 11 -9 20 -13 20 -4 0 -24 -39 -44 -88
-40 -96 -109 -212 -127 -212 -6 0 -36 -24 -67 -54 -105 -100 -177 -155 -255
-198 -96 -53 -124 -73 -84 -58 52 18 63 9 17 -14 -154 -80 -706 -236 -726
-205 -6 11 1 13 86 29 130 25 312 91 420 152 200 113 206 141 8 38 -75 -39
-173 -83 -219 -99 -46 -16 -111 -41 -145 -55 -60 -25 -305 -72 -329 -62 -7 2
-30 0 -51 -5 -22 -5 -102 -14 -179 -20 -77 -6 -156 -12 -175 -15 -408 -48
-396 -47 -605 -36 -219 13 -487 41 -495 52 -6 8 -82 20 -166 25 -63 4 -314 42
-349 52 -18 6 -18 7 5 13 18 5 1 10 -60 19 -103 15 -236 48 -270 66 -14 8 -88
40 -165 70 -146 59 -210 92 -285 147 -25 18 -58 40 -75 49 -16 9 -41 34 -53
55 -13 21 -21 30 -17 19 3 -12 -16 2 -50 35 -119 117 -189 349 -135 451 20 37
4 45 -18 9 l-22 -35 0 47 c0 39 6 54 32 83 23 27 28 39 19 45 -30 18 39 88
158 160 46 27 86 48 88 47 5 -6 -26 -75 -37 -82 -6 -4 -22 -24 -35 -46 -14
-21 -38 -45 -55 -54 -28 -15 -30 -14 -30 4 0 11 5 23 10 26 12 7 13 25 2 25
-13 0 -40 -63 -63 -148 -31 -112 -34 -133 -18 -130 7 2 15 -7 17 -19 4 -26 32
-20 32 7 0 9 9 43 20 76 l20 59 -30 -35 c-16 -19 -30 -32 -30 -28 0 10 41 80
66 110 l22 27 -2 -39 c-1 -22 -5 -42 -9 -46 -13 -13 -7 -23 10 -17 12 5 14 3
8 -7 -13 -22 -23 -90 -14 -96 5 -3 9 -26 9 -52 0 -50 16 -48 22 3 3 21 7 8 16
-45 14 -81 21 -105 26 -99 2 2 -1 38 -6 79 -5 41 -8 116 -6 166 3 87 5 93 42
147 22 31 41 56 43 54 1 -2 -4 -35 -13 -73 -8 -38 -17 -123 -19 -189 l-4 -120
15 135 c12 102 25 165 56 258 22 67 43 121 45 118 2 -2 -3 -25 -11 -51 -21
-61 -39 -226 -26 -239 7 -7 10 -2 10 11 0 12 5 34 12 50 l11 28 7 -30 c6 -27
8 -25 15 23 5 38 17 63 39 89 39 44 130 113 150 113 8 0 19 6 23 13 4 8 21 22
36 32 23 15 30 16 37 5 6 -9 12 -5 24 17 13 26 28 34 100 57 46 14 89 26 95
26 6 0 11 7 11 15 0 18 -4 18 -48 5 -29 -8 -33 -7 -28 6 3 9 6 22 6 30 0 16
35 19 45 5z m2761 -28 c1 -16 0 -22 -3 -15 -4 10 -13 6 -34 -14 -31 -30 -36
-27 -16 9 18 33 40 58 45 52 3 -3 6 -17 8 -32z m-2830 0 c-2 -21 -11 -30 -41
-40 -41 -14 -52 -12 -39 9 5 7 9 17 9 23 0 10 43 35 62 35 7 0 10 -11 9 -27z
m384 5 c0 -13 -23 -5 -28 10 -2 7 2 10 12 6 9 -3 16 -11 16 -16z m-470 -8 c0
-5 -10 -19 -22 -31 -13 -12 -17 -19 -11 -15 8 5 11 2 7 -7 -6 -17 -54 -41 -63
-31 -3 4 0 9 8 12 10 3 10 6 1 12 -22 14 -1 46 38 57 20 6 38 11 40 12 1 0 2
-3 2 -9z m424 -15 c3 -8 1 -15 -4 -15 -6 0 -10 7 -10 15 0 8 2 15 4 15 2 0 6
-7 10 -15z m-700 -34 c-20 -33 -40 -42 -30 -13 4 9 -5 3 -18 -14 -30 -37 -95
-88 -103 -81 -13 14 41 76 84 98 26 13 54 30 61 37 23 21 26 6 6 -27z m881 -2
c33 -15 53 -28 45 -29 -9 0 -47 16 -85 35 -82 41 -48 36 40 -6z m-709 -6 c-4
-17 -23 -40 -47 -58 -23 -16 -45 -38 -50 -47 -21 -38 -27 -15 -9 28 11 25 20
52 20 60 0 13 79 56 88 48 2 -1 1 -15 -2 -31z m564 12 c0 -14 -4 -25 -8 -25
-4 0 -9 11 -10 25 -1 14 3 25 8 25 6 0 10 -11 10 -25z m2505 -36 c23 -1 12 -7
-43 -25 -93 -30 -112 -23 -77 29 l25 36 33 -19 c17 -11 46 -20 62 -21z m-2571
6 c10 -7 15 -18 12 -24 -4 -6 -2 -21 5 -33 11 -23 11 -23 -8 -3 -22 22 -47 75
-35 75 4 0 15 -7 26 -15z m162 0 c18 -13 18 -14 -4 -8 -12 3 -25 9 -28 14 -8
14 10 11 32 -6z m-63 -20 c-5 -13 -23 -22 -23 -11 0 15 14 35 21 31 4 -3 6
-12 2 -20z m-726 -56 c-13 -36 -36 -79 -51 -95 l-28 -29 7 29 c16 70 76 174
92 162 1 -1 -8 -32 -20 -67z m666 -50 c-3 -10 0 -19 6 -19 6 0 11 -16 11 -35
0 -65 -38 -32 -65 58 -10 33 -24 61 -32 64 -7 3 -13 13 -13 23 0 13 12 6 49
-27 35 -32 47 -50 44 -64z m3066 85 c-6 -8 -23 -14 -38 -14 l-26 1 23 19 c26
22 60 17 41 -6z m-2957 -26 c-6 -6 -18 -8 -27 -4 -13 4 -14 10 -5 26 10 19 12
19 27 5 11 -12 13 -19 5 -27z m-979 2 c-3 -12 -8 -19 -11 -16 -5 6 5 36 12 36
2 0 2 -9 -1 -20z m276 -21 c-13 -10 -26 -16 -28 -13 -8 8 32 44 42 37 5 -3 -1
-14 -14 -24z m-160 -59 c-10 -28 -19 -60 -19 -73 0 -12 -5 -29 -11 -37 -19
-27 -1 77 21 120 28 55 32 50 9 -10z m-88 -22 c-12 -33 -81 -120 -81 -101 0
29 33 96 57 117 15 13 30 23 31 21 2 -2 -1 -19 -7 -37z m943 -31 c-7 -18 -24
-23 -24 -8 0 22 13 42 22 33 5 -5 6 -16 2 -25z m46 -43 c0 -8 -4 -14 -10 -14
-5 0 -10 9 -10 21 0 11 5 17 10 14 6 -3 10 -13 10 -21z m61 9 c13 -15 12 -15
-8 -4 -24 12 -29 21 -14 21 5 0 15 -7 22 -17z m-1171 -23 c-6 -12 -14 -19 -17
-17 -2 3 1 15 7 27 6 12 14 19 17 17 2 -3 -1 -15 -7 -27z m1034 -30 c-13 -13
-49 24 -39 40 5 9 14 6 28 -9 15 -14 18 -24 11 -31z m2267 7 c-10 -9 -11 -8
-5 6 3 10 9 15 12 12 3 -3 0 -11 -7 -18z m319 19 c0 -11 -19 -15 -25 -6 -3 5
1 10 9 10 9 0 16 -2 16 -4z m-2454 -123 c-7 -7 -26 7 -26 19 0 6 6 6 15 -2 9
-7 13 -15 11 -17z m144 -93 c14 -11 19 -20 12 -20 -19 0 -52 19 -52 30 0 15
12 12 40 -10z m1817 -24 c-17 -26 -77 -72 -77 -60 0 11 83 95 88 89 3 -2 -2
-15 -11 -29z m-1871 -1 c10 -8 14 -15 8 -15 -5 0 -19 7 -30 15 -10 8 -14 15
-8 15 5 0 19 -7 30 -15z m3221 -137 c-3 -7 -5 -2 -5 12 0 14 2 19 5 13 2 -7 2
-19 0 -25z m-1462 12 c-3 -5 -11 -10 -16 -10 -6 0 -7 5 -4 10 3 6 11 10 16 10
6 0 7 -4 4 -10z m1347 -191 c-60 -112 -86 -146 -139 -183 -98 -69 -75 -21 42
86 36 33 65 64 65 69 0 14 51 92 56 86 3 -3 -8 -29 -24 -58z m-1742 22 c0 -9
-64 -34 -115 -46 -52 -11 -14 14 51 35 33 10 60 19 62 19 1 1 2 -3 2 -8z
m-330 -41 c0 -6 -28 -9 -67 -9 -60 2 -64 3 -28 9 61 11 95 11 95 0z m1920 -77
c0 -13 -60 -73 -72 -73 -6 0 7 18 28 40 41 42 44 44 44 33z m-4117 -149 c69
-57 88 -80 40 -49 -63 40 -133 99 -160 133 l-27 37 39 -33 c22 -18 70 -57 108
-88z m122 -94 c3 -5 -1 -10 -10 -10 -9 0 -13 5 -10 10 3 6 8 10 10 10 2 0 7
-4 10 -10z m490 -161 c72 -24 256 -64 415 -92 22 -4 22 -4 -5 -6 -50 -2 -255
37 -355 68 -52 16 -106 31 -120 35 -14 3 -34 12 -45 21 l-20 17 20 -7 c11 -4
60 -21 110 -36z m0 -29 c7 -12 -2 -12 -30 0 -19 8 -19 9 2 9 12 1 25 -3 28 -9z
m2355 -69 c0 -5 -10 -11 -22 -14 -64 -16 -254 -47 -338 -56 -342 -36 -413 -46
-385 -51 23 -5 13 -8 -40 -13 -104 -10 -203 -9 -207 4 -2 6 -52 12 -127 15
-68 2 -127 7 -132 9 -4 3 -86 10 -181 16 -95 6 -175 13 -177 15 -4 3 126 8
224 8 71 0 238 -15 261 -24 31 -12 287 -12 364 0 160 25 695 96 738 99 12 0
22 -3 22 -8z m235 -1 c11 -5 15 -9 10 -9 -6 -1 -73 -15 -150 -31 -77 -17 -171
-33 -210 -35 -38 -3 -86 -8 -105 -11 -19 -3 -32 -3 -29 0 3 4 84 20 180 36 96
16 197 36 224 44 60 17 55 17 80 6z m-1962 -52 c48 -6 86 -13 83 -15 -6 -6
-235 16 -276 27 -43 12 56 5 193 -12z m223 2 c37 -11 -115 -2 -166 11 -24 6
-8 7 51 3 47 -2 99 -9 115 -14z"/>
<path d="M2300 3170 c-12 -8 -11 -10 8 -10 12 0 22 5 22 10 0 13 -11 13 -30 0z"/>
<path d="M2780 3170 c30 -5 89 -11 130 -14 69 -5 196 -25 251 -40 19 -6 21 -5
8 3 -40 25 -198 53 -319 57 -97 2 -113 1 -70 -6z"/>
<path d="M2388 3163 c7 -3 16 -2 19 1 4 3 -2 6 -13 5 -11 0 -14 -3 -6 -6z"/>
<path d="M2630 3142 c0 -5 -17 -10 -37 -10 -64 0 -348 -11 -353 -14 -3 -1 112
-5 254 -8 171 -3 261 -9 263 -16 2 -6 16 -9 31 -7 15 3 101 -8 192 -23 91 -14
181 -28 201 -30 63 -5 151 -35 242 -81 89 -46 93 -51 78 -101 -1 -1 -14 4 -31
13 -19 10 -30 23 -30 37 0 20 -1 20 -12 5 -12 -15 -16 -15 -48 1 -19 9 -46 19
-60 22 -18 4 -27 14 -31 35 -5 25 -14 18 -10 -7 2 -12 -6 -10 -41 8 -84 44
-170 64 -262 63 l-91 -2 88 -10 c62 -7 87 -13 87 -23 0 -7 11 -16 25 -20 49
-12 25 -25 -37 -20 l-63 5 51 -9 c62 -11 113 -31 97 -37 -6 -2 -32 3 -58 11
-25 9 -57 16 -70 16 -16 0 -25 6 -25 15 0 10 -10 15 -32 15 -18 0 -46 7 -62
15 -22 12 -27 12 -23 2 4 -10 -2 -13 -21 -10 -24 4 -25 3 -9 -7 10 -7 24 -9
31 -7 7 3 20 -3 29 -14 9 -10 28 -19 42 -19 13 0 59 -12 101 -26 42 -14 86
-27 98 -28 11 -1 37 -10 55 -18 19 -9 41 -14 48 -11 7 3 13 0 13 -5 0 -6 9
-14 20 -17 11 -3 20 -12 20 -20 0 -7 7 -26 15 -41 13 -26 13 -29 0 -32 -21 -5
-96 40 -91 54 5 14 -21 54 -35 54 -5 0 -7 -12 -4 -27 l5 -28 -12 25 c-17 35
-16 34 -51 36 -48 3 -138 30 -147 44 -4 7 -15 10 -24 7 -9 -4 -16 -2 -16 3 0
6 -7 10 -15 10 -8 0 -15 -5 -15 -11 0 -7 -10 -9 -26 -5 -14 4 -23 3 -20 -2 3
-5 25 -12 48 -16 23 -4 50 -14 59 -22 10 -9 20 -11 23 -6 9 14 139 -36 173
-66 30 -28 54 -42 114 -65 45 -18 122 -67 116 -73 -3 -3 -23 6 -45 20 -75 47
-208 104 -269 115 -33 6 -99 24 -146 40 -112 38 -351 57 -612 48 -242 -9 -489
-55 -670 -126 -98 -38 -200 -71 -223 -71 -11 0 -34 -10 -53 -22 -19 -13 -46
-29 -61 -37 -31 -16 -79 -60 -94 -86 -10 -18 -13 -15 -32 28 -33 74 -37 111
-18 171 21 65 40 85 134 130 39 20 72 38 72 41 0 6 -40 -9 -89 -35 -44 -22
-55 -25 -46 -11 3 6 49 31 103 56 134 64 447 146 592 155 l105 7 -121 1 c-157
2 -304 -24 -466 -83 -187 -69 -237 -95 -293 -151 -77 -78 -89 -107 -81 -187 6
-55 14 -76 44 -117 20 -27 44 -52 52 -55 8 -3 44 -33 79 -65 50 -47 67 -58 77
-49 10 8 22 6 49 -10 20 -11 48 -23 63 -26 15 -2 65 -20 112 -39 281 -113 870
-150 1224 -76 50 10 124 26 165 35 40 9 114 20 165 25 65 7 122 21 198 49 213
80 305 137 345 216 20 37 42 130 42 170 0 23 -6 16 -24 -36 -30 -86 -43 -109
-61 -109 -11 0 -8 9 12 35 18 24 29 52 31 83 4 43 2 49 -27 72 -92 73 -100 82
-100 111 0 16 3 29 8 29 11 -1 118 -103 131 -125 9 -18 10 -17 10 10 0 17 -7
39 -17 50 -40 47 -154 126 -213 148 -134 50 -234 92 -239 99 -20 27 -570 95
-570 70z m415 -57 c52 -17 28 -17 -60 -1 -64 13 -66 14 -25 14 25 0 63 -5 85
-13z m130 -136 c4 -6 5 -13 2 -16 -8 -7 -47 7 -47 18 0 13 37 11 45 -2z m98
-36 c4 -7 19 -13 32 -13 16 0 25 -6 25 -15 0 -8 -1 -15 -3 -15 -16 0 -122 50
-125 59 -5 16 61 1 71 -16z m-28 -35 c7 -7 2 -8 -15 -3 -51 15 -70 25 -70 34
0 11 69 -14 85 -31z m165 -49 c43 -39 33 -37 -35 7 -24 16 -33 34 -17 34 4 0
27 -18 52 -41z m-550 -14 c23 -13 20 -14 -40 -8 -93 9 -119 22 -45 22 34 0 71
-6 85 -14z m-490 -5 c0 -10 -68 -26 -76 -17 -4 3 -3 10 1 16 8 14 75 15 75 1z
m989 -19 c22 -18 39 -45 47 -72 15 -51 12 -59 -16 -34 -23 20 -84 135 -72 135
4 0 22 -13 41 -29z m130 20 c7 -5 10 -14 6 -20 -5 -9 -10 -9 -21 0 -26 22 -14
38 15 20z m-1409 -11 c-36 -12 -62 -12 -55 0 3 6 23 10 43 9 33 -1 34 -2 12
-9z m595 -20 c7 -12 -29 -12 -65 0 -21 7 -19 8 17 9 23 1 45 -3 48 -9z m860 1
c3 -5 1 -12 -5 -16 -5 -3 -10 1 -10 9 0 18 6 21 15 7z m-1702 -18 c-7 -2 -19
-2 -25 0 -7 3 -2 5 12 5 14 0 19 -2 13 -5z m668 -7 c150 -23 197 -34 224 -52
31 -20 32 -29 3 -19 -35 10 -179 25 -313 31 -142 6 -281 -6 -385 -34 -96 -26
-232 -94 -259 -128 -12 -15 -21 -21 -21 -15 0 7 14 26 30 43 17 16 30 34 30
39 0 18 -63 -25 -79 -53 -19 -34 -31 -36 -31 -5 1 33 28 62 88 91 35 18 52 32
52 45 0 25 24 32 124 36 111 5 286 22 294 29 10 11 148 6 243 -8z m974 -6 c10
-11 14 -20 8 -20 -5 0 -18 9 -28 20 -10 11 -14 20 -8 20 5 0 18 -9 28 -20z
m95 -17 c0 -25 -1 -26 -16 -11 -9 9 -13 21 -10 27 13 20 26 11 26 -16z m-1874
-4 c-33 -11 -61 -17 -63 -15 -6 6 79 34 102 34 11 0 -7 -9 -39 -19z m1179 -10
c15 -6 9 -8 -22 -8 -47 -1 -75 7 -68 20 6 9 54 2 90 -12z m-1107 -11 c-21 -6
-38 -15 -38 -20 0 -6 -9 -8 -20 -5 -11 3 -20 2 -20 -3 0 -4 -17 -11 -37 -15
-37 -7 -136 -45 -131 -50 2 -2 35 7 73 21 39 13 81 23 95 23 29 -1 32 1 -79
-33 -46 -14 -87 -23 -92 -20 -13 7 -77 -33 -89 -56 -14 -26 -12 -34 3 -21 20
16 85 37 141 45 44 7 48 6 38 -7 -7 -8 -37 -27 -66 -41 -84 -41 -106 -86 -70
-140 29 -42 22 -45 -28 -11 -21 14 -38 20 -40 14 -2 -7 -17 -4 -41 7 -21 10
-36 23 -33 29 2 7 -6 25 -19 41 -18 23 -21 33 -12 51 5 12 14 20 18 17 5 -3 9
1 9 10 0 20 52 62 121 97 45 22 59 26 59 15 0 -13 9 -12 58 5 81 28 193 58
217 57 11 0 3 -5 -17 -10z m1727 -9 c11 -17 -1 -21 -15 -4 -8 9 -8 15 -2 15 6
0 14 -5 17 -11z m-407 -13 c2 -3 2 -12 0 -21 -2 -13 -9 -12 -38 11 l-35 26 34
-6 c19 -3 36 -8 39 -10z m389 -71 c-3 -15 -5 -13 -6 7 0 15 -6 30 -11 33 -6 4
-7 11 -4 17 10 15 26 -30 21 -57z m53 22 c0 -5 -4 -5 -10 -2 -5 3 -10 14 -10
23 0 15 2 15 10 2 5 -8 10 -19 10 -23z m-335 1 c7 -7 1 -8 -20 -4 -16 4 -34
12 -40 18 -7 7 -1 8 20 4 17 -4 35 -12 40 -18z m-335 -8 c8 -5 11 -10 5 -10
-5 0 -17 5 -25 10 -8 5 -10 10 -5 10 6 0 17 -5 25 -10z m-850 -20 c0 -23 -25
-27 -33 -6 -4 9 1 17 11 19 9 3 18 5 20 6 1 0 2 -8 2 -19z m732 -1 c10 -5 22
-18 28 -28 8 -15 6 -20 -10 -24 -13 -3 -20 0 -20 9 0 7 -15 20 -34 28 -48 20
-58 40 -15 31 19 -4 42 -11 51 -16z m323 -14 c43 -43 28 -157 -25 -185 -18 -9
-17 -6 5 26 33 48 33 100 0 148 -28 41 -16 48 20 11z m283 -3 c6 -18 -15 -14
-22 4 -4 10 -1 14 6 12 6 -2 14 -10 16 -16z m-1132 -11 c-4 -5 -23 -12 -44
-16 -20 -3 -44 -10 -52 -15 -10 -7 -4 -8 20 -4 l35 6 -35 -19 c-31 -16 -35
-23 -38 -60 -2 -24 -7 -43 -11 -43 -12 0 -75 49 -84 66 -6 11 -2 23 15 41 l23
26 -27 -18 c-16 -10 -28 -13 -28 -7 0 15 36 33 52 27 8 -3 30 1 49 9 37 17
134 22 125 7z m1007 -22 c6 -24 -2 -24 -19 -1 -17 22 -17 33 0 26 8 -3 16 -14
19 -25z m-1944 -16 c-5 -16 -18 -39 -29 -53 l-20 -25 0 29 c0 17 9 40 22 53
29 31 39 29 27 -4z m1611 -23 c18 -43 -6 -94 -55 -117 -43 -20 -57 -10 -23 17
37 28 54 74 39 106 -16 37 -14 46 8 35 10 -6 24 -24 31 -41z m-1040 24 c0 -11
-34 -33 -50 -33 -10 0 -8 6 9 19 23 20 41 26 41 14z m1321 -75 c14 -46 6 -60
-52 -90 -64 -32 -75 -25 -35 23 32 37 36 48 36 97 l1 56 19 -23 c11 -13 25
-41 31 -63z m322 66 c4 -8 2 -17 -3 -20 -6 -4 -10 -4 -10 -1 0 2 -3 11 -6 20
-3 9 -2 16 4 16 5 0 12 -7 15 -15z m-1563 -15 c-11 -11 -20 -23 -20 -27 1 -27
53 -58 112 -67 35 -5 46 -11 41 -21 -5 -15 -48 -11 -67 6 -6 5 -38 9 -73 9
-63 0 -63 0 -57 -25 7 -30 -1 -31 -43 -5 -41 25 -42 40 -3 40 17 0 30 5 30 10
0 6 11 10 25 10 22 0 25 4 25 38 0 43 5 52 32 52 17 0 17 -1 -2 -20z m850 16
c0 -3 -4 -8 -10 -11 -5 -3 -10 -1 -10 4 0 6 5 11 10 11 6 0 10 -2 10 -4z m195
-16 c15 -16 17 -26 9 -47 -14 -41 -34 -41 -34 0 0 20 -3 42 -6 51 -9 22 9 20
31 -4z m410 11 c3 -5 1 -12 -5 -16 -5 -3 -10 1 -10 9 0 18 6 21 15 7z m-1185
-11 c0 -5 -4 -10 -10 -10 -5 0 -10 5 -10 10 0 6 5 10 10 10 6 0 10 -4 10 -10z
m1305 -30 c3 -5 1 -10 -4 -10 -6 0 -11 5 -11 10 0 6 2 10 4 10 3 0 8 -4 11
-10z m50 -15 c-16 -14 -37 -25 -45 -25 -8 0 -28 -9 -45 -20 -44 -30 -115 -60
-139 -59 -19 0 226 127 249 128 6 0 -3 -11 -20 -24z m-1845 -14 c0 -10 8 -21
19 -24 21 -5 36 -57 16 -57 -38 0 -82 70 -58 93 12 13 23 7 23 -12z m-194 -7
c-3 -9 -6 -27 -6 -40 0 -14 -4 -22 -10 -19 -11 7 -14 58 -3 68 12 13 25 7 19
-9z m64 -13 c0 -5 3 -18 7 -28 6 -16 5 -16 -10 -4 -19 15 -23 41 -7 41 6 0 10
-4 10 -9z m-15 -42 c11 -17 -1 -21 -15 -4 -8 9 -8 15 -2 15 6 0 14 -5 17 -11z
m628 -16 c-7 -2 -19 -2 -25 0 -7 3 -2 5 12 5 14 0 19 -2 13 -5z m562 -3 c-3
-5 -23 -10 -43 -10 -28 0 -33 3 -22 10 20 13 73 13 65 0z m-813 -50 c46 -11
92 -19 103 -19 11 1 -4 7 -33 14 -55 14 -78 25 -49 25 9 0 44 -7 79 -15 165
-38 274 -47 420 -35 77 6 165 15 196 20 33 6 60 6 66 0 7 -5 40 -5 81 0 66 8
85 7 73 -5 -11 -11 -177 -35 -315 -47 -88 -7 -140 -15 -136 -21 8 -14 -304 -1
-436 17 -127 18 -164 41 -51 32 l75 -6 -78 24 c-43 13 -81 27 -84 30 -9 9 -2
8 89 -14z m1081 -11 c-5 -5 -27 -12 -49 -15 l-39 -5 45 25 c41 22 67 19 43 -5z
m-176 -65 c-3 -3 -12 -4 -19 -1 -8 3 -5 6 6 6 11 1 17 -2 13 -5z m-237 -36
c-55 -8 -95 -10 -89 -3 9 8 114 22 124 16 6 -3 -10 -9 -35 -13z"/>
<path d="M1903 2713 c-12 -2 -27 -11 -33 -19 -17 -19 -2 -17 40 6 35 19 34 21
-7 13z"/>
<path d="M2069 2520 c-13 -10 -19 -19 -13 -20 6 0 19 9 29 20 23 26 14 26 -16
0z"/>
<path d="M1859 3130 c-140 -8 -222 -24 -241 -48 -12 -13 -10 -14 9 -3 38 20
122 31 268 36 147 6 269 23 150 22 -33 0 -117 -3 -186 -7z"/>
<path d="M2695 2990 c-16 -7 -12 -9 18 -9 23 -1 36 3 32 9 -7 12 -23 12 -50 0z"/>
<path d="M2775 2980 c3 -5 13 -10 21 -10 8 0 12 5 9 10 -3 6 -13 10 -21 10 -8
0 -12 -4 -9 -10z"/>
<path d="M1156 2931 c-15 -16 -28 -35 -30 -43 -1 -8 -12 -27 -24 -42 -12 -16
-22 -32 -22 -37 0 -4 -3 -16 -6 -26 -4 -10 8 2 26 27 18 25 47 61 64 80 22 25
24 28 5 12 -14 -12 -29 -22 -35 -22 -5 1 11 19 36 40 27 24 39 40 29 40 -8 0
-28 -13 -43 -29z"/>
<path d="M3260 2783 c0 -12 5 -25 11 -28 19 -12 22 3 5 27 l-16 22 0 -21z"/>
<path d="M3711 2784 c0 -11 3 -14 6 -6 3 7 2 16 -1 19 -3 4 -6 -2 -5 -13z"/>
<path d="M1545 2751 c-11 -5 -34 -6 -51 -4 -18 3 -44 -2 -63 -11 -49 -26 -169
-105 -177 -117 -11 -18 5 -23 19 -6 16 22 94 59 202 98 50 17 94 36 100 40 11
11 -2 11 -30 0z"/>
<path d="M1978 2143 c6 -2 18 -2 25 0 6 3 1 5 -13 5 -14 0 -19 -2 -12 -5z"/>
<path d="M2178 2133 c56 -2 148 -2 205 0 56 1 10 3 -103 3 -113 0 -159 -2
-102 -3z"/>
<path d="M1690 1924 c41 -13 93 -24 115 -23 31 0 18 6 -60 24 -127 30 -151 30
-55 -1z"/>
<path d="M1435 1840 c3 -5 11 -10 16 -10 6 0 7 5 4 10 -3 6 -11 10 -16 10 -6
0 -7 -4 -4 -10z"/>
<path d="M1560 1797 c6 -6 175 -37 204 -37 42 0 4 12 -66 21 -40 5 -89 12
-108 15 -19 4 -33 4 -30 1z"/>
<path d="M1668 1743 c6 -2 18 -2 25 0 6 3 1 5 -13 5 -14 0 -19 -2 -12 -5z"/>
<path d="M1718 1733 c7 -3 16 -2 19 1 4 3 -2 6 -13 5 -11 0 -14 -3 -6 -6z"/>
<path d="M1763 1723 c9 -2 25 -2 35 0 9 3 1 5 -18 5 -19 0 -27 -2 -17 -5z"/>
<path d="M1828 1713 c7 -3 16 -2 19 1 4 3 -2 6 -13 5 -11 0 -14 -3 -6 -6z"/>
<path d="M1665 1540 c40 -15 275 -56 264 -45 -5 4 -266 56 -279 54 -3 0 4 -4
15 -9z"/>
<path d="M3235 1258 c-10 -6 -37 -17 -60 -25 l-40 -13 40 6 c40 6 122 43 95
43 -8 0 -24 -5 -35 -11z"/>
<path d="M3137 1135 c-10 -7 -63 -28 -118 -46 -54 -18 -97 -34 -95 -36 6 -6
160 42 211 65 21 10 35 21 30 24 -6 4 -18 0 -28 -7z"/>
<path d="M2950 999 c-14 -6 -72 -22 -130 -36 -87 -22 -130 -26 -250 -27 -80
-1 -183 2 -230 6 -62 4 -74 4 -45 -3 68 -16 382 -23 463 -10 76 12 209 54 226
71 13 13 -1 12 -34 -1z"/>
<path d="M3990 2323 c0 -5 31 -8 70 -8 38 0 64 3 57 7 -16 10 -127 10 -127 1z"/>
<path d="M4256 2291 c81 -58 114 -118 114 -208 0 -23 5 -45 10 -48 14 -8 13
106 -1 142 -16 44 -121 143 -152 143 -6 0 8 -13 29 -29z"/>
<path d="M4436 2064 c-3 -9 -6 -35 -6 -59 0 -25 -9 -67 -20 -95 -22 -55 -9
-61 14 -7 11 27 29 177 21 177 -2 0 -6 -7 -9 -16z"/>
<path d="M4040 1610 c-19 -11 -43 -19 -52 -20 -15 0 -68 -57 -68 -73 0 -18 32
-3 52 24 22 29 76 69 94 69 4 0 -5 -13 -21 -30 -16 -16 -24 -30 -17 -30 6 0
22 15 36 33 40 52 34 59 -24 27z"/>
<path d="M3890 1510 c-8 -5 -12 -12 -9 -15 4 -3 12 1 19 10 14 17 11 19 -10 5z"/>
<path d="M764 1571 c-38 -27 -83 -64 -100 -82 -34 -38 -77 -109 -70 -116 2 -3
12 10 21 28 42 81 229 229 256 202 6 -6 0 -15 -16 -23 -14 -7 -25 -17 -25 -21
0 -5 16 3 36 16 20 14 42 25 48 26 6 0 2 4 -9 9 -42 18 -72 10 -141 -39z"/>
<path d="M785 1409 c-59 -44 -134 -120 -151 -152 -31 -59 -35 -130 -9 -202 5
-15 1 -14 -19 8 -14 15 -26 23 -26 16 0 -23 77 -84 155 -124 44 -22 101 -59
127 -82 26 -23 57 -47 68 -53 11 -6 18 -15 16 -19 -21 -34 451 -164 659 -181
61 -5 148 -19 195 -30 65 -16 132 -22 289 -26 149 -4 209 -9 225 -19 15 -10
31 -12 60 -5 22 5 53 6 69 3 18 -4 28 -2 24 3 -7 12 59 11 87 -1 10 -4 21 -4
25 2 3 5 24 10 46 11 81 5 90 7 102 23 7 9 34 19 60 23 125 16 160 23 183 36
20 11 22 15 8 18 -9 2 -26 -2 -37 -7 -25 -14 -44 -14 -36 -1 8 12 2 13 -27 1
-13 -5 -72 -14 -133 -20 -60 -6 -135 -14 -165 -18 -30 -3 -91 -7 -136 -8 -44
-1 -97 -8 -117 -14 -31 -10 -40 -10 -59 3 -28 20 -44 21 -28 1 23 -27 -19 -18
-44 10 -21 22 -29 25 -65 19 -31 -5 -48 -2 -76 15 -46 27 -53 27 -29 0 l19
-22 -115 7 c-164 10 -250 22 -375 52 -153 37 -257 71 -350 114 -103 49 -177
72 -201 64 -15 -4 -16 -4 -5 4 11 8 4 13 -30 22 -64 16 -110 42 -122 68 -10
22 -27 30 -27 12 0 -21 -17 -8 -74 56 -44 49 -63 80 -72 116 -12 46 -12 53 13
104 18 38 40 65 74 90 68 50 112 115 77 113 -7 0 -31 -14 -53 -30z m175 -563
c41 -16 77 -32 80 -36 8 -11 81 -46 125 -60 54 -17 71 -34 25 -25 -77 16 -320
131 -320 152 0 2 3 3 8 1 4 -1 41 -16 82 -32z m352 -142 c32 -9 57 -18 55 -20
-6 -7 -122 17 -131 27 -15 14 10 11 76 -7z m843 -104 c3 -5 -1 -10 -9 -10 -9
0 -16 5 -16 10 0 6 4 10 9 10 6 0 13 -4 16 -10z m-62 -7 c-7 -2 -19 -2 -25 0
-7 3 -2 5 12 5 14 0 19 -2 13 -5z"/>
<path d="M1215 1231 c-74 -43 -97 -72 -103 -129 -7 -82 40 -141 149 -186 42
-17 77 -32 194 -85 50 -23 50 -23 31 -2 -20 22 -20 22 0 14 10 -5 42 -20 69
-35 28 -14 74 -33 104 -42 60 -18 211 -22 211 -6 0 6 -3 10 -6 10 -3 0 -55 11
-115 25 -146 33 -183 55 -271 163 -9 12 -20 48 -24 81 -4 34 -11 61 -15 61 -5
0 -9 -4 -9 -10 0 -19 -21 -10 -30 14 -14 39 -28 39 -45 0 -20 -48 -19 -74 5
-104 23 -29 25 -40 7 -40 -17 0 -58 46 -80 91 -19 36 -19 37 8 88 22 44 23 51
8 43 -10 -6 -29 -22 -42 -36 -14 -14 -30 -26 -38 -26 -23 0 -14 27 22 65 39
42 54 75 33 75 -7 0 -35 -13 -63 -29z m-20 -205 c13 -31 -13 -9 -31 26 -13 25
-14 32 -2 39 9 6 15 1 19 -19 4 -15 10 -36 14 -46z m238 17 c9 -47 -13 -43
-28 5 -4 16 -2 22 8 22 8 0 17 -12 20 -27z"/>
<path d="M3675 1238 c-108 -27 -124 -73 -53 -154 60 -69 154 -93 233 -60 84
35 72 146 -22 203 -41 25 -88 28 -158 11z m143 -35 c26 -23 68 -139 50 -138
-4 0 -13 -9 -21 -19 -10 -13 -16 -15 -21 -8 -4 7 -12 12 -17 12 -6 0 -7 -4 -4
-10 11 -18 -12 -10 -30 10 -13 14 -21 17 -26 9 -5 -8 -11 -6 -20 9 -7 11 -19
18 -27 14 -12 -4 -14 3 -10 39 5 39 4 41 -5 16 -13 -32 -33 -30 -30 4 1 23 0
22 -10 -3 -6 -16 -15 -28 -20 -28 -5 0 -6 12 -3 28 17 69 17 68 5 45 -7 -13
-16 -23 -22 -23 -16 0 19 45 38 48 41 9 84 -10 129 -55 35 -36 46 -43 46 -29
0 11 -18 36 -40 58 l-41 38 29 0 c17 0 39 -8 50 -17z m74 -68 c4 -5 8 -16 8
-22 0 -25 -16 -13 -34 24 -17 35 -17 36 1 22 10 -8 21 -18 25 -24z m-187 -75
c3 -5 1 -10 -4 -10 -6 0 -11 5 -11 10 0 6 2 10 4 10 3 0 8 -4 11 -10z"/>
<path d="M126 1145 c9 -91 15 -119 23 -107 8 13 -5 103 -20 137 -6 13 -7 3 -3
-30z"/>
<path d="M1330 1128 c0 -19 2 -20 10 -8 13 19 13 30 0 30 -5 0 -10 -10 -10
-22z"/>
<path d="M4310 1141 c-37 -7 -53 -17 -97 -66 -35 -39 -53 -67 -53 -84 0 -35
34 -89 65 -103 32 -14 32 -27 0 -20 -18 3 -25 0 -25 -12 0 -15 21 -22 45 -16
6 2 45 7 87 11 51 4 89 14 111 28 19 12 41 21 49 21 8 0 23 10 34 22 l19 22
-25 -17 c-35 -24 -48 -21 -16 4 32 25 56 69 56 104 0 33 -25 82 -48 94 -25 13
-150 20 -202 12z m50 -30 c0 -5 -20 -21 -45 -35 -43 -26 -73 -61 -61 -74 3 -3
24 9 45 26 22 18 42 32 45 32 3 0 6 -25 6 -55 0 -51 -10 -69 -25 -45 -11 18
-24 11 -31 -16 l-7 -26 -16 26 c-16 26 -31 34 -31 17 0 -6 5 -13 10 -16 15 -9
12 -25 -5 -25 -12 0 -15 14 -15 64 0 75 21 109 80 125 47 12 50 13 50 2z m40
5 c0 -2 -7 -6 -15 -10 -8 -3 -15 -1 -15 4 0 6 7 10 15 10 8 0 15 -2 15 -4z
m108 -31 c16 -35 15 -54 -3 -61 -8 -4 -15 -18 -15 -32 0 -43 -19 -12 -29 48
l-9 55 -2 -50 c-1 -27 -2 -58 -1 -67 5 -40 -34 -11 -42 32 -3 19 -5 17 -6 -11
0 -19 4 -40 10 -46 7 -7 7 -13 1 -17 -6 -4 -18 4 -27 16 l-17 23 5 -22 c3 -14
0 -23 -6 -23 -15 0 -10 129 5 148 6 6 19 12 29 12 11 0 19 5 19 10 0 6 17 10
38 10 32 0 41 -5 50 -25z m-178 -156 c0 -5 -4 -9 -10 -9 -5 0 -10 7 -10 16 0
8 5 12 10 9 6 -3 10 -10 10 -16z m-7 -56 c-7 -2 -19 -2 -25 0 -7 3 -2 5 12 5
14 0 19 -2 13 -5z"/>
<path d="M4490 1071 c0 -5 5 -13 10 -16 6 -3 10 -2 10 4 0 5 -4 13 -10 16 -5
3 -10 2 -10 -4z"/>
<path d="M3531 1076 c-9 -10 -5 -20 18 -45 29 -31 61 -41 61 -20 0 8 5 8 15
-1 12 -10 15 -10 15 0 0 8 7 10 18 5 42 -17 47 -18 37 -8 -8 9 -143 83 -150
83 -2 0 -8 -6 -14 -14z"/>
<path d="M181 945 c0 -5 6 -21 14 -35 8 -14 14 -20 14 -15 0 6 -6 21 -14 35
-8 14 -14 21 -14 15z"/>
<path d="M3515 927 c-56 -22 -74 -37 -110 -91 -39 -58 -41 -69 -21 -105 17
-31 10 -54 -15 -46 -27 9 -24 -10 4 -22 14 -7 59 -8 122 -4 206 15 322 114
258 222 -19 32 -27 35 -113 43 -30 3 -64 7 -75 10 -11 3 -33 0 -50 -7z m20
-73 c-34 -44 -44 -74 -26 -74 5 0 30 24 55 54 37 43 54 55 85 60 45 7 67 1 75
-20 3 -8 1 -12 -4 -9 -6 4 -7 -7 -4 -27 l6 -33 -22 33 c-27 40 -33 41 -25 1 5
-20 3 -34 -4 -39 -15 -9 -4 -38 17 -42 14 -3 13 -6 -5 -16 -20 -11 -23 -10
-29 13 -3 14 -10 25 -15 25 -5 0 -9 8 -10 18 -1 9 -6 0 -11 -22 -8 -29 -7 -40
2 -46 9 -5 9 -9 1 -14 -16 -10 -31 2 -31 25 0 12 -4 17 -11 13 -6 -3 -9 -17
-6 -30 5 -28 -1 -30 -19 -6 -12 15 -12 15 -7 -5 5 -22 -6 -31 -21 -16 -4 4
-15 8 -24 8 -9 0 -19 14 -25 35 -10 34 -10 34 -17 10 -7 -23 -8 -22 -9 10 l-2
35 -14 -30 -13 -30 -1 43 c-1 53 19 85 67 105 84 35 92 30 47 -29z"/>
<path d="M907 809 c7 -7 15 -10 18 -7 3 3 -2 9 -12 12 -14 6 -15 5 -6 -5z"/>
<path d="M3209 733 c-29 -15 -57 -31 -61 -37 -12 -18 -9 -31 4 -18 7 7 26 12
43 12 34 0 109 46 100 61 -10 15 -27 11 -86 -18z m51 2 c0 -2 -10 -9 -22 -15
-22 -11 -22 -10 -4 4 21 17 26 19 26 11z"/>
<path d="M530 610 c0 -5 7 -10 16 -10 8 0 12 5 9 10 -3 6 -10 10 -16 10 -5 0
-9 -4 -9 -10z"/>
<path d="M5000 770 c-62 -13 -94 -40 -98 -80 -6 -60 6 -97 36 -108 27 -11 194
-28 222 -23 8 2 39 21 68 42 53 40 64 67 46 114 -18 46 -169 77 -274 55z m201
-35 c40 -19 61 -47 53 -70 -9 -24 -24 -18 -24 10 0 14 -4 25 -10 25 -5 0 -10
-9 -10 -19 0 -36 -11 -53 -26 -40 -12 9 -17 8 -28 -6 -12 -17 -14 -17 -29 6
-16 22 -17 22 -17 4 -1 -16 -7 -13 -35 19 -34 39 -49 31 -20 -10 22 -32 4 -38
-22 -8 -13 15 -23 31 -23 36 0 4 -4 8 -10 8 -6 0 -6 -9 0 -26 6 -14 10 -27 10
-30 0 -9 -19 -3 -32 9 -7 7 -21 16 -30 20 -26 9 -22 46 5 56 26 10 96 4 112
-9 12 -10 82 -17 90 -9 3 4 -17 16 -45 28 -27 12 -50 24 -50 28 0 11 105 -5
141 -22z"/>
<path d="M5390 409 c-30 -11 -68 -23 -83 -26 -16 -3 -44 -21 -63 -40 -31 -31
-34 -39 -34 -93 0 -49 -3 -60 -16 -60 -30 0 30 -38 80 -52 36 -10 56 -10 91 0
25 7 52 12 60 12 8 0 39 11 69 25 30 14 59 25 63 25 14 0 90 73 102 97 16 32
14 49 -13 79 -18 22 -36 30 -82 35 -33 5 -72 10 -89 14 -18 3 -51 -3 -85 -16z
m90 -24 c0 -8 -16 -19 -37 -24 -81 -23 -121 -63 -138 -139 -8 -41 -21 -33 -30
18 -5 31 -2 47 14 73 23 37 44 51 111 72 59 18 80 18 80 0z m125 -17 c31 -14
32 -30 3 -63 -20 -24 -23 -24 -29 -8 -5 14 -9 11 -16 -16 -12 -47 -38 -56 -28
-10 l7 34 -23 -34 c-31 -45 -54 -54 -45 -17 9 35 2 33 -24 -9 -24 -39 -40 -45
-40 -15 0 11 -4 20 -10 20 -5 0 -10 -11 -10 -25 0 -30 -19 -32 -43 -5 -16 19
-15 22 24 60 23 22 46 40 53 40 6 1 36 14 66 30 62 32 78 35 115 18z"/>
<path d="M4605 350 c-16 -11 -39 -20 -51 -20 -11 0 -30 -10 -41 -22 -52 -58
-57 -111 -14 -157 25 -27 27 -31 10 -31 -10 0 -19 4 -19 9 0 5 -9 11 -20 14
-16 4 -20 0 -20 -17 0 -27 18 -46 42 -46 10 0 18 -4 18 -9 0 -5 17 -11 38 -14
20 -3 58 -9 84 -13 36 -5 54 -3 72 10 14 9 39 16 55 16 48 0 79 20 101 65 34
69 22 115 -45 174 -70 61 -154 78 -210 41z m153 -40 c55 -39 77 -73 63 -97 -9
-16 -11 -14 -21 15 -7 17 -16 32 -22 32 -5 0 2 -21 16 -46 30 -53 32 -76 11
-94 -12 -10 -15 -9 -15 5 0 10 -3 15 -7 12 -3 -4 -17 0 -30 8 -18 12 -23 13
-23 2 0 -20 -44 -14 -48 6 -2 9 -8 17 -14 17 -6 0 -7 -12 -3 -31 12 -52 -12
-25 -36 41 -25 69 -34 77 -25 23 6 -33 5 -36 -7 -21 -8 10 -17 15 -20 12 -3
-4 -10 9 -16 27 -8 31 -9 32 -12 9 -1 -14 -2 -31 -2 -37 1 -18 -14 -16 -21 3
-17 45 9 104 45 104 32 0 95 -37 137 -80 34 -36 41 -39 52 -25 18 22 -8 56
-74 97 -31 18 -56 36 -56 41 0 4 20 7 43 7 33 0 54 -8 85 -30z m-179 -211 c20
-7 42 -14 50 -16 8 -2 12 -6 9 -9 -8 -7 -97 16 -104 27 -7 12 2 11 45 -2z"/>
<path d="M3878 303 c7 -3 16 -2 19 1 4 3 -2 6 -13 5 -11 0 -14 -3 -6 -6z"/>
<path d="M3838 293 c7 -3 16 -2 19 1 4 3 -2 6 -13 5 -11 0 -14 -3 -6 -6z"/>
<path d="M6235 261 c-22 -10 -46 -25 -54 -34 -7 -10 -19 -17 -26 -17 -21 0
-47 -37 -52 -78 -4 -32 -1 -43 17 -60 45 -42 91 -57 170 -56 119 1 210 56 210
129 0 103 -149 169 -265 116z m22 -27 c-45 -23 -67 -48 -54 -61 3 -3 29 11 56
31 28 21 65 40 84 43 38 6 88 -15 110 -48 13 -18 13 -24 0 -50 -18 -35 -27
-38 -19 -5 3 14 2 28 -4 31 -5 3 -10 -2 -10 -11 0 -9 -10 -31 -23 -48 -13 -17
-26 -39 -30 -48 -3 -10 -13 -18 -22 -18 -19 0 -20 -1 12 59 14 28 23 54 19 58
-3 4 -22 -9 -41 -27 -28 -27 -35 -30 -35 -16 0 16 -4 14 -21 -8 -11 -14 -24
-24 -29 -21 -5 3 -11 1 -15 -5 -10 -16 -25 -12 -25 7 0 15 -2 14 -15 -3 -14
-18 -14 -17 -16 16 l-1 35 -7 -30 c-3 -16 -10 -29 -14 -27 -4 1 -7 4 -7 7 0 3
0 21 0 40 0 54 78 121 145 124 6 0 -12 -11 -38 -25z m-2 -174 c-3 -5 -11 -10
-16 -10 -6 0 -7 5 -4 10 3 6 11 10 16 10 6 0 7 -4 4 -10z"/>
</g>
</svg>
